<?xml version="1.0" encoding="UTF-8" standalone="no"?>
<svg xmlns:svg="http://www.w3.org/2000/svg" xmlns="http://www.w3.org/2000/svg" version="1.0" width="305.00754" height="309.03619">
<defs/>
<g transform="translate(2.25e-06, -743.326)">
<g transform="matrix(3.45287, 0, 0, 3.45287, -254.908, -1032.11)">
<g transform="matrix(0, 1.25, 1.25, 0, 122.361, 600.05)">
<path d="M 0,0 C 0.845,-0.292 2.913,-1.195 2.913,-3.408 C 2.913,-5.914 0.175,-6.758 0.087,-6.816 L -0.175,-6.874 C -0.175,-6.874 0,-4.719 0,-3.554 C 0,-2.36 -0.117,-0.32 -0.175,0 L 0,0" style="fill: rgb(0, 0, 0); fill-opacity: 1; fill-rule: evenodd; stroke: none;"/>
</g>
<g transform="matrix(0, 1.25, 1.25, 0, 130.591, 598.375)">
<path d="M 0,0 L 0.058,0.524 C 1.66,-0.117 3.466,-1.195 3.466,-3.38 C 3.466,-5.476 2.243,-6.496 1.427,-6.963 L 1.223,-7.312 C 1.223,-7.312 1.078,-3.7 0,0" style="fill: rgb(0, 0, 0); fill-opacity: 1; fill-rule: evenodd; stroke: none;"/>
</g>
<g transform="matrix(0, 1.25, 1.25, 0, 105.757, 598.375)">
<path d="M 0,0 L 0.058,-0.525 C 1.66,0.087 3.466,1.194 3.466,3.35 C 3.466,5.447 2.185,6.584 1.427,7.049 L 1.223,7.282 C 1.223,7.282 1.078,3.67 0,0" style="fill: rgb(0, 0, 0); fill-opacity: 1; fill-rule: evenodd; stroke: none;"/>
</g>
<g transform="matrix(0, 1.25, 1.25, 0, 120.323, 600.268)">
<path d="M 0,0 C 0.495,-0.35 0.466,-0.583 0.466,-0.991 C 0.466,-1.195 0.641,-1.486 0.932,-1.486 C 1.165,-1.486 1.369,-1.282 1.369,-0.962 C 1.369,-0.204 0.35,0.349 -0.088,0.524 C -0.088,0.524 -0.117,0.961 -0.117,1.078 C -0.117,1.078 2.214,0.291 2.214,-1.748 C 2.214,-3.787 -0.088,-4.603 -0.088,-4.603 C -0.088,-4.603 0,-2.884 0,-1.894 C 0,-0.932 0,-0.292 0,0" style="fill: rgb(255, 242, 0); fill-opacity: 1; fill-rule: evenodd; stroke: none;"/>
</g>
<g transform="matrix(0, 1.25, 1.25, 0, 130.226, 598.958)">
<path d="M 0,0 C 0.378,-1.311 0.67,-2.272 0.932,-4.486 C 0.932,-4.486 1.165,-4.428 1.136,-3.933 C 1.136,-3.758 1.078,-3.728 1.078,-3.641 C 1.048,-3.524 1.194,-3.291 1.427,-3.321 C 1.602,-3.35 1.806,-3.496 1.806,-3.991 C 1.806,-4.486 1.398,-5.069 1.019,-5.359 C 1.019,-5.359 1.106,-5.651 1.106,-5.942 C 1.106,-5.942 2.447,-5.011 2.447,-3.146 C 2.447,-1.078 0.611,-0.32 0,0" style="fill: rgb(255, 242, 0); fill-opacity: 1; fill-rule: evenodd; stroke: none;"/>
</g>
<g transform="matrix(0, 1.25, 1.25, 0, 128.515, 600.596)">
<path d="M 0,0 C -0.32,0 -0.612,-0.087 -0.874,-0.262 C -0.699,-0.99 -0.554,-1.807 -0.379,-3.03 C -0.35,-3.03 -0.32,-3.03 -0.292,-3.059 C -0.233,-2.972 -0.175,-2.826 -0.175,-2.564 C -0.175,-2.389 -0.233,-2.36 -0.233,-2.272 C -0.262,-2.156 -0.117,-1.923 0.116,-1.952 C 0.291,-1.981 0.495,-2.127 0.495,-2.622 C 0.495,-2.738 0.466,-2.884 0.437,-3 C 0.641,-2.942 0.845,-2.826 1.02,-2.68 C 1.106,-2.418 1.136,-2.098 1.136,-1.777 C 1.136,-1.107 0.961,-0.583 0.67,-0.146 C 0.466,-0.059 0.233,0 0,0" style="fill: rgb(255, 223, 0); fill-opacity: 1; fill-rule: evenodd; stroke: none;"/>
</g>
<g transform="matrix(0, 1.25, 1.25, 0, 128.479, 600.596)">
<path d="M 0,0 C -0.32,0 -0.612,-0.087 -0.874,-0.262 C -0.699,-0.961 -0.554,-1.777 -0.408,-2.971 C -0.35,-2.971 -0.32,-3 -0.262,-3 C -0.204,-2.913 -0.175,-2.796 -0.175,-2.535 C -0.175,-2.36 -0.233,-2.33 -0.233,-2.243 C -0.262,-2.126 -0.117,-1.893 0.116,-1.923 C 0.291,-1.952 0.495,-2.098 0.495,-2.593 C 0.495,-2.709 0.466,-2.826 0.437,-2.971 C 0.67,-2.884 0.874,-2.768 1.048,-2.621 C 1.106,-2.36 1.136,-2.068 1.136,-1.748 C 1.136,-1.078 0.961,-0.583 0.699,-0.145 C 0.495,-0.058 0.262,0 0,0" style="fill: rgb(255, 225, 0); fill-opacity: 1; fill-rule: evenodd; stroke: none;"/>
</g>
<g transform="matrix(0, 1.25, 1.25, 0, 128.479, 600.596)">
<path d="M 0,0 C -0.32,0 -0.612,-0.117 -0.845,-0.292 C -0.699,-0.99 -0.554,-1.777 -0.408,-2.942 C -0.35,-2.971 -0.292,-2.971 -0.262,-2.971 C -0.204,-2.913 -0.175,-2.768 -0.175,-2.535 C -0.175,-2.36 -0.233,-2.33 -0.233,-2.243 C -0.262,-2.126 -0.117,-1.893 0.116,-1.923 C 0.291,-1.952 0.495,-2.098 0.495,-2.593 C 0.495,-2.709 0.495,-2.826 0.437,-2.942 C 0.67,-2.855 0.874,-2.738 1.048,-2.593 C 1.106,-2.33 1.136,-2.039 1.136,-1.748 C 1.136,-1.107 0.961,-0.612 0.728,-0.204 C 0.495,-0.087 0.262,0 0,0" style="fill: rgb(255, 227, 0); fill-opacity: 1; fill-rule: evenodd; stroke: none;"/>
</g>
<g transform="matrix(0, 1.25, 1.25, 0, 106.086, 598.958)">
<path d="M 0,0 C 0.378,1.34 0.67,2.272 0.932,4.515 C 0.932,4.515 1.165,4.427 1.136,3.961 C 1.136,3.757 1.078,3.728 1.078,3.67 C 1.048,3.524 1.194,3.321 1.427,3.349 C 1.602,3.349 1.806,3.496 1.806,3.991 C 1.806,4.486 1.398,5.069 1.019,5.36 C 1.019,5.36 1.106,5.651 1.106,5.972 C 1.106,5.972 2.447,5.01 2.447,3.146 C 2.447,1.078 0.611,0.32 0,0" style="fill: rgb(255, 242, 0); fill-opacity: 1; fill-rule: evenodd; stroke: none;"/>
</g>
<g transform="matrix(0, 1.25, 1.25, 0, 117.92, 585.266)">
<path d="M 0,0 C 0,7.078 -4.34,14.943 -10.632,20.478 C -11.302,21.06 -12.613,22.08 -12.613,24.498 C -12.613,26.887 -10.399,30.09 -6.437,29.712 C -3.524,29.42 3.03,25.284 7.05,18.177 C 11.099,11.069 11.972,4.544 11.972,0 C 11.972,-4.545 11.099,-11.099 7.05,-18.206 C 3.03,-25.285 -3.524,-29.451 -6.437,-29.712 C -10.399,-30.091 -12.613,-26.916 -12.613,-24.498 C -12.613,-22.11 -11.302,-21.09 -10.632,-20.507 C -4.34,-14.973 0,-7.108 0,0" style="fill: rgb(255, 242, 0); fill-opacity: 1; fill-rule: evenodd; stroke: none;"/>
</g>
<g transform="matrix(0, 1.25, 1.25, 0, 117.92, 584.976)">
<path d="M 0,0 C 0,3.437 -1.048,7.049 -2.854,10.516 C -4.719,14.099 -7.399,17.507 -10.574,20.274 C -10.923,20.595 -11.419,21.002 -11.856,21.672 C -12.293,22.342 -12.613,23.216 -12.613,24.498 C -12.613,24.614 -12.613,24.76 -12.613,24.906 C -12.496,26.071 -11.943,27.324 -10.953,28.314 C -9.991,29.304 -8.593,29.974 -6.816,29.974 C -6.612,29.974 -6.409,29.974 -6.175,29.945 C -4.515,29.8 -1.689,28.401 1.195,25.954 C 3.438,24.032 5.71,21.468 7.516,18.293 C 9.555,14.739 10.778,11.302 11.507,8.185 C 12.235,5.069 12.439,2.272 12.439,0 C 12.439,-2.302 12.235,-5.098 11.507,-8.215 C 10.778,-11.302 9.555,-14.74 7.516,-18.323 C 5.71,-21.469 3.438,-24.062 1.195,-25.984 C -1.689,-28.431 -4.515,-29.829 -6.175,-29.974 C -6.409,-30.004 -6.612,-30.004 -6.816,-30.004 C -8.593,-30.004 -9.991,-29.304 -10.953,-28.343 C -11.943,-27.353 -12.496,-26.071 -12.613,-24.935 C -12.613,-24.79 -12.613,-24.644 -12.613,-24.498 C -12.613,-23.245 -12.293,-22.342 -11.856,-21.672 C -11.419,-21.032 -10.923,-20.624 -10.574,-20.304 C -7.399,-17.507 -4.719,-14.128 -2.854,-10.516 C -1.048,-7.079 0,-3.438 0,0 z M 0.495,0 C 0.495,-3.525 -0.553,-7.254 -2.389,-10.749 C -4.282,-14.42 -6.991,-17.857 -10.225,-20.682 C -10.574,-20.974 -11.04,-21.382 -11.419,-21.964 C -11.798,-22.547 -12.118,-23.362 -12.118,-24.498 C -12.118,-24.644 -12.118,-24.76 -12.089,-24.877 C -12.001,-25.926 -11.477,-27.091 -10.603,-27.965 C -9.7,-28.868 -8.447,-29.509 -6.816,-29.509 C -6.612,-29.509 -6.409,-29.479 -6.204,-29.479 C -4.632,-29.334 -1.923,-27.965 0.845,-25.605 C 3.058,-23.712 5.301,-21.177 7.079,-18.061 C 9.089,-14.536 10.283,-11.157 11.011,-8.098 C 11.739,-5.011 11.943,-2.272 11.943,0 C 11.943,2.243 11.739,5.01 11.011,8.069 C 10.283,11.128 9.089,14.536 7.079,18.06 C 5.301,21.148 3.058,23.683 0.845,25.576 C -1.923,27.964 -4.632,29.304 -6.204,29.45 C -6.409,29.479 -6.612,29.479 -6.816,29.479 C -8.447,29.479 -9.7,28.838 -10.603,27.964 C -11.477,27.061 -12.001,25.896 -12.089,24.847 C -12.118,24.731 -12.118,24.614 -12.118,24.498 C -12.118,23.333 -11.798,22.546 -11.419,21.935 C -11.04,21.352 -10.574,20.944 -10.225,20.653 C -6.991,17.827 -4.282,14.389 -2.389,10.748 C -0.553,7.224 0.495,3.524 0.495,0" style="fill: rgb(0, 0, 0); fill-opacity: 1; fill-rule: evenodd; stroke: none;"/>
</g>
<g transform="matrix(0, 1.25, 1.25, 0, 91.3025, 572.741)">
<path d="M 0,0 L -0.088,-0.087 C -0.728,-0.641 -1.631,-1.428 -1.631,-3.263 C -1.631,-4.34 -1.048,-5.564 -0.146,-6.379 C 0.525,-6.991 1.69,-7.69 3.466,-7.515 C 5.913,-7.282 12.263,-3.379 16.196,3.525 C 19.371,9.089 20.974,15.06 20.974,21.235 C 20.974,27.382 19.371,33.353 16.196,38.917 C 12.263,45.85 5.913,49.724 3.466,49.958 C 1.69,50.132 0.525,49.433 -0.146,48.821 C -1.048,48.035 -1.631,46.811 -1.631,45.733 C -1.631,43.869 -0.728,43.083 -0.088,42.529 L 0,42.442 C 6.787,36.5 10.982,28.372 10.982,21.235 C 10.982,14.07 6.787,5.943 0,0" style="fill: rgb(226, 14, 14); fill-opacity: 1; fill-rule: evenodd; stroke: none;"/>
</g>
<g transform="matrix(0, 1.25, 1.25, 0, 146.43, 562.763)">
<path d="M 0,0 C -3.408,0 -6.175,2.768 -6.175,6.146 C -6.175,9.555 -3.408,12.322 0,12.322 C 3.408,12.322 6.176,9.555 6.176,6.146 C 6.176,2.768 3.408,0 0,0" style="fill: rgb(255, 242, 0); fill-opacity: 1; fill-rule: evenodd; stroke: none;"/>
</g>
<g transform="matrix(0, 1.25, 1.25, 0, 146.102, 562.763)">
<path d="M 0,0 C -1.776,0 -3.379,0.728 -4.544,1.893 C -5.709,3.03 -6.409,4.661 -6.409,6.409 C -6.409,8.186 -5.709,9.817 -4.544,10.953 C -3.379,12.118 -1.776,12.846 0,12.846 C 1.777,12.846 3.379,12.118 4.544,10.953 C 5.709,9.817 6.438,8.186 6.438,6.409 C 6.438,4.661 5.709,3.03 4.544,1.893 C 3.379,0.728 1.777,0 0,0 z M 0,0.495 C 1.632,0.495 3.117,1.165 4.195,2.243 C 5.273,3.321 5.913,4.778 5.913,6.409 C 5.913,8.069 5.273,9.525 4.195,10.604 C 3.117,11.682 1.632,12.322 0,12.322 C -1.631,12.322 -3.116,11.682 -4.166,10.604 C -5.244,9.525 -5.914,8.069 -5.914,6.409 C -5.914,4.778 -5.244,3.321 -4.166,2.243 C -3.116,1.165 -1.631,0.495 0,0.495" style="fill: rgb(0, 0, 0); fill-opacity: 1; fill-rule: evenodd; stroke: none;"/>
</g>
<g transform="matrix(0, 1.25, 1.25, 0, 74.1162, 562.801)">
<path d="M 0,0 C -3.408,0 -6.176,2.767 -6.176,6.175 C -6.176,9.583 -3.408,12.351 0,12.351 C 3.408,12.351 6.146,9.583 6.146,6.175 C 6.146,2.767 3.408,0 0,0" style="fill: rgb(255, 242, 0); fill-opacity: 1; fill-rule: evenodd; stroke: none;"/>
</g>
<g transform="matrix(0, 1.25, 1.25, 0, 73.825, 562.801)">
<path d="M 0,0 C -1.777,0 -3.379,0.699 -4.544,1.864 C -5.709,3.029 -6.438,4.631 -6.438,6.408 C -6.438,8.185 -5.709,9.788 -4.544,10.953 C -3.379,12.118 -1.777,12.846 0,12.846 C 1.748,12.846 3.379,12.118 4.544,10.953 C 5.68,9.788 6.409,8.185 6.409,6.408 C 6.409,4.631 5.68,3.029 4.544,1.864 C 3.379,0.699 1.748,0 0,0 z M 0,0.495 C 1.631,0.495 3.088,1.164 4.166,2.242 C 5.244,3.291 5.914,4.777 5.914,6.408 C 5.914,8.04 5.244,9.525 4.166,10.603 C 3.088,11.681 1.631,12.321 0,12.321 C -1.632,12.321 -3.117,11.681 -4.195,10.603 C -5.273,9.525 -5.913,8.04 -5.913,6.408 C -5.913,4.777 -5.273,3.291 -4.195,2.242 C -3.117,1.164 -1.632,0.495 0,0.495" style="fill: rgb(0, 0, 0); fill-opacity: 1; fill-rule: evenodd; stroke: none;"/>
</g>
<g transform="matrix(0, 1.25, 1.25, 0, 156.225, 542.046)">
<path d="M 0,0 L -1.66,0.058 C -1.282,0.553 -1.253,1.514 -1.865,2.068 C -2.127,2.33 -2.563,2.476 -3,2.447 C -3.496,2.418 -3.991,2.214 -4.34,1.835 C -6.379,-0.234 -8.389,-2.068 -8.389,-2.068 C -8.71,-2.272 -8.914,-2.563 -9.001,-2.738 C -9.118,-3 -9.526,-3.903 -8.477,-4.573 C -7.544,-5.185 -6.205,-5.098 -5.71,-4.981 L -3.058,-3.03 C -2.214,-2.389 -0.437,-0.495 0,0" style="fill: rgb(0, 0, 15); fill-opacity: 0.941176; fill-rule: evenodd; stroke: none;"/>
</g>
<g transform="matrix(0, 1.25, 1.25, 0, 104.338, 520.562)">
<path d="M 0,0 C -0.816,2.447 -1.486,4.66 -1.777,7.69 L 0,0" style="fill: rgb(35, 31, 32); fill-opacity: 1; fill-rule: evenodd; stroke: none;"/>
</g>
<g transform="matrix(0, 1.25, 1.25, 0, 104.338, 520.562)">
<path d="M 0,0 C -0.816,2.447 -1.486,4.66 -1.748,7.69 L -2.01,8.156 C -3.35,6.467 -4.253,4.777 -4.253,3.117 C -4.253,2.068 -3.525,-0.059 0.204,-0.525 L 0,0" style="fill: rgb(0, 0, 0); fill-opacity: 1; fill-rule: evenodd; stroke: none;"/>
</g>
<g transform="matrix(0, 1.25, 1.25, 0, 131.501, 520.562)">
<path d="M 0,0 C -0.816,-2.447 -1.486,-4.69 -1.748,-7.691 L -2.01,-8.156 C -3.35,-6.467 -4.253,-4.806 -4.253,-3.146 C -4.253,-2.098 -3.525,0.029 0.204,0.495 L 0,0" style="fill: rgb(0, 0, 0); fill-opacity: 1; fill-rule: evenodd; stroke: none;"/>
</g>
<g transform="matrix(0, 1.25, 1.25, 0, 115.408, 517.905)">
<path d="M 0,0 C -0.029,0.495 -0.058,1.631 -0.058,2.098 C -0.058,2.563 0,3.816 0.029,4.107 L 0,0" style="fill: rgb(35, 31, 32); fill-opacity: 1; fill-rule: evenodd; stroke: none;"/>
</g>
<g transform="matrix(0, 1.25, 1.25, 0, 114.46, 518.195)">
<path d="M 0,0 C -2.359,1.223 -3.204,2.36 -3.204,2.971 C -3.204,3.758 -1.981,4.661 -0.378,5.389 L 0,5.534 L -0.058,4.923 C -0.146,4.486 -0.146,3.321 -0.146,2.855 C -0.146,2.389 -0.146,1.398 -0.116,0.787 L 0,0" style="fill: rgb(0, 0, 0); fill-opacity: 1; fill-rule: evenodd; stroke: none;"/>
</g>
<g transform="matrix(0, 1.25, 1.25, 0, 111.438, 588.107)">
<path d="M 0,0 L 4.108,-1.107 L -0.845,-3.175 L -1.195,-4.428 L 4.632,-6.001 L 4.981,-4.602 L 0.845,-3.496 L 5.855,-1.398 L 6.176,-0.175 L 0.379,1.398 L 0,0" style="fill: rgb(255, 242, 0); fill-opacity: 1; fill-rule: evenodd; stroke: none;"/>
</g>
<g transform="matrix(0, 1.25, 1.25, 0, 117.41, 589.017)">
<path d="M 0,0 L -0.087,-1.573 L 5.943,-1.894 L 6.03,-0.292 L 0,0" style="fill: rgb(255, 242, 0); fill-opacity: 1; fill-rule: evenodd; stroke: none;"/>
</g>
<g transform="matrix(0, 1.25, 1.25, 0, 119.194, 588.945)">
<path d="M 0,0 L 0.787,0.117 L 0.553,1.807 L 5.739,2.535 L 5.506,4.108 L 0.35,3.38 L 0.117,5.04 L -0.67,4.923 L 0,0" style="fill: rgb(255, 242, 0); fill-opacity: 1; fill-rule: evenodd; stroke: none;"/>
</g>
<g transform="matrix(0, 1.25, 1.25, 0, 139.585, 585.885)">
<path d="M 0,0 C 1.34,0.787 2.331,0.612 3,-0.553 L 3.322,-1.107 L -0.495,-3.321 L -0.844,-2.738 C -1.66,-1.311 -0.961,-0.525 0,0 z M -1.602,-3.058 L -0.408,-5.098 L 4.836,-2.097 L 3.642,-0.058 C 2.447,2.039 0.612,2.243 -0.874,1.428 C -2.621,0.408 -2.651,-1.223 -1.602,-3.058" style="fill: rgb(255, 242, 0); fill-opacity: 1; fill-rule: evenodd; stroke: none;"/>
</g>
<g transform="matrix(0, 1.25, 1.25, 0, 130.955, 593.168)">
<path d="M 0,0 L -1.864,-0.583 L -2.447,1.195 L -3.204,0.932 L -2.621,-0.845 L -4.194,-1.34 L -4.806,0.467 L -5.564,0.233 L -4.457,-3.116 L 1.253,-1.253 L 0.059,2.447 L -0.699,2.185 L 0,0" style="fill: rgb(255, 242, 0); fill-opacity: 1; fill-rule: evenodd; stroke: none;"/>
</g>
<g transform="matrix(0, 1.25, 1.25, 0, 102.335, 584.866)">
<path d="M 0,0 L 3.233,-1.806 C 4.195,-2.33 4.806,-2.884 4.283,-3.787 C 3.787,-4.69 3.03,-4.486 2.04,-3.933 L -1.194,-2.156 L -1.981,-3.583 L 1.428,-5.476 C 3.292,-6.525 4.457,-5.214 5.04,-4.195 C 5.623,-3.088 6.088,-1.486 4.224,-0.467 L 0.787,1.428 L 0,0" style="fill: rgb(255, 242, 0); fill-opacity: 1; fill-rule: evenodd; stroke: none;"/>
</g>
<g transform="matrix(0, 1.25, 1.25, 0, 101.06, 540.625)">
<path d="M 0,0 L 28.227,0 L 36.878,13.487 L 28.227,26.974 L 0.059,26.974 C -0.32,26.566 -1.165,25.663 -1.601,24.935 L -1.601,1.952 C -1.194,1.369 -0.203,0.175 0,0" style="fill: rgb(255, 242, 0); fill-opacity: 1; fill-rule: evenodd; stroke: none;"/>
</g>
<g transform="matrix(0, 1.25, 1.25, 0, 101.351, 540.625)">
<path d="M 0,0 L 28.081,0 L 36.587,13.254 L 28.081,26.479 L 0.059,26.479 L 0.059,27.003 L 28.227,26.974 L 28.343,26.974 L 28.431,26.858 L 37.112,13.37 L 37.199,13.254 L 37.112,13.108 L 28.431,-0.378 L 28.343,-0.495 L 0,-0.495 L 0,0" style="fill: rgb(0, 0, 0); fill-opacity: 1; fill-rule: evenodd; stroke: none;"/>
</g>
<g transform="matrix(0, 1.25, 1.25, 0, 134.559, 540.953)">
<path d="M 0,0 C -0.116,-0.116 -0.029,-0.029 -0.146,-0.146 C -0.583,-0.611 -1.281,-1.369 -1.631,-1.981 L -2.068,-1.718 C -1.66,-1.078 -0.961,-0.291 -0.524,0.204 C -0.524,0.204 -0.583,0.146 -0.408,0.35 L 0,0" style="fill: rgb(35, 31, 32); fill-opacity: 1; fill-rule: evenodd; stroke: none;"/>
</g>
<path d="M 103.5,538.29468 L 103.5,538.95033 L 132.22875,538.95033 L 132.22875,538.29468 L 103.5,538.29468 z" style="fill: rgb(0, 0, 0); fill-opacity: 1; fill-rule: nonzero; stroke: none;"/>
<g transform="matrix(0, 1.25, 1.25, 0, 103.683, 538.877)">
<path d="M 0,0 C 0.204,-0.292 0.525,-0.67 0.815,-1.02 C 1.137,-1.457 1.485,-1.806 1.573,-1.923 L 1.253,-2.301 C 1.107,-2.185 0.757,-1.777 0.408,-1.34 C 0.087,-0.962 -0.233,-0.583 -0.408,-0.292 L 0,0" style="fill: rgb(35, 31, 32); fill-opacity: 1; fill-rule: evenodd; stroke: none;"/>
</g>
<g transform="matrix(0, 1.25, 1.25, 0, 119.084, 555.737)">
<path d="M 0,0 C -0.058,-0.087 0.204,-0.408 0.466,-0.583 C 0.699,-0.728 1.02,-0.757 1.136,-0.553 C 1.253,-0.349 1.107,-0.058 0.728,0 C 0.495,0.029 0.029,0.117 0,0 z M 0.728,-2.563 C 1.107,-2.505 1.253,-2.243 1.136,-2.009 C 1.02,-1.806 0.699,-1.835 0.466,-2.009 C 0.204,-2.156 -0.058,-2.476 0,-2.563 C 0.029,-2.651 0.495,-2.592 0.728,-2.563 z M 4.457,-1.223 C 3.729,-0.757 2.942,-0.583 2.942,-0.583 L 2.942,-1.864 C 2.942,-1.864 3.729,-1.66 4.457,-1.223 z M -1.107,-0.99 L -2.942,0.059 L -1.107,0.874 L -1.107,2.214 C -0.35,1.399 0.816,1.078 1.573,1.078 L 2.418,1.078 C 2.768,1.078 3.35,0.904 3.35,0.904 C 3.35,0.904 4.253,2.069 4.399,2.243 C 4.457,2.33 4.515,2.418 4.661,2.36 C 4.923,2.272 5.272,1.457 5.36,1.369 C 5.506,1.195 5.593,1.165 5.767,1.195 C 5.914,1.253 5.942,1.399 5.826,1.719 C 5.739,2.01 5.389,2.651 5.185,3.205 C 4.952,3.729 4.981,4.457 4.981,4.457 L 3.961,4.457 L 3.961,2.418 L 0.699,2.418 L 0.145,2.069 L -1.457,2.972 L 0.145,3.845 L 0.699,3.496 L 2.418,3.496 L 2.418,4.545 L 0.699,4.545 L 0.145,4.166 L -1.457,5.069 L 0.145,5.972 L 0.699,5.623 L 2.418,5.623 L 2.418,6.641 L 0.699,6.641 L 0.145,6.293 L -1.457,7.166 L 0.145,8.069 L 0.699,7.72 L 3.961,7.72 L 3.961,5.71 L 5.476,5.71 C 5.914,6.146 6.874,6.583 7.486,6.583 C 8.069,6.583 8.302,6.205 8.302,6.205 C 8.768,6.351 8.972,6.321 9.38,6.263 C 9.817,6.205 10.487,5.681 10.487,5.681 L 18.264,5.681 C 18.818,5.681 18.759,4.457 18.294,4.457 L 10.662,4.457 C 9.904,3.758 9.322,1.865 9.322,1.865 C 9.992,1.165 11.215,0.729 11.215,0.729 C 11.418,1.049 11.215,1.515 11.011,1.69 C 10.807,1.865 10.748,2.214 10.865,2.418 C 11.011,2.622 11.04,2.68 11.36,2.593 C 11.652,2.535 12.176,2.389 12.526,2.389 C 12.875,2.389 12.817,2.826 12.846,3.117 C 12.875,3.729 13.574,3.845 13.953,3.787 C 14.332,3.729 15.148,3.554 15.672,3.554 C 16.167,3.554 16.691,3.583 16.982,3.642 C 17.245,3.67 17.565,3.787 17.915,3.758 C 18.41,3.729 18.469,3.438 18.177,3.117 C 17.857,2.826 13.313,-1.456 13.313,-1.456 C 14.244,-1.747 15.817,-0.553 16.312,-0.174 C 16.779,0.204 17.157,0.175 17.477,-0.145 C 17.827,-0.495 18.002,-1.136 18.294,-1.252 C 18.614,-1.369 19.517,-0.932 20.682,-0.058 C 21.818,0.845 22.605,-1.078 22.808,-2.214 C 23.041,-3.379 22.255,-3.379 21.818,-3.291 C 21.381,-3.204 21.148,-3.204 20.74,-3.233 C 20.362,-3.262 19.837,-3.612 19.197,-4.107 C 18.555,-4.602 17.973,-4.602 16.487,-4.399 C 15.002,-4.194 14.069,-4.252 14.069,-4.252 C 14.069,-4.252 14.099,-4.748 14.069,-5.476 C 14.041,-6.233 13.603,-6.845 11.826,-6.903 C 10.02,-6.933 5.767,-6.991 5.331,-7.107 C 4.864,-7.224 4.777,-7.69 4.748,-7.894 C 4.689,-8.127 4.369,-8.127 4.282,-7.923 C 4.02,-7.398 3.35,-6.758 2.942,-6.991 C 2.534,-7.224 2.621,-8.156 2.942,-8.797 C 3.233,-9.438 3.903,-10.078 4.078,-10.253 C 4.282,-10.428 4.282,-10.574 4.078,-10.545 C 3.874,-10.545 2.913,-10.661 2.563,-10.748 C 2.214,-10.836 1.573,-11.156 1.398,-11.244 C 1.223,-11.36 1.165,-11.244 1.223,-11.069 C 1.311,-10.894 1.456,-10.545 1.544,-10.166 C 1.66,-9.816 1.485,-9.467 1.136,-9.292 C 0.816,-9.146 0.087,-8.797 -0.262,-8.651 C -0.583,-8.476 -0.495,-8.185 -0.467,-7.981 C -0.408,-7.748 -0.262,-7.544 -0.175,-7.34 C -0.087,-7.137 -0.117,-6.962 -0.204,-6.903 C -0.32,-6.845 -0.35,-6.758 -0.612,-6.642 C -0.874,-6.525 -0.757,-6.35 -0.641,-6.35 C 3.029,-5.738 3.175,-4.136 3.175,-4.136 C 3.816,-4.369 4.777,-4.952 5.011,-5.068 C 5.243,-5.214 5.564,-5.272 5.826,-5.301 C 6.088,-5.33 8.505,-5.214 9.38,-5.039 C 10.283,-4.864 9.933,-4.34 9.671,-4.165 C 9.38,-3.99 8.273,-3.466 8.273,-3.466 C 8.273,-3.466 7.952,-3.321 7.69,-3.321 C 7.457,-3.321 6.874,-3.757 6.7,-3.874 C 6.554,-3.961 6.204,-4.34 5.36,-4.34 C 4.515,-4.34 3.903,-3.582 3.671,-3.321 C 3.466,-3.029 3.146,-3.029 2.971,-3.059 C 2.301,-3.204 0.932,-3.903 0.408,-4.224 C -0.145,-4.573 -1.136,-5.243 -1.136,-5.243 L -1.136,-3.845 L -2.971,-2.971 L -1.136,-2.009 L -1.107,-0.99 z M 8.156,4.457 L 7.107,4.457 C 7.107,4.457 6.671,4.166 6.671,3.467 C 6.671,2.797 6.874,2.389 7.049,2.389 C 7.34,2.389 8.156,3 8.156,4.457" style="fill: rgb(226, 14, 14); fill-opacity: 1; fill-rule: evenodd; stroke: none;"/>
</g>
<path d="M 102.37125,549.43718 L 102.37125,551.54843 L 133.4675,551.54843 L 133.4675,549.43718 L 102.37125,549.43718 z" style="fill: rgb(226, 14, 14); fill-opacity: 1; fill-rule: nonzero; stroke: none;"/>
<path d="M 102.37125,539.89718 L 102.37125,548.34531 L 133.4675,548.34531 L 133.4675,539.89718 L 102.37125,539.89718 z" style="fill: rgb(226, 14, 14); fill-opacity: 1; fill-rule: nonzero; stroke: none;"/>
<g transform="matrix(0, 1.25, 1.25, 0, 127.35, 548.6)">
<path d="M 0,0 L -1.165,0 L -1.165,-1.806 L -1.894,-1.806 L -1.894,-0.32 L -5.156,-0.32 L -5.156,-1.69 L -6.059,-2.156 L -5.156,-2.622 L -5.156,-3.961 L -1.894,-3.961 L -1.894,-2.476 L -1.165,-2.476 L -1.165,-6.03 L -1.894,-6.03 L -1.894,-4.544 L -5.156,-4.544 L -5.156,-5.914 L -6.059,-6.379 L -5.156,-6.816 L -5.156,-8.186 L -1.894,-8.186 L -1.894,-6.7 L -1.165,-6.7 L -1.165,-10.312 L -1.894,-10.312 L -1.894,-8.827 L -5.156,-8.827 L -5.156,-10.195 L -6.059,-10.662 L -5.156,-11.128 L -5.156,-12.468 L -1.894,-12.468 L -1.894,-10.982 L -1.165,-10.982 L -1.136,-13.837 L -1.807,-16.691 L 0,-16.109 L 0,0" style="fill: rgb(255, 242, 0); fill-opacity: 1; fill-rule: evenodd; stroke: none;"/>
</g>
<g transform="matrix(0, 1.25, 1.25, 0, 107.724, 546.16)">
<path d="M 0,0 L 0.466,1.893 L -2.418,2.913 L -3.146,2.913 L 0,0" style="fill: rgb(255, 242, 0); fill-opacity: 1; fill-rule: evenodd; stroke: none;"/>
</g>
<g transform="matrix(0, 1.25, 1.25, 0, 113.476, 518.122)">
<path d="M 0,0 C 0.262,-2.971 0.903,-4.777 1.69,-7.195 C 0.67,-6.991 0.058,-6.758 -0.553,-6.35 C -0.029,-6.379 0.553,-5.942 0.553,-5.068 C 0.553,-4.194 0.058,-3.729 -0.262,-3.729 C -0.553,-3.729 -0.99,-3.903 -0.99,-4.369 C -0.99,-4.835 -0.641,-4.952 -0.525,-4.894 C -0.378,-4.864 -0.35,-4.981 -0.32,-5.097 C -0.291,-5.243 -0.495,-5.622 -0.961,-5.476 C -1.456,-5.33 -1.748,-4.719 -1.748,-3.961 C -1.748,-3.961 -1.806,-2.214 0,0" style="fill: rgb(255, 242, 0); fill-opacity: 1; fill-rule: evenodd; stroke: none;"/>
</g>
<g transform="matrix(0, 1.25, 1.25, 0, 131.355, 520.271)">
<path d="M 0,0 C -0.816,-2.418 -1.427,-4.311 -1.689,-7.253 C -2.651,-5.914 -3.437,-4.631 -3.437,-3.233 C -3.437,-2.505 -3.175,-1.893 -2.651,-1.748 C -2.184,-1.602 -1.981,-1.981 -2.009,-2.097 C -2.068,-2.243 -2.097,-2.33 -2.214,-2.301 C -2.359,-2.272 -2.679,-2.359 -2.679,-2.826 C -2.679,-3.291 -2.243,-3.496 -1.951,-3.496 C -1.66,-3.496 -1.165,-3 -1.165,-2.126 C -1.165,-1.281 -1.718,-0.845 -2.243,-0.874 C -1.66,-0.436 -1.019,-0.175 0,0" style="fill: rgb(255, 242, 0); fill-opacity: 1; fill-rule: evenodd; stroke: none;"/>
</g>
<g transform="matrix(0, 1.25, 1.25, 0, 115.735, 517.431)">
<path d="M 0,0 C 0.145,-0.087 0.233,-0.145 0.378,-0.233 C 0.35,0.262 0.32,1.398 0.32,1.835 C 0.32,2.301 0.378,3.524 0.408,3.816 C -0.612,3.349 -2.04,2.534 -2.04,1.951 C -2.04,1.835 -2.098,1.573 -1.544,1.106 C -1.544,1.106 -1.311,1.048 -1.34,1.34 C -1.398,1.718 -1.02,1.864 -0.816,1.835 C -0.35,1.776 0.087,1.223 0.087,0.699 C 0.087,0.175 0,0 0,0" style="fill: rgb(255, 242, 0); fill-opacity: 1; fill-rule: evenodd; stroke: none;"/>
</g>
<g transform="matrix(0, 1.25, 1.25, 0, 83.5825, 538.222)">
<path d="M 0,0 L -2.651,1.952 C -3.147,2.069 -4.486,2.156 -5.418,1.544 C -6.467,0.845 -6.06,-0.058 -5.943,-0.32 C -5.855,-0.466 -5.651,-0.786 -5.331,-0.961 C -5.331,-0.961 -3.263,-2.854 -1.253,-4.922 C -0.962,-5.185 -0.437,-5.534 0.058,-5.564 C 0.495,-5.564 0.932,-5.389 1.223,-5.155 C 1.806,-4.573 1.776,-3.582 1.398,-3.087 L 3.058,-3.058 C 2.621,-2.534 0.844,-0.669 0,0" style="fill: rgb(0, 0, 0); fill-opacity: 1; fill-rule: evenodd; stroke: none;"/>
</g>
<g transform="matrix(0, 1.25, 1.25, 0, 117.92, 533.38)">
<path d="M 0,0 C 0,11.098 10.429,17.419 12.264,18.788 C 15.526,21.235 18.177,24.236 17.303,27.702 C 16.021,32.829 8.447,32.538 8.447,32.538 C 7.544,31.314 6.438,29.217 1.02,25.401 C -4.282,21.643 -12.176,13.166 -12.176,0 C -12.176,-13.196 -4.282,-21.672 1.02,-25.43 C 6.438,-29.246 7.544,-31.344 8.447,-32.567 C 8.447,-32.567 16.021,-32.829 17.303,-27.731 C 18.177,-24.265 15.526,-21.265 12.264,-18.818 C 10.429,-17.449 0,-11.128 0,0" style="fill: rgb(255, 242, 0); fill-opacity: 1; fill-rule: evenodd; stroke: none;"/>
</g>
<g transform="matrix(0, 1.25, 1.25, 0, 117.92, 533.088)">
<path d="M 0,0 C 0,10.312 8.855,16.545 11.739,18.555 C 12.002,18.73 12.205,18.905 12.351,18.992 C 13.953,20.216 15.409,21.556 16.371,23.013 C 17.274,24.439 17.711,25.984 17.303,27.644 C 16.138,32.188 9.787,32.305 8.797,32.305 C 8.739,32.188 8.652,32.101 8.594,31.985 C 7.69,30.702 6.263,28.634 1.398,25.197 C -1.66,23.041 -5.564,19.313 -8.302,14.011 C -10.312,10.166 -11.681,5.505 -11.681,0 C -11.681,-5.506 -10.312,-10.196 -8.302,-14.041 C -5.564,-19.342 -1.66,-23.071 1.398,-25.197 C 6.263,-28.634 7.69,-30.703 8.594,-32.014 C 8.652,-32.101 8.739,-32.217 8.797,-32.305 C 9.787,-32.334 16.138,-32.217 17.303,-27.673 C 17.711,-26.013 17.274,-24.469 16.371,-23.013 C 15.409,-21.556 13.953,-20.216 12.351,-19.022 C 12.205,-18.906 12.002,-18.759 11.739,-18.585 C 8.855,-16.546 0,-10.341 0,0 z M 0.495,0 C 0.495,-10.079 9.205,-16.168 12.03,-18.177 C 12.293,-18.352 12.497,-18.469 12.642,-18.614 C 14.303,-19.837 15.818,-21.236 16.779,-22.75 C 17.798,-24.295 18.235,-25.984 17.798,-27.79 C 16.429,-33.092 8.68,-32.829 8.68,-32.829 L 8.535,-32.829 L 8.477,-32.713 C 8.36,-32.567 8.273,-32.451 8.156,-32.276 C 7.312,-31.024 5.913,-29.013 1.107,-25.635 C -2.01,-23.45 -5.972,-19.663 -8.768,-14.273 C -10.778,-10.37 -12.205,-5.593 -12.205,0 C -12.205,5.592 -10.778,10.341 -8.768,14.244 C -5.972,19.633 -2.01,23.42 1.107,25.604 C 5.913,28.984 7.312,31.023 8.156,32.275 C 8.273,32.421 8.36,32.567 8.477,32.683 L 8.535,32.8 L 8.68,32.8 C 8.68,32.8 16.429,33.091 17.798,27.76 C 18.235,25.954 17.798,24.264 16.779,22.721 C 15.818,21.206 14.303,19.837 12.642,18.585 C 12.497,18.468 12.293,18.322 12.03,18.147 C 9.205,16.167 0.495,10.05 0.495,0" style="fill: rgb(0, 0, 0); fill-opacity: 1; fill-rule: evenodd; stroke: none;"/>
</g>
<g transform="matrix(0, 1.25, 1.25, 0, 117.92, 532.141)">
<path d="M 0,0 C 0,10.69 9.089,17.07 12.089,19.167 C 12.322,19.313 12.526,19.458 12.672,19.575 C 16.429,22.401 17.973,24.993 17.332,27.469 C 16.429,31.052 11.507,31.489 10.02,31.547 L 9.962,31.547 L 9.934,31.489 C 9.059,30.237 7.603,28.139 2.563,24.585 C -0.437,22.488 -10.195,14.448 -10.195,0 C -10.195,-14.478 -0.408,-22.488 2.563,-24.615 C 7.545,-28.139 9.089,-30.324 9.904,-31.519 L 9.934,-31.547 L 9.992,-31.547 C 11.477,-31.519 16.429,-31.052 17.332,-27.499 C 17.973,-25.023 16.429,-22.43 12.672,-19.604 C 12.526,-19.488 12.322,-19.342 12.089,-19.167 C 9.089,-17.099 0,-10.72 0,0" style="fill: rgb(226, 14, 14); fill-opacity: 1; fill-rule: evenodd; stroke: none;"/>
</g>
<g transform="matrix(0, 1.25, 1.25, 0, 89.1175, 537.385)">
<path d="M 0,0 L 1.339,-1.106 L 5.651,0.99 L 4.194,-3.524 L 5.33,-4.486 L 9.205,0.145 L 8.389,0.845 L 5.651,-2.418 L 7.049,1.952 L 6.525,2.418 L 2.33,0.32 L 5.097,3.612 L 3.874,4.603 L 0,0" style="fill: rgb(255, 242, 0); fill-opacity: 1; fill-rule: evenodd; stroke: none;"/>
</g>
<g transform="matrix(0, 1.25, 1.25, 0, 96.4, 536.256)">
<path d="M 0,0 L 1.107,-1.048 L -0.961,-2.098 L 0,0 z M -2.738,-2.418 L -1.631,-3.466 L 4.108,-0.553 L 3.35,0.145 L 1.835,-0.641 L 0.321,0.757 L 0.991,2.33 L -0.233,3.496 L -2.738,-2.418" style="fill: rgb(255, 242, 0); fill-opacity: 1; fill-rule: evenodd; stroke: none;"/>
</g>
<g transform="matrix(0, 1.25, 1.25, 0, 102.189, 526.025)">
<path d="M 0,0 L 3.612,2.243 L 1.718,-2.796 L 2.447,-3.903 L 7.545,-0.728 L 6.787,0.495 L 3.146,-1.776 L 5.01,3.321 L 4.341,4.399 L -0.758,1.224 L 0,0" style="fill: rgb(255, 242, 0); fill-opacity: 1; fill-rule: evenodd; stroke: none;"/>
</g>
<g transform="matrix(0, 1.25, 1.25, 0, 126.003, 529.702)">
<path d="M 0,0 L -1.835,0.641 L -1.224,2.418 L -1.981,2.68 L -2.593,0.903 L -4.166,1.427 L -3.525,3.263 L -4.282,3.524 L -5.448,0.203 L 0.262,-1.777 L 1.514,1.893 L 0.757,2.156 L 0,0" style="fill: rgb(255, 242, 0); fill-opacity: 1; fill-rule: evenodd; stroke: none;"/>
</g>
<g transform="matrix(0, 1.25, 1.25, 0, 138.893, 529.228)">
<path d="M 0,0 L 0.612,-0.554 L 1.748,0.728 L 5.622,-2.768 L 6.671,-1.602 L 2.796,1.893 L 3.933,3.146 L 3.321,3.67 L 0,0" style="fill: rgb(255, 242, 0); fill-opacity: 1; fill-rule: evenodd; stroke: none;"/>
</g>
<g transform="matrix(0, 1.25, 1.25, 0, 141.041, 540.552)">
<path d="M 0,0 L -1.253,1.486 L 0.175,2.709 L -0.35,3.321 L -1.777,2.126 L -2.855,3.379 L -1.369,4.632 L -1.864,5.243 L -4.573,2.971 L -0.699,-1.631 L 2.272,0.845 L 1.748,1.486 L 0,0" style="fill: rgb(255, 242, 0); fill-opacity: 1; fill-rule: evenodd; stroke: none;"/>
</g>
<g transform="matrix(0, 1.25, 1.25, 0, 149.78, 542.483)">
<path d="M 0,0 C 0.466,0.408 1.019,0.408 1.427,-0.059 C 1.864,-0.554 1.776,-1.137 1.281,-1.602 L 0.961,-1.893 L -0.408,-0.35 L 0,0 z M 2.942,-0.816 C 2.971,-0.787 3.437,0.116 2.505,1.136 C 1.747,1.981 0.699,1.718 -0.292,0.816 L -2.127,-0.816 L 1.922,-5.302 L 3.087,-4.253 L 1.486,-2.476 L 2.068,-1.952 L 4.602,-3.058 L 5.68,-1.719 L 2.942,-0.816" style="fill: rgb(255, 242, 0); fill-opacity: 1; fill-rule: evenodd; stroke: none;"/>
</g>
<g transform="matrix(0, 1.25, 1.25, 0, 120.431, 522.273)">
<path d="M 0,0 L 2.476,-0.029 L 2.418,-2.388 L -0.029,-2.359 L -0.058,-3.932 L 5.943,-4.049 L 5.972,-2.447 L 3.233,-2.417 L 3.263,-0.029 L 6.03,-0.087 L 6.059,1.486 L 0.029,1.602 L 0,0" style="fill: rgb(255, 242, 0); fill-opacity: 1; fill-rule: evenodd; stroke: none;"/>
</g>
<g transform="matrix(0, 1.25, 1.25, 0, 131.174, 533.452)">
<path d="M 0,0 C 0.699,1.107 0.583,2.36 -0.378,2.913 C -1.048,3.35 -1.573,3.35 -2.563,2.855 C -2.854,2.709 -3.058,2.534 -3.321,2.418 C -3.729,2.214 -4.049,2.01 -4.369,2.185 C -4.719,2.418 -4.748,2.884 -4.486,3.321 C -4.194,3.787 -3.757,3.991 -3.437,4.078 L -3.729,4.806 C -4.34,4.573 -4.864,4.253 -5.33,3.496 C -6.088,2.214 -5.884,1.165 -5.155,0.728 C -4.427,0.292 -3.816,0.408 -3.204,0.728 C -3.204,0.758 -2.825,0.961 -2.592,1.078 C -2.097,1.369 -1.514,1.69 -1.106,1.456 C -0.641,1.165 -0.524,0.67 -0.816,0.204 C -1.223,-0.437 -1.66,-0.583 -2.126,-0.699 L -1.776,-1.486 C -1.164,-1.311 -0.524,-0.903 0,0" style="fill: rgb(255, 242, 0); fill-opacity: 1; fill-rule: evenodd; stroke: none;"/>
</g>
<g transform="matrix(0, 1.25, 1.25, 0, 110.637, 522.673)">
<path d="M 0,0 C 0.408,-1.981 1.865,-3.263 3.816,-2.826 C 4.894,-2.593 6.846,-1.631 6.205,1.34 C 6.059,2.185 5.71,2.621 5.302,3.058 L 4.661,2.505 C 4.894,2.33 5.243,2.01 5.389,1.311 C 5.681,-0.117 4.515,-0.99 3.496,-1.195 C 2.01,-1.515 0.962,-0.641 0.758,0.35 C 0.612,1.048 0.787,1.456 0.903,1.748 L 0.117,1.923 C -0.058,1.456 -0.203,0.874 0,0" style="fill: rgb(255, 242, 0); fill-opacity: 1; fill-rule: evenodd; stroke: none;"/>
</g>
<g transform="matrix(0, 1.25, 1.25, 0, 150.544, 535.2)">
<path d="M 0,0 C -0.35,-0.058 -1.894,-0.203 -2.68,0.379 C -3.438,0.932 -3.175,1.399 -3.059,1.66 C -3.03,1.807 -2.797,2.156 -2.33,2.214 C -2.098,2.243 -1.748,2.185 -1.485,1.981 C -0.99,1.632 -0.67,0.787 -0.67,0.787 C -0.67,0.787 1.427,1.865 3.496,4.108 L 4.894,4.108 C 1.923,1.02 0,0 0,0" style="fill: rgb(255, 242, 0); fill-opacity: 1; fill-rule: evenodd; stroke: none;"/>
</g>
<g transform="matrix(0, 1.25, 1.25, 0, 152.51, 534.653)">
<path d="M 0,0 C 0.525,0.292 1.806,1.078 3.641,3.03 C 3.962,3.35 4.194,4.166 3.699,4.603 C 3.496,4.778 3.204,4.895 2.884,4.865 C 2.505,4.865 2.068,4.632 1.893,4.399 C 1.544,4.02 -0.145,2.33 -1.457,1.137 C -1.223,1.107 -0.815,0.904 -0.815,0.904 C -0.583,0.729 -0.262,0.554 0,0" style="fill: rgb(255, 242, 0); fill-opacity: 1; fill-rule: evenodd; stroke: none;"/>
</g>
<g transform="matrix(0, 1.25, 1.25, 0, 80.305, 541.208)">
<path d="M 0,0 L -1.311,0 C -3.408,2.272 -5.476,3.321 -5.476,3.321 C -5.476,3.321 -5.797,2.505 -6.292,2.126 C -6.554,1.952 -6.904,1.865 -7.137,1.893 C -7.603,1.981 -7.836,2.33 -7.866,2.447 C -7.982,2.709 -8.244,3.204 -7.487,3.729 C -6.7,4.311 -5.186,4.166 -4.836,4.078 C -4.836,4.078 -2.971,3.03 0,0" style="fill: rgb(255, 242, 0); fill-opacity: 1; fill-rule: evenodd; stroke: none;"/>
</g>
<g transform="matrix(0, 1.25, 1.25, 0, 83.4375, 534.653)">
<path d="M 0,0 C 0.525,-0.292 1.806,-1.078 3.641,-3.03 C 3.962,-3.35 4.194,-4.136 3.699,-4.603 C 3.496,-4.778 3.204,-4.894 2.884,-4.865 C 2.505,-4.865 2.068,-4.631 1.893,-4.399 C 1.544,-4.02 -0.145,-2.33 -1.457,-1.136 C -1.223,-1.107 -0.815,-0.903 -0.815,-0.903 C -0.583,-0.728 -0.262,-0.525 0,0" style="fill: rgb(255, 242, 0); fill-opacity: 1; fill-rule: evenodd; stroke: none;"/>
</g>
<g transform="matrix(0, 1.25, 1.25, 0, 75.5725, 562.836)">
<path d="M 0,0 C -2.767,0 -5.01,2.243 -5.01,5.039 C -5.01,7.807 -2.767,10.05 0,10.05 C 2.797,10.05 5.04,7.807 5.04,5.039 C 5.04,2.243 2.797,0 0,0" style="fill: rgb(226, 14, 14); fill-opacity: 1; fill-rule: evenodd; stroke: none;"/>
</g>
<g transform="matrix(0, 1.25, 1.25, 0, 85.2213, 558.322)">
<path d="M 0,0 C 0.058,0.087 0.233,0.32 0.233,0.32 C 0.612,0.757 1.078,1.136 1.631,1.369 C 2.301,1.66 3.35,0.757 3.583,0.495 C 4.661,-0.67 4.661,-1.398 4.719,-1.807 C 4.777,-2.214 4.515,-2.476 4.194,-2.476 C 3.291,-2.447 1.718,-1.807 1.427,-1.602 C 1.223,-1.486 1.107,-1.282 1.107,-1.282 C 0.99,-0.845 0.815,-0.437 0.553,-0.233 C 0.32,0 0,0 0,0 z M -0.67,-4.195 C -0.816,-3.729 -0.932,-3.233 -0.932,-2.71 C -0.932,-1.923 -0.787,-1.195 -0.378,-0.554 C -0.262,-0.379 -0.146,-0.35 0.029,-0.35 C 0.641,-0.35 0.845,-1.282 0.845,-1.893 C 0.845,-2.505 0.583,-3.263 0.408,-3.816 C 0.262,-4.34 -0.058,-4.457 -0.204,-4.457 C -0.35,-4.457 -0.612,-4.37 -0.67,-4.195 z M 6.554,-6.176 C 5.942,-6.816 4.806,-7.254 3.612,-7.254 C 3.175,-7.254 2.738,-7.196 2.301,-7.079 C 2.301,-7.079 2.126,-6.962 2.272,-6.846 C 2.388,-6.788 2.505,-6.671 2.68,-6.584 C 2.826,-6.496 3.204,-6.001 3.496,-6.059 C 4.603,-6.234 6.088,-6.059 6.321,-6.03 C 6.583,-5.972 6.699,-6.059 6.554,-6.176 z M 2.738,-6.059 C 2.621,-6.293 2.068,-6.554 1.893,-6.642 C 1.777,-6.7 1.427,-6.7 1.282,-6.613 C 0.612,-6.234 0.029,-5.71 -0.292,-5.04 C -0.32,-4.953 -0.32,-4.836 -0.146,-4.836 C -0.03,-4.836 0.145,-4.778 0.262,-4.778 C 0.35,-4.778 0.583,-4.719 0.757,-4.865 C 0.932,-5.011 1.981,-5.623 2.593,-5.768 C 2.738,-5.797 2.884,-5.826 2.738,-6.059 z M 8.156,-2.622 C 8.156,-2.651 8.156,-2.68 8.156,-2.71 C 8.156,-3.554 7.865,-4.457 7.544,-5.011 C 7.224,-5.564 5.797,-5.768 5.068,-5.768 C 2.709,-5.768 1.282,-4.806 0.99,-4.661 C 0.728,-4.486 0.699,-4.136 0.757,-3.875 C 0.815,-3.641 0.873,-3.525 0.961,-3.233 C 1.02,-3.058 1.078,-2.738 1.136,-2.505 C 1.194,-2.272 1.253,-2.01 1.69,-2.156 C 2.155,-2.33 3.233,-2.826 4.515,-2.884 C 5.68,-2.942 6.846,-2.797 7.544,-2.535 C 8.011,-2.36 8.185,-2.36 8.156,-2.622 z M 7.982,-1.428 C 8.069,-1.69 7.894,-1.807 7.749,-1.923 C 7.224,-2.389 5.768,-2.505 5.593,-2.505 C 5.389,-2.505 5.185,-2.447 5.185,-2.302 C 5.156,-1.165 4.836,-0.379 4.224,0.378 C 3.612,1.106 2.913,1.428 2.796,1.486 C 2.651,1.573 2.68,1.718 2.884,1.748 C 3.029,1.776 3.321,1.835 3.612,1.835 C 5.68,1.835 7.37,0.436 7.982,-1.428" style="fill: rgb(255, 242, 0); fill-opacity: 1; fill-rule: evenodd; stroke: none;"/>
</g>
<g transform="matrix(0, 1.25, 1.25, 0, 160.485, 562.836)">
<path d="M 0,0 C -2.767,0 -5.01,-2.243 -5.01,-5.04 C -5.01,-7.807 -2.767,-10.05 0,-10.05 C 2.797,-10.05 5.04,-7.807 5.04,-5.04 C 5.04,-2.243 2.797,0 0,0" style="fill: rgb(226, 14, 14); fill-opacity: 1; fill-rule: evenodd; stroke: none;"/>
</g>
<g transform="matrix(0, 1.25, 1.25, 0, 151.128, 559.013)">
<path d="M 0,0 C 0.262,0.203 0.437,0.611 0.554,1.048 C 0.554,1.048 0.67,1.253 0.874,1.369 C 1.165,1.573 2.738,2.214 3.641,2.243 C 3.962,2.243 4.224,1.981 4.166,1.573 C 4.108,1.165 4.108,0.437 3.03,-0.728 C 2.797,-0.99 1.748,-1.893 1.078,-1.602 C 0.525,-1.369 0.059,-0.99 -0.32,-0.554 C -0.32,-0.554 -0.495,-0.32 -0.553,-0.233 C -0.553,-0.233 -0.233,-0.233 0,0 z M -0.758,4.224 C -0.611,4.224 -0.291,4.107 -0.145,3.583 C 0.029,3.029 0.292,2.272 0.292,1.66 C 0.292,1.048 0.087,0.116 -0.524,0.116 C -0.699,0.116 -0.816,0.145 -0.932,0.32 C -1.34,0.961 -1.486,1.689 -1.486,2.476 C -1.486,3 -1.369,3.496 -1.223,3.961 C -1.165,4.136 -0.903,4.224 -0.758,4.224 z M 5.768,5.797 C 5.535,5.826 4.05,6.001 2.942,5.826 C 2.651,5.767 2.272,6.262 2.127,6.35 C 1.952,6.437 1.835,6.554 1.719,6.612 C 1.573,6.729 1.748,6.845 1.748,6.845 C 2.185,6.962 2.622,7.02 3.058,7.02 C 4.253,7.02 5.389,6.584 6.001,5.942 C 6.146,5.826 6.03,5.739 5.768,5.797 z M 2.04,5.534 C 1.427,5.389 0.379,4.777 0.204,4.631 C 0.029,4.486 -0.203,4.544 -0.291,4.544 C -0.408,4.544 -0.583,4.602 -0.699,4.602 C -0.874,4.602 -0.874,4.719 -0.845,4.806 C -0.524,5.476 0.059,6.001 0.729,6.379 C 0.874,6.467 1.224,6.467 1.34,6.409 C 1.515,6.321 2.068,6.059 2.185,5.826 C 2.33,5.592 2.185,5.564 2.04,5.534 z M 6.991,2.301 C 6.293,2.563 5.127,2.709 3.962,2.651 C 2.68,2.593 1.602,2.068 1.137,1.923 C 0.699,1.776 0.641,2.039 0.583,2.272 C 0.525,2.505 0.467,2.826 0.408,3 C 0.32,3.291 0.262,3.408 0.204,3.641 C 0.146,3.903 0.175,4.253 0.437,4.427 C 0.729,4.573 2.156,5.534 4.515,5.534 C 5.243,5.534 6.671,5.331 6.991,4.777 C 7.312,4.224 7.603,3.321 7.603,2.476 C 7.603,2.446 7.603,2.418 7.603,2.388 C 7.632,2.126 7.458,2.126 6.991,2.301 z M 3.058,-2.068 C 2.768,-2.068 2.476,-2.01 2.33,-1.981 C 2.127,-1.952 2.098,-1.806 2.243,-1.719 C 2.36,-1.66 3.058,-1.34 3.671,-0.612 C 4.283,0.145 4.603,0.932 4.632,2.068 C 4.632,2.214 4.836,2.272 5.04,2.272 C 5.215,2.272 6.671,2.156 7.196,1.689 C 7.341,1.573 7.516,1.456 7.428,1.194 C 6.816,-0.67 5.127,-2.068 3.058,-2.068" style="fill: rgb(255, 242, 0); fill-opacity: 1; fill-rule: evenodd; stroke: none;"/>
</g>
<g transform="matrix(0, 1.25, 1.25, 0, 147.959, 562.801)">
<path d="M 0,0 C -1.369,0 -2.651,0.554 -3.554,1.486 C -4.457,2.389 -5.04,3.641 -5.04,5.04 C -5.04,6.438 -4.457,7.691 -3.554,8.594 C -2.651,9.526 -1.369,10.079 0,10.079 C 1.398,10.079 2.68,9.526 3.583,8.594 C 4.486,7.691 5.069,6.438 5.069,5.04 C 5.069,3.641 4.486,2.389 3.583,1.486 C 2.68,0.554 1.398,0 0,0 z M 0,0.059 C 1.398,0.059 2.651,0.612 3.554,1.515 C 4.457,2.418 5.011,3.67 5.011,5.04 C 5.011,6.409 4.457,7.661 3.554,8.564 C 2.651,9.467 1.398,10.021 0,10.021 C -1.369,10.021 -2.622,9.467 -3.525,8.564 C -4.428,7.661 -4.981,6.409 -4.981,5.04 C -4.981,3.67 -4.428,2.418 -3.525,1.515 C -2.622,0.612 -1.369,0.059 0,0.059" style="fill: rgb(255, 230, 0); fill-opacity: 1; fill-rule: evenodd; stroke: none;"/>
</g>
</g>
</g>
</svg>