<?xml version="1.0" encoding="UTF-8" standalone="no"?>
<!-- Created with Inkscape (http://www.inkscape.org/) -->
<svg xmlns:dc="http://purl.org/dc/elements/1.1/" xmlns:cc="http://creativecommons.org/ns#" xmlns:rdf="http://www.w3.org/1999/02/22-rdf-syntax-ns#" xmlns:svg="http://www.w3.org/2000/svg" xmlns="http://www.w3.org/2000/svg" xmlns:xlink="http://www.w3.org/1999/xlink" xmlns:sodipodi="http://sodipodi.sourceforge.net/DTD/sodipodi-0.dtd" xmlns:inkscape="http://www.inkscape.org/namespaces/inkscape" width="371.8183" height="251.3788" id="svg2" sodipodi:version="0.32" inkscape:version="0.46" sodipodi:docname="caderno.svg" inkscape:output_extension="org.inkscape.output.svg.inkscape" version="1.0" inkscape:export-filename="C:\Users\ASantos\Desktop\caderno.png" inkscape:export-xdpi="200" inkscape:export-ydpi="200">
  <defs id="defs4">
    <linearGradient inkscape:collect="always" id="linearGradient4160">
      <stop style="stop-color: rgb(255, 255, 255); stop-opacity: 1;" offset="0" id="stop4162"/>
      <stop style="stop-color: rgb(255, 255, 255); stop-opacity: 0;" offset="1" id="stop4164"/>
    </linearGradient>
    <linearGradient id="linearGradient4034">
      <stop style="stop-color: rgb(39, 37, 39); stop-opacity: 1;" offset="0" id="stop4036"/>
      <stop style="stop-color: rgb(100, 100, 88); stop-opacity: 1;" offset="1" id="stop4038"/>
    </linearGradient>
    <linearGradient inkscape:collect="always" id="linearGradient4003">
      <stop style="stop-color: rgb(255, 255, 255); stop-opacity: 1;" offset="0" id="stop4005"/>
      <stop style="stop-color: rgb(255, 255, 255); stop-opacity: 0;" offset="1" id="stop4007"/>
    </linearGradient>
    <linearGradient inkscape:collect="always" id="linearGradient3931">
      <stop style="stop-color: rgb(255, 255, 255); stop-opacity: 1;" offset="0" id="stop3933"/>
      <stop style="stop-color: rgb(255, 255, 255); stop-opacity: 0;" offset="1" id="stop3935"/>
    </linearGradient>
    <linearGradient inkscape:collect="always" id="linearGradient3909">
      <stop style="stop-color: rgb(255, 255, 255); stop-opacity: 1;" offset="0" id="stop3911"/>
      <stop style="stop-color: rgb(255, 255, 255); stop-opacity: 0;" offset="1" id="stop3913"/>
    </linearGradient>
    <linearGradient id="linearGradient3899">
      <stop style="stop-color: rgb(53, 53, 53); stop-opacity: 1;" offset="0" id="stop3901"/>
      <stop id="stop3907" offset="0.40277779" style="stop-color: rgb(227, 227, 227); stop-opacity: 1;"/>
      <stop style="stop-color: rgb(0, 0, 0); stop-opacity: 1;" offset="1" id="stop3903"/>
    </linearGradient>
    <linearGradient id="linearGradient3821">
      <stop style="stop-color: rgb(88, 82, 69); stop-opacity: 1;" offset="0" id="stop3823"/>
      <stop style="stop-color: rgb(65, 65, 65); stop-opacity: 1;" offset="1" id="stop3825"/>
    </linearGradient>
    <linearGradient id="linearGradient3813">
      <stop style="stop-color: rgb(61, 55, 39); stop-opacity: 1;" offset="0" id="stop3815"/>
      <stop style="stop-color: rgb(0, 0, 0); stop-opacity: 1;" offset="1" id="stop3817"/>
    </linearGradient>
    <linearGradient id="linearGradient3458">
      <stop style="stop-color: rgb(127, 127, 127); stop-opacity: 1;" offset="0" id="stop3460"/>
      <stop style="stop-color: rgb(51, 51, 51); stop-opacity: 1;" offset="1" id="stop3462"/>
    </linearGradient>
    <linearGradient inkscape:collect="always" id="linearGradient3450">
      <stop style="stop-color: rgb(0, 0, 0); stop-opacity: 1;" offset="0" id="stop3452"/>
      <stop style="stop-color: rgb(0, 0, 0); stop-opacity: 0;" offset="1" id="stop3454"/>
    </linearGradient>
    <linearGradient id="linearGradient2434">
      <stop style="stop-color: rgb(26, 26, 26); stop-opacity: 1;" offset="0" id="stop2436"/>
      <stop style="stop-color: rgb(91, 91, 91); stop-opacity: 1;" offset="1" id="stop2438"/>
    </linearGradient>
    <inkscape:perspective sodipodi:type="inkscape:persp3d" inkscape:vp_x="0 : 526.18109 : 1" inkscape:vp_y="0 : 1000 : 0" inkscape:vp_z="744.09448 : 526.18109 : 1" inkscape:persp3d-origin="372.04724 : 350.78739 : 1" id="perspective10"/>
    <inkscape:perspective id="perspective2390" inkscape:persp3d-origin="372.04724 : 350.78739 : 1" inkscape:vp_z="744.09448 : 526.18109 : 1" inkscape:vp_y="0 : 1000 : 0" inkscape:vp_x="0 : 526.18109 : 1" sodipodi:type="inkscape:persp3d"/>
    <inkscape:perspective id="perspective2403" inkscape:persp3d-origin="372.04724 : 350.78739 : 1" inkscape:vp_z="744.09448 : 526.18109 : 1" inkscape:vp_y="0 : 1000 : 0" inkscape:vp_x="0 : 526.18109 : 1" sodipodi:type="inkscape:persp3d"/>
    <filter inkscape:collect="always" id="filter3306">
      <feGaussianBlur inkscape:collect="always" stdDeviation="0.45432864" id="feGaussianBlur3308"/>
    </filter>
    <filter inkscape:collect="always" id="filter3338">
      <feGaussianBlur inkscape:collect="always" stdDeviation="1.164769" id="feGaussianBlur3340"/>
    </filter>
    <filter inkscape:collect="always" id="filter3368">
      <feGaussianBlur inkscape:collect="always" stdDeviation="0.45521695" id="feGaussianBlur3370"/>
    </filter>
    <filter inkscape:collect="always" id="filter3386">
      <feGaussianBlur inkscape:collect="always" stdDeviation="0.29326565" id="feGaussianBlur3388"/>
    </filter>
    <filter inkscape:collect="always" id="filter3446">
      <feGaussianBlur inkscape:collect="always" stdDeviation="1.2920772" id="feGaussianBlur3448"/>
    </filter>
    <filter inkscape:collect="always" id="filter3620">
      <feGaussianBlur inkscape:collect="always" stdDeviation="0.44745231" id="feGaussianBlur3622"/>
    </filter>
    <filter inkscape:collect="always" id="filter3624">
      <feGaussianBlur inkscape:collect="always" stdDeviation="0.44745231" id="feGaussianBlur3626"/>
    </filter>
    <filter inkscape:collect="always" id="filter3628">
      <feGaussianBlur inkscape:collect="always" stdDeviation="0.44745231" id="feGaussianBlur3630"/>
    </filter>
    <filter inkscape:collect="always" id="filter3632">
      <feGaussianBlur inkscape:collect="always" stdDeviation="0.44745231" id="feGaussianBlur3634"/>
    </filter>
    <linearGradient inkscape:collect="always" xlink:href="#linearGradient2434" id="linearGradient3657" gradientUnits="userSpaceOnUse" x1="251.48837" y1="493.24551" x2="270.20166" y2="399.22269"/>
    <linearGradient inkscape:collect="always" xlink:href="#linearGradient3450" id="linearGradient3659" gradientUnits="userSpaceOnUse" x1="309.17517" y1="477.14322" x2="230.1682" y2="548.49133"/>
    <linearGradient inkscape:collect="always" xlink:href="#linearGradient3458" id="linearGradient3661" gradientUnits="userSpaceOnUse" x1="314.0123" y1="426.75613" x2="239.03633" y2="474.72464"/>
    <filter inkscape:collect="always" id="filter3689">
      <feGaussianBlur inkscape:collect="always" stdDeviation="0.70704578" id="feGaussianBlur3691"/>
    </filter>
    <filter inkscape:collect="always" id="filter3789">
      <feGaussianBlur inkscape:collect="always" stdDeviation="0.53827809" id="feGaussianBlur3791"/>
    </filter>
    <filter inkscape:collect="always" id="filter3809">
      <feGaussianBlur inkscape:collect="always" stdDeviation="2.8759927" id="feGaussianBlur3811"/>
    </filter>
    <filter inkscape:collect="always" id="filter3893">
      <feGaussianBlur inkscape:collect="always" stdDeviation="0.054193902" id="feGaussianBlur3895"/>
    </filter>
    <filter inkscape:collect="always" id="filter3969">
      <feGaussianBlur inkscape:collect="always" stdDeviation="0.17283008" id="feGaussianBlur3971"/>
    </filter>
    <filter inkscape:collect="always" id="filter3999">
      <feGaussianBlur inkscape:collect="always" stdDeviation="0.29272706" id="feGaussianBlur4001"/>
    </filter>
    <linearGradient inkscape:collect="always" xlink:href="#linearGradient3821" id="linearGradient4022" gradientUnits="userSpaceOnUse" x1="586.58765" y1="500.17554" x2="651.34247" y2="441.74442"/>
    <linearGradient inkscape:collect="always" xlink:href="#linearGradient3909" id="linearGradient4024" gradientUnits="userSpaceOnUse" gradientTransform="translate(-0.08668, 0.04334)" x1="555.65594" y1="539.11346" x2="560.53394" y2="534.57654"/>
    <linearGradient inkscape:collect="always" xlink:href="#linearGradient3909" id="linearGradient4026" gradientUnits="userSpaceOnUse" gradientTransform="matrix(0.0651263, -0.997877, -0.997877, -0.0651263, 1058.26, 1129.75)" x1="555.65594" y1="539.11346" x2="560.53394" y2="534.57654"/>
    <linearGradient inkscape:collect="always" xlink:href="#linearGradient3931" id="linearGradient4028" gradientUnits="userSpaceOnUse" x1="610.29169" y1="463.94849" x2="618.2655" y2="473.02185"/>
    <linearGradient inkscape:collect="always" xlink:href="#linearGradient4003" id="linearGradient4030" gradientUnits="userSpaceOnUse" x1="632.39984" y1="487.15973" x2="626.26923" y2="478.13275"/>
    <linearGradient inkscape:collect="always" xlink:href="#linearGradient4034" id="linearGradient4040" x1="610.98724" y1="434.11682" x2="597.19684" y2="452.26208" gradientUnits="userSpaceOnUse" gradientTransform="translate(0.725811)"/>
    <filter inkscape:collect="always" id="filter4090">
      <feGaussianBlur inkscape:collect="always" stdDeviation="0.42715268" id="feGaussianBlur4092"/>
    </filter>
    <filter inkscape:collect="always" id="filter4156">
      <feGaussianBlur inkscape:collect="always" stdDeviation="0.32667698" id="feGaussianBlur4158"/>
    </filter>
    <linearGradient inkscape:collect="always" xlink:href="#linearGradient4160" id="linearGradient4166" x1="617.008" y1="428.54898" x2="590.49591" y2="454.35214" gradientUnits="userSpaceOnUse"/>
    <linearGradient inkscape:collect="always" xlink:href="#linearGradient3821" id="linearGradient4183" gradientUnits="userSpaceOnUse" x1="586.58765" y1="500.17554" x2="651.34247" y2="441.74442"/>
    <linearGradient inkscape:collect="always" xlink:href="#linearGradient3909" id="linearGradient4185" gradientUnits="userSpaceOnUse" gradientTransform="translate(-0.08668, 0.04334)" x1="555.65594" y1="539.11346" x2="560.53394" y2="534.57654"/>
    <linearGradient inkscape:collect="always" xlink:href="#linearGradient3909" id="linearGradient4187" gradientUnits="userSpaceOnUse" gradientTransform="matrix(0.0651263, -0.997877, -0.997877, -0.0651263, 1058.26, 1129.75)" x1="555.65594" y1="539.11346" x2="560.53394" y2="534.57654"/>
    <linearGradient inkscape:collect="always" xlink:href="#linearGradient3931" id="linearGradient4189" gradientUnits="userSpaceOnUse" x1="610.29169" y1="463.94849" x2="618.2655" y2="473.02185"/>
    <linearGradient inkscape:collect="always" xlink:href="#linearGradient4003" id="linearGradient4191" gradientUnits="userSpaceOnUse" x1="632.39984" y1="487.15973" x2="626.26923" y2="478.13275"/>
    <linearGradient inkscape:collect="always" xlink:href="#linearGradient4034" id="linearGradient4193" gradientUnits="userSpaceOnUse" gradientTransform="translate(0.725811)" x1="610.98724" y1="434.11682" x2="597.19684" y2="452.26208"/>
    <linearGradient inkscape:collect="always" xlink:href="#linearGradient4160" id="linearGradient4195" gradientUnits="userSpaceOnUse" x1="617.008" y1="428.54898" x2="590.49591" y2="454.35214"/>
    <linearGradient inkscape:collect="always" xlink:href="#linearGradient3821" id="linearGradient4225" gradientUnits="userSpaceOnUse" x1="586.58765" y1="500.17554" x2="651.34247" y2="441.74442"/>
    <linearGradient inkscape:collect="always" xlink:href="#linearGradient3909" id="linearGradient4227" gradientUnits="userSpaceOnUse" gradientTransform="translate(-0.08668, 0.04334)" x1="555.65594" y1="539.11346" x2="560.53394" y2="534.57654"/>
    <linearGradient inkscape:collect="always" xlink:href="#linearGradient3909" id="linearGradient4229" gradientUnits="userSpaceOnUse" gradientTransform="matrix(0.0651263, -0.997877, -0.997877, -0.0651263, 1058.26, 1129.75)" x1="555.65594" y1="539.11346" x2="560.53394" y2="534.57654"/>
    <linearGradient inkscape:collect="always" xlink:href="#linearGradient3931" id="linearGradient4231" gradientUnits="userSpaceOnUse" x1="610.29169" y1="463.94849" x2="618.2655" y2="473.02185"/>
    <linearGradient inkscape:collect="always" xlink:href="#linearGradient4003" id="linearGradient4233" gradientUnits="userSpaceOnUse" x1="632.39984" y1="487.15973" x2="626.26923" y2="478.13275"/>
    <linearGradient inkscape:collect="always" xlink:href="#linearGradient4034" id="linearGradient4235" gradientUnits="userSpaceOnUse" gradientTransform="translate(0.725811)" x1="610.98724" y1="434.11682" x2="597.19684" y2="452.26208"/>
    <linearGradient inkscape:collect="always" xlink:href="#linearGradient4160" id="linearGradient4237" gradientUnits="userSpaceOnUse" x1="617.008" y1="428.54898" x2="590.49591" y2="454.35214"/>
    <linearGradient inkscape:collect="always" xlink:href="#linearGradient4034" id="linearGradient4241" gradientUnits="userSpaceOnUse" gradientTransform="matrix(0.62051, -0.142062, 0.132651, 0.579404, -128.896, 187.563)" x1="610.98724" y1="434.11682" x2="597.19684" y2="452.26208"/>
    <linearGradient inkscape:collect="always" xlink:href="#linearGradient3821" id="linearGradient4269" gradientUnits="userSpaceOnUse" x1="586.58765" y1="500.17554" x2="651.34247" y2="441.74442"/>
    <linearGradient inkscape:collect="always" xlink:href="#linearGradient3909" id="linearGradient4271" gradientUnits="userSpaceOnUse" gradientTransform="translate(-0.08668, 0.04334)" x1="555.65594" y1="539.11346" x2="560.53394" y2="534.57654"/>
    <linearGradient inkscape:collect="always" xlink:href="#linearGradient3909" id="linearGradient4273" gradientUnits="userSpaceOnUse" gradientTransform="matrix(0.0651263, -0.997877, -0.997877, -0.0651263, 1058.26, 1129.75)" x1="555.65594" y1="539.11346" x2="560.53394" y2="534.57654"/>
    <linearGradient inkscape:collect="always" xlink:href="#linearGradient3931" id="linearGradient4275" gradientUnits="userSpaceOnUse" x1="610.29169" y1="463.94849" x2="618.2655" y2="473.02185"/>
    <linearGradient inkscape:collect="always" xlink:href="#linearGradient4003" id="linearGradient4277" gradientUnits="userSpaceOnUse" x1="632.39984" y1="487.15973" x2="626.26923" y2="478.13275"/>
    <linearGradient inkscape:collect="always" xlink:href="#linearGradient4034" id="linearGradient4279" gradientUnits="userSpaceOnUse" gradientTransform="matrix(0.62051, -0.142062, 0.132651, 0.579404, -128.896, 187.563)" x1="610.98724" y1="434.11682" x2="597.19684" y2="452.26208"/>
    <linearGradient inkscape:collect="always" xlink:href="#linearGradient4160" id="linearGradient4281" gradientUnits="userSpaceOnUse" x1="617.008" y1="428.54898" x2="590.49591" y2="454.35214"/>
    <linearGradient inkscape:collect="always" xlink:href="#linearGradient4034" id="linearGradient4285" gradientUnits="userSpaceOnUse" gradientTransform="matrix(0.62051, -0.142062, 0.132651, 0.579404, -128.896, 187.563)" x1="610.98724" y1="434.11682" x2="597.19684" y2="452.26208"/>
    <linearGradient inkscape:collect="always" xlink:href="#linearGradient3821" id="linearGradient4298" gradientUnits="userSpaceOnUse" x1="586.58765" y1="500.17554" x2="651.34247" y2="441.74442"/>
    <linearGradient inkscape:collect="always" xlink:href="#linearGradient3909" id="linearGradient4300" gradientUnits="userSpaceOnUse" gradientTransform="translate(-0.08668, 0.04334)" x1="555.65594" y1="539.11346" x2="560.53394" y2="534.57654"/>
    <linearGradient inkscape:collect="always" xlink:href="#linearGradient3909" id="linearGradient4302" gradientUnits="userSpaceOnUse" gradientTransform="matrix(0.0651263, -0.997877, -0.997877, -0.0651263, 1058.26, 1129.75)" x1="555.65594" y1="539.11346" x2="560.53394" y2="534.57654"/>
    <linearGradient inkscape:collect="always" xlink:href="#linearGradient3931" id="linearGradient4304" gradientUnits="userSpaceOnUse" x1="610.29169" y1="463.94849" x2="618.2655" y2="473.02185"/>
    <linearGradient inkscape:collect="always" xlink:href="#linearGradient4003" id="linearGradient4306" gradientUnits="userSpaceOnUse" x1="632.39984" y1="487.15973" x2="626.26923" y2="478.13275"/>
    <linearGradient inkscape:collect="always" xlink:href="#linearGradient3909" id="linearGradient4311" gradientUnits="userSpaceOnUse" gradientTransform="matrix(-0.0919579, -0.587426, -0.627832, 0.104026, 645.39, 693.954)" x1="555.65594" y1="539.11346" x2="560.53394" y2="534.57654"/>
    <linearGradient inkscape:collect="always" xlink:href="#linearGradient3909" id="linearGradient4314" gradientUnits="userSpaceOnUse" gradientTransform="matrix(0.62051, -0.142062, 0.132651, 0.579404, -161.183, 189.75)" x1="555.65594" y1="539.11346" x2="560.53394" y2="534.57654"/>
    <linearGradient inkscape:collect="always" xlink:href="#linearGradient3821" id="linearGradient4321" gradientUnits="userSpaceOnUse" x1="586.58765" y1="500.17554" x2="651.34247" y2="441.74442" gradientTransform="matrix(0.62051, -0.142062, 0.132651, 0.579404, -161.135, 189.713)"/>
    <linearGradient inkscape:collect="always" xlink:href="#linearGradient3821" id="linearGradient4324" gradientUnits="userSpaceOnUse" gradientTransform="matrix(0.62051, -0.142062, 0.132651, 0.579404, -161.135, 189.713)" x1="586.58765" y1="500.17554" x2="651.34247" y2="441.74442"/>
    <linearGradient inkscape:collect="always" xlink:href="#linearGradient3821" id="linearGradient4327" gradientUnits="userSpaceOnUse" gradientTransform="matrix(0.62051, -0.142062, 0.132651, 0.579404, -161.135, 189.713)" x1="586.58765" y1="500.17554" x2="651.34247" y2="441.74442"/>
    <filter inkscape:collect="always" id="filter4350">
      <feGaussianBlur inkscape:collect="always" stdDeviation="0.74932791" id="feGaussianBlur4352"/>
    </filter>
    <linearGradient inkscape:collect="always" xlink:href="#linearGradient2434" id="linearGradient4399" gradientUnits="userSpaceOnUse" x1="251.48837" y1="493.24551" x2="270.20166" y2="399.22269"/>
    <linearGradient inkscape:collect="always" xlink:href="#linearGradient3450" id="linearGradient4401" gradientUnits="userSpaceOnUse" x1="309.17517" y1="477.14322" x2="230.1682" y2="548.49133"/>
    <linearGradient inkscape:collect="always" xlink:href="#linearGradient3458" id="linearGradient4403" gradientUnits="userSpaceOnUse" x1="314.0123" y1="426.75613" x2="239.03633" y2="474.72464"/>
    <linearGradient inkscape:collect="always" xlink:href="#linearGradient3458" id="linearGradient4411" gradientUnits="userSpaceOnUse" x1="314.0123" y1="426.75613" x2="239.03633" y2="474.72464" gradientTransform="translate(91.7434, -119.436)"/>
    <linearGradient inkscape:collect="always" xlink:href="#linearGradient3450" id="linearGradient4418" gradientUnits="userSpaceOnUse" x1="309.17517" y1="477.14322" x2="230.1682" y2="548.49133" gradientTransform="translate(91.7434, -119.436)"/>
    <linearGradient inkscape:collect="always" xlink:href="#linearGradient2434" id="linearGradient4422" gradientUnits="userSpaceOnUse" x1="251.48837" y1="493.24551" x2="270.20166" y2="399.22269" gradientTransform="translate(91.7434, -119.436)"/>
    <linearGradient inkscape:collect="always" xlink:href="#linearGradient2434" id="linearGradient4429" gradientUnits="userSpaceOnUse" gradientTransform="translate(91.7434, -119.436)" x1="251.48837" y1="493.24551" x2="270.20166" y2="399.22269"/>
    <linearGradient inkscape:collect="always" xlink:href="#linearGradient2434" id="linearGradient4432" gradientUnits="userSpaceOnUse" gradientTransform="translate(91.7434, -119.436)" x1="251.48837" y1="493.24551" x2="270.20166" y2="399.22269"/>
    <filter inkscape:collect="always" id="filter4447">
      <feGaussianBlur inkscape:collect="always" stdDeviation="2.1990765" id="feGaussianBlur4449"/>
    </filter>
    <linearGradient inkscape:collect="always" xlink:href="#linearGradient2434" id="linearGradient4484" gradientUnits="userSpaceOnUse" x1="251.48837" y1="493.24551" x2="270.20166" y2="399.22269"/>
    <linearGradient inkscape:collect="always" xlink:href="#linearGradient3450" id="linearGradient4486" gradientUnits="userSpaceOnUse" x1="309.17517" y1="477.14322" x2="230.1682" y2="548.49133"/>
    <linearGradient inkscape:collect="always" xlink:href="#linearGradient3458" id="linearGradient4488" gradientUnits="userSpaceOnUse" x1="314.0123" y1="426.75613" x2="239.03633" y2="474.72464"/>
    <linearGradient inkscape:collect="always" xlink:href="#linearGradient3821" id="linearGradient4490" gradientUnits="userSpaceOnUse" x1="586.58765" y1="500.17554" x2="651.34247" y2="441.74442"/>
    <linearGradient inkscape:collect="always" xlink:href="#linearGradient3909" id="linearGradient4492" gradientUnits="userSpaceOnUse" gradientTransform="translate(-0.08668, 0.04334)" x1="555.65594" y1="539.11346" x2="560.53394" y2="534.57654"/>
    <linearGradient inkscape:collect="always" xlink:href="#linearGradient3909" id="linearGradient4494" gradientUnits="userSpaceOnUse" gradientTransform="matrix(0.0651263, -0.997877, -0.997877, -0.0651263, 1058.26, 1129.75)" x1="555.65594" y1="539.11346" x2="560.53394" y2="534.57654"/>
    <linearGradient inkscape:collect="always" xlink:href="#linearGradient3931" id="linearGradient4496" gradientUnits="userSpaceOnUse" x1="610.29169" y1="463.94849" x2="618.2655" y2="473.02185"/>
    <linearGradient inkscape:collect="always" xlink:href="#linearGradient4003" id="linearGradient4498" gradientUnits="userSpaceOnUse" x1="632.39984" y1="487.15973" x2="626.26923" y2="478.13275"/>
    <linearGradient inkscape:collect="always" xlink:href="#linearGradient4034" id="linearGradient4500" gradientUnits="userSpaceOnUse" gradientTransform="translate(0.725811)" x1="610.98724" y1="434.11682" x2="597.19684" y2="452.26208"/>
    <linearGradient inkscape:collect="always" xlink:href="#linearGradient4160" id="linearGradient4502" gradientUnits="userSpaceOnUse" x1="617.008" y1="428.54898" x2="590.49591" y2="454.35214"/>
    <linearGradient inkscape:collect="always" xlink:href="#linearGradient2434" id="linearGradient4538" gradientUnits="userSpaceOnUse" x1="251.48837" y1="493.24551" x2="270.20166" y2="399.22269"/>
    <linearGradient inkscape:collect="always" xlink:href="#linearGradient3450" id="linearGradient4540" gradientUnits="userSpaceOnUse" x1="309.17517" y1="477.14322" x2="230.1682" y2="548.49133"/>
    <linearGradient inkscape:collect="always" xlink:href="#linearGradient3458" id="linearGradient4542" gradientUnits="userSpaceOnUse" x1="314.0123" y1="426.75613" x2="239.03633" y2="474.72464"/>
    <linearGradient inkscape:collect="always" xlink:href="#linearGradient3821" id="linearGradient4544" gradientUnits="userSpaceOnUse" x1="586.58765" y1="500.17554" x2="651.34247" y2="441.74442"/>
    <linearGradient inkscape:collect="always" xlink:href="#linearGradient3909" id="linearGradient4546" gradientUnits="userSpaceOnUse" gradientTransform="translate(-0.08668, 0.04334)" x1="555.65594" y1="539.11346" x2="560.53394" y2="534.57654"/>
    <linearGradient inkscape:collect="always" xlink:href="#linearGradient3909" id="linearGradient4548" gradientUnits="userSpaceOnUse" gradientTransform="matrix(0.0651263, -0.997877, -0.997877, -0.0651263, 1058.26, 1129.75)" x1="555.65594" y1="539.11346" x2="560.53394" y2="534.57654"/>
    <linearGradient inkscape:collect="always" xlink:href="#linearGradient3931" id="linearGradient4550" gradientUnits="userSpaceOnUse" x1="610.29169" y1="463.94849" x2="618.2655" y2="473.02185"/>
    <linearGradient inkscape:collect="always" xlink:href="#linearGradient4003" id="linearGradient4552" gradientUnits="userSpaceOnUse" x1="632.39984" y1="487.15973" x2="626.26923" y2="478.13275"/>
    <linearGradient inkscape:collect="always" xlink:href="#linearGradient4034" id="linearGradient4554" gradientUnits="userSpaceOnUse" gradientTransform="translate(0.725811)" x1="610.98724" y1="434.11682" x2="597.19684" y2="452.26208"/>
    <linearGradient inkscape:collect="always" xlink:href="#linearGradient4160" id="linearGradient4556" gradientUnits="userSpaceOnUse" x1="617.008" y1="428.54898" x2="590.49591" y2="454.35214"/>
  </defs>
  <sodipodi:namedview id="base" pagecolor="#ffffff" bordercolor="#666666" borderopacity="1.0" inkscape:pageopacity="0.0" inkscape:pageshadow="2" inkscape:zoom="0.64479534" inkscape:cx="244.62139" inkscape:cy="298.71334" inkscape:document-units="px" inkscape:current-layer="layer2" showgrid="false" inkscape:window-width="1440" inkscape:window-height="850" inkscape:window-x="-8" inkscape:window-y="-8" showguides="true" inkscape:guide-bbox="true"/>
  <metadata id="metadata7">
    <rdf:RDF>
      <cc:Work rdf:about="">
        <dc:format>image/svg+xml</dc:format>
        <dc:type rdf:resource="http://purl.org/dc/dcmitype/StillImage"/>
      </cc:Work>
    </rdf:RDF>
  </metadata>
  <g inkscape:groupmode="layer" id="layer2" inkscape:label="vetor" style="opacity: 1;" transform="translate(-136.768, -262.762)">
    <g id="g4504">
      <g transform="matrix(1.5566, -0.130626, 0.130626, 1.5566, 72.5752, -312.297)" id="g4451">
        <path style="opacity: 0.933775; fill: rgb(0, 0, 0); fill-opacity: 1; fill-rule: evenodd; stroke: none; stroke-width: 1px; stroke-linecap: butt; stroke-linejoin: miter; stroke-opacity: 1; filter: url(&quot;#filter4447&quot;);" d="M 144.84869,392.55056 L 6.5674443,447.05056 C 6.5674343,447.05055 3.479964,450.11941 4.161194,454.20681 C 4.8424343,458.29421 4.5285243,460.03956 8.0986943,463.70681 C 11.757434,467.46502 11.442444,466.86306 11.442444,466.86306 L 77.567444,519.98806 C 77.739974,521.05238 78.003444,521.88944 78.442444,522.33181 C 78.995174,522.98061 80.423824,524.371 82.067444,525.73806 C 84.574204,528.37779 88.500104,532.01577 90.317444,531.08181 C 89.901934,530.82502 89.623664,530.34187 89.442444,529.51931 L 102.94244,540.39431 C 102.94243,540.39431 105.43201,542.51755 110.44244,543.76931 C 112.53246,544.29145 116.34198,544.02427 119.75494,541.86306 C 121.8301,540.54901 235.16119,447.05056 235.16119,447.05056 C 237.26145,445.87582 237.89112,442.86269 235.75494,442.17556 L 233.53619,441.48806 L 233.31744,433.70681 L 157.91119,493.92556 L 122.50494,522.14431 C 121.69616,522.63227 117.38773,525.1567 114.50494,525.30056 C 111.97386,525.42685 107.93338,524.32735 101.47369,519.39431 C 101.4356,519.36522 99.140122,517.64463 98.973692,517.51931 L 99.317442,517.20681 C 101.24846,518.65024 105.69244,521.98806 105.69244,521.98806 C 105.69244,521.98807 110.09878,524.70994 113.50494,525.05056 C 116.91111,525.39118 122.36123,521.97866 123.72369,520.95681 C 125.08617,519.93497 235.09869,431.73806 235.09869,431.73806 C 237.80025,429.59331 237.94299,427.9995 234.78619,425.92556 C 234.31221,425.73597 228.99974,423.56624 221.37994,420.48806 C 221.69888,420.35352 221.93061,420.26931 222.03619,420.26931 C 222.56662,420.26931 222.01734,420.0211 221.03619,419.67556 C 221.32135,419.55395 221.53716,419.45681 221.62994,419.45681 C 223.50207,419.4568 211.78619,415.23806 211.78619,415.23806 C 211.78619,415.23806 210.44976,416.0397 210.37994,416.08181 C 189.88822,407.94796 161.45455,397.0608 144.84869,392.55056 z M 29.817444,465.64431 C 44.338894,476.30315 61.926274,489.35926 77.411194,500.89431 C 77.398124,501.03604 77.384554,501.18455 77.379944,501.33181 C 58.856664,487.43385 45.904134,477.70989 29.817444,465.64431 z" id="path4373" transform="matrix(0.967065, 0, 0, 0.978277, 3.97205, 8.17238)"/>
        <g id="g3642" transform="translate(-125.391, -9.77246)">
          <path sodipodi:nodetypes="ccszccssccccccscssccc" id="path2430" d="M 270.7898,391.90756 L 132.49966,446.40614 C 132.49966,446.40614 129.43412,449.47168 130.11535,453.55908 C 130.79658,457.64647 130.47673,459.39966 134.0469,463.06691 C 137.70563,466.82513 137.37626,466.2054 137.37626,466.2054 L 228.89402,539.73495 C 228.89402,539.73495 231.37714,541.88595 236.38757,543.13771 C 238.47758,543.65986 242.28366,543.36763 245.69662,541.20642 C 247.77177,539.89236 361.08591,446.39607 361.08591,446.39607 C 363.18619,445.22134 363.83605,442.2187 361.69987,441.53157 L 356.62506,439.93443 L 243.54051,530.53832 L 232.98141,530.53832 L 134.20274,455.94339 C 134.20274,455.94339 131.47782,448.79045 133.52151,449.13107 C 135.56521,449.47168 231.61895,521.34168 231.61895,521.34168 C 231.61895,521.34168 236.04696,524.06661 239.45312,524.40723 C 242.85928,524.74784 248.30914,521.34168 249.6716,520.31983 C 251.03407,519.29798 361.05307,431.07841 361.05307,431.07841 C 363.75462,428.93367 363.86925,427.36188 360.71245,425.28794 C 359.00937,424.60671 298.3797,399.40112 270.7898,391.90756 z" style="fill: url(&quot;#linearGradient4538&quot;) rgb(0, 0, 0); fill-opacity: 1; fill-rule: evenodd; stroke: rgb(51, 51, 51); stroke-width: 1px; stroke-linecap: butt; stroke-linejoin: miter; stroke-opacity: 1;"/>
          <path sodipodi:nodetypes="ccccsscccsscc" id="path2432" d="M 131.81848,453.27106 C 131.81848,453.27106 131.94075,456.42979 135.23927,461.92733 C 136.85337,464.6175 159.17217,481.92807 181.91135,499.63719 C 198.57454,511.92201 214.10175,525.74732 231.0062,537.70636 C 234.37742,539.84775 236.42633,539.99702 239.29826,540.08049 C 243.22421,540.19459 246.56428,536.69375 249.03817,534.76961 C 250.12304,533.92582 359.53854,443.23572 359.53854,443.23572 L 359.26367,433.06529 L 248.76329,521.30066 C 248.76329,521.30066 243.63553,524.48443 240.45752,524.64302 C 237.92643,524.76932 233.86295,523.68369 227.40326,518.75065 C 226.00443,517.68241 135.59708,449.87636 135.59708,449.87636 C 133.66268,447.8445 131.60175,448.21684 131.81848,453.27106 z" style="fill: rgb(245, 234, 197); fill-opacity: 1; fill-rule: evenodd; stroke: none; stroke-width: 1px; stroke-linecap: butt; stroke-linejoin: miter; stroke-opacity: 1;"/>
          <path sodipodi:nodetypes="ccccc" id="path2446" d="M 358.91429,433.4543 L 246.44147,523.10604 L 245.5549,537.51846 L 358.74749,442.96889 L 358.91429,433.4543 z" style="opacity: 0.528986; fill: url(&quot;#linearGradient4540&quot;) rgb(0, 0, 0); fill-opacity: 1; fill-rule: evenodd; stroke: none; stroke-width: 1px; stroke-linecap: butt; stroke-linejoin: miter; stroke-opacity: 1; filter: url(&quot;#filter3338&quot;);"/>
          <path id="path2444" d="M 233.68793,526.10792 L 233.23151,537.51846 C 233.23151,537.51846 237.3393,541.16983 241.4471,538.88773 C 245.5549,536.60562 245.09847,534.77993 245.09847,534.77993 L 245.09847,524.73865 C 245.09847,524.73865 240.99068,527.02076 239.16499,527.02076 C 237.3393,527.02076 232.77509,524.73865 233.68793,526.10792 z" style="opacity: 0.15942; fill: rgb(0, 0, 0); fill-rule: evenodd; stroke: none; stroke-width: 1px; stroke-linecap: butt; stroke-linejoin: miter; stroke-opacity: 1; filter: url(&quot;#filter3306&quot;);"/>
          <path sodipodi:nodetypes="cssccsssc" id="path3342" d="M 135.94896,450.75301 C 135.94896,450.75301 134.72261,449.87705 134.37223,451.97936 C 134.02185,454.08166 134.89781,458.46145 138.92722,463.19164 C 139.81452,464.23324 196.0398,511.36943 196.0398,511.36943 L 137.52568,464.59318 C 137.52568,464.59318 133.18725,460.29609 132.79551,459.51261 C 131.56916,457.05993 130.6932,452.32974 131.39397,450.9282 C 132.09473,449.52667 132.26993,448.65071 133.49627,448.8259 C 134.72261,449.00109 136.12415,450.75301 135.94896,450.75301 z" style="opacity: 0.297101; fill: rgb(0, 0, 0); fill-rule: evenodd; stroke: none; stroke-width: 1px; stroke-linecap: butt; stroke-linejoin: miter; stroke-opacity: 1; filter: url(&quot;#filter3368&quot;);"/>
          <path sodipodi:nodetypes="cccsscs" id="path3372" d="M 132.11838,448.80901 C 133.2844,447.41829 135.22504,449.13482 136.96796,450.14133 L 231.25665,519.55631 C 231.25665,519.55631 234.9068,522.47643 239.84598,522.77318 C 241.93163,522.89849 244.24713,522.55603 246.61469,521.3284 C 254.58906,517.19354 361.79999,429.18015 361.79999,429.18015 C 361.79999,429.18015 362.57935,426.57006 360.89089,426.03815" style="opacity: 0.206522; fill: none; fill-rule: evenodd; stroke: rgb(255, 255, 255); stroke-width: 1px; stroke-linecap: butt; stroke-linejoin: miter; stroke-opacity: 1; filter: url(&quot;#filter3386&quot;);"/>
          <path style="fill: rgb(0, 0, 0); fill-rule: evenodd; stroke: none; stroke-width: 0.3; stroke-linecap: butt; stroke-linejoin: miter; stroke-miterlimit: 4; stroke-dasharray: none; stroke-opacity: 1; filter: url(&quot;#filter3446&quot;);" d="M 206.00621,522.89237 C 207.39926,524.52754 213.77858,531.70575 216.24846,530.43644 C 215.48995,529.96769 215.15751,528.80322 215.12084,526.0412 C 215.14082,522.41426 214.91815,509.29132 214.91815,509.29132 C 214.91815,509.29132 214.45011,506.01509 216.79028,504.61099 C 219.13045,503.20689 276.0492,463.81367 292.56023,452.77568 C 309.11389,441.7092 346.09739,419.62371 347.96952,419.62371 C 349.84165,419.62371 338.94701,416.6207 338.94701,416.6207 C 338.94701,416.6207 289.8035,446.57484 273.89036,455.46748 C 257.97722,464.36011 207.42961,497.12246 207.42961,497.12246 C 207.42961,497.12246 203.95393,499.56234 204.61122,504.04324 C 205.09354,510.65397 203.86527,520.73499 206.00621,522.89237 z" id="path3412" sodipodi:nodetypes="ccccssscsccc"/>
          <path sodipodi:nodetypes="ccccssscsccc" id="path3398" d="M 204.39382,521.68308 C 205.78687,523.31825 212.56929,529.69027 215.03917,528.42096 C 214.28066,527.95221 213.94822,526.78774 213.91155,524.02572 C 213.93153,520.39878 213.70886,507.27584 213.70886,507.27584 C 213.70886,507.27584 213.24082,503.99961 215.58099,502.59551 C 217.92116,501.19141 268.74989,467.46858 285.30449,456.40355 C 303.02483,444.55936 345.69429,418.81752 347.56642,418.81752 C 349.43855,418.81752 337.73772,414.60522 337.73772,414.60522 C 337.73772,414.60522 293.43137,441.33459 272.68107,453.452 C 256.93931,462.64461 206.22032,495.10698 206.22032,495.10698 C 206.22032,495.10698 202.74464,497.54686 203.40193,502.02776 C 203.88425,508.63849 202.25288,519.5257 204.39382,521.68308 z" style="fill: url(&quot;#linearGradient4542&quot;) rgb(0, 0, 0); fill-opacity: 1; fill-rule: evenodd; stroke: none; stroke-width: 0.3; stroke-linecap: butt; stroke-linejoin: miter; stroke-miterlimit: 4; stroke-dasharray: none; stroke-opacity: 1;"/>
          <g style="opacity: 0.387681;" id="g3636">
            <path sodipodi:nodetypes="csccc" id="path3466" d="M 337.86103,416.15188 C 337.86103,416.15188 295.03751,441.94777 274.28721,454.06518 C 258.54545,463.25779 207.82646,495.72016 207.82646,495.72016 C 207.82646,495.72016 204.35078,498.16004 205.00807,502.64094 C 205.49039,509.25167 203.85902,520.13888 205.99996,522.29626" style="fill: none; fill-opacity: 1; fill-rule: evenodd; stroke: rgb(26, 26, 26); stroke-width: 0.5; stroke-linecap: butt; stroke-linejoin: miter; stroke-miterlimit: 4; stroke-dasharray: none; stroke-opacity: 1; filter: url(&quot;#filter3620&quot;);"/>
            <path style="fill: none; fill-opacity: 1; fill-rule: evenodd; stroke: rgb(26, 26, 26); stroke-width: 0.5; stroke-linecap: butt; stroke-linejoin: miter; stroke-miterlimit: 4; stroke-dasharray: none; stroke-opacity: 1; filter: url(&quot;#filter3624&quot;);" d="M 339.98602,417.1246 C 339.98602,417.1246 297.17724,443.16359 276.42694,455.281 C 260.68518,464.47361 209.96619,496.93598 209.96619,496.93598 C 209.96619,496.93598 206.49051,499.37586 207.1478,503.85676 C 207.63012,510.46749 205.99875,521.3547 208.13969,523.51208" id="path3470" sodipodi:nodetypes="csccc"/>
            <path sodipodi:nodetypes="csccc" id="path3472" d="M 342.14528,417.65482 C 342.14528,417.65482 302.13696,442.33726 281.38666,454.45467 C 265.6449,463.64728 212.49485,498.78382 212.49485,498.78382 C 212.49485,498.78382 209.01917,501.2237 209.67646,505.7046 C 210.15878,512.31533 208.52741,523.20254 210.66835,525.35992" style="fill: none; fill-opacity: 1; fill-rule: evenodd; stroke: rgb(26, 26, 26); stroke-width: 0.5; stroke-linecap: butt; stroke-linejoin: miter; stroke-miterlimit: 4; stroke-dasharray: none; stroke-opacity: 1; filter: url(&quot;#filter3628&quot;);"/>
            <path style="fill: none; fill-opacity: 1; fill-rule: evenodd; stroke: rgb(26, 26, 26); stroke-width: 0.5; stroke-linecap: butt; stroke-linejoin: miter; stroke-miterlimit: 4; stroke-dasharray: none; stroke-opacity: 1; filter: url(&quot;#filter3632&quot;);" d="M 343.76915,418.76827 C 343.76915,418.76827 305.29735,442.58037 284.54705,454.69778 C 268.80529,463.89039 214.68281,500.24246 214.68281,500.24246 C 214.68281,500.24246 211.20713,502.68234 211.86442,507.16324 C 212.34674,513.77397 210.71537,524.66118 212.85631,526.81856" id="path3474" sodipodi:nodetypes="csccc"/>
          </g>
        </g>
        <g id="g4354">
          <path id="path4201" d="M 241.00007,430.97234 C 239.19519,431.19141 236.32802,433.44139 232.46882,439.22234 C 231.68811,440.39181 226.19454,447.79472 221.25007,454.31609 C 220.03912,454.66293 219.18757,455.09734 219.18757,455.09734 L 214.00007,462.28484 C 213.7325,462.87597 213.19102,463.523 213.40632,464.00359 C 213.40632,464.00359 213.63564,463.94943 213.78132,463.90984 C 213.71618,463.98158 213.54331,464.18077 213.50007,464.22234 C 213.50008,464.22233 191.77867,497.44872 191.65632,503.40984 C 190.96225,505.15113 189.81257,508.37859 189.81257,508.37859 L 193.09382,505.50359 C 193.09381,505.50358 194.42464,504.80454 195.93757,503.56609 C 207.09732,493.903 214.94159,481.262 223.37507,469.53484 C 223.38831,469.51081 223.77032,468.92763 223.84382,468.81609 C 223.83509,468.88813 223.83451,468.96743 223.81257,469.03484 C 223.12283,471.1545 230.25007,460.50359 230.25007,460.50359 C 230.25007,460.50359 230.37527,459.93973 230.21882,459.09734 C 231.5879,456.95563 233.00024,454.68589 234.43757,452.31609 C 234.53474,452.27769 234.60484,452.23674 234.68757,452.19109 C 235.65712,452.10744 235.81257,451.44109 235.81257,451.44109 C 235.81257,451.44108 242.08206,440.3414 242.75007,439.25359 C 242.88604,439.03216 243.05356,438.58049 243.15632,438.12859 C 243.35623,437.64756 243.60264,437.02178 243.18757,436.59734 C 243.11624,436.5244 242.96784,436.43467 242.84382,436.34734 C 243.41845,434.59336 243.40378,432.94079 242.84382,431.94109 C 242.79422,431.51104 242.69062,431.23247 242.46882,431.37859 C 242.1003,431.05246 241.60857,430.89848 241.00007,430.97234 z" style="opacity: 1; fill: rgb(0, 0, 0); fill-opacity: 1; fill-rule: evenodd; stroke: none; stroke-width: 0.246048; stroke-linecap: butt; stroke-linejoin: miter; stroke-miterlimit: 4; stroke-dasharray: none; stroke-opacity: 1; filter: url(&quot;#filter4350&quot;);"/>
          <g transform="matrix(0.62051, -0.142062, 0.132651, 0.579404, -196.79, 269.914)" id="g4168">
            <g id="g4011" transform="translate(-49.396, -8.57894)">
              <path sodipodi:nodetypes="ccccccssc" id="path3663" d="M 606.98711,476.84234 C 606.98711,476.84234 562.06344,523.21516 559.7862,532.94517 C 558.11291,535.5402 555.23173,540.39795 555.23173,540.39795 L 561.23536,536.87858 C 561.23536,536.87858 563.52048,536.22388 566.27143,534.76093 C 586.74825,523.10394 603.21083,505.32919 620.23649,489.26363 C 620.85461,488.52189 651.14128,458.74876 661.20879,442.99622 C 666.53172,434.66748 662.93138,424.62642 644.79114,442.98418 C 641.99595,445.81288 609.88541,474.97915 606.98711,476.84234 z" style="opacity: 1; fill: url(&quot;#linearGradient4544&quot;) rgb(0, 0, 0); fill-opacity: 1; fill-rule: evenodd; stroke: rgb(0, 0, 0); stroke-width: 0.4; stroke-linecap: butt; stroke-linejoin: miter; stroke-miterlimit: 4; stroke-dasharray: none; stroke-opacity: 1; filter: url(&quot;#filter3893&quot;);"/>
              <path transform="matrix(0.959991, 0, 0, 0.959594, 24.5294, 17.6119)" id="path3671" d="M 563.59297,535.27323 L 567.52793,533.84234 C 567.52793,533.84234 580.2271,525.6147 582.01572,524.18381 C 583.80434,522.75292 611.34903,497.71229 611.34903,497.71229 L 637.64169,471.06191 L 660.35711,444.76925 C 660.35711,444.76925 663.2189,439.58226 663.57662,438.50909 C 663.93434,437.43592 663.2189,435.28958 663.2189,435.28958 C 663.2189,435.28958 651.95062,450.49282 649.62541,452.81802 C 647.30021,455.14322 610.81244,491.98872 610.81244,491.98872 L 562.5198,535.45209 L 563.59297,535.27323 z" style="opacity: 1; fill: rgb(255, 255, 255); fill-rule: evenodd; stroke: none; stroke-width: 1px; stroke-linecap: butt; stroke-linejoin: miter; stroke-opacity: 1; filter: url(&quot;#filter3809&quot;);"/>
              <path sodipodi:nodetypes="cssssssc" id="path3669" d="M 563.05639,534.55778 C 563.05639,534.55778 581.83686,520.06999 616.53601,487.8749 C 617.9298,486.58169 643.72298,459.97249 644.61729,458.72046 C 645.5116,457.46842 661.96687,439.4034 662.50345,437.97251 C 663.04004,436.54162 663.75548,433.50097 662.86117,433.85869 C 661.96687,434.21641 660.53597,436.89934 660.17825,437.61478 C 659.82053,438.33023 627.26771,474.10256 625.65796,475.17573 C 624.0482,476.2489 563.41411,534.55778 563.05639,534.55778 z" style="fill: rgb(61, 55, 39); fill-opacity: 1; fill-rule: evenodd; stroke: none; stroke-width: 1px; stroke-linecap: butt; stroke-linejoin: miter; stroke-opacity: 1; filter: url(&quot;#filter3789&quot;);"/>
              <path id="path3667" d="M 658.24345,434.44253 C 658.24345,434.44253 605.42495,485.84118 602.58525,488.68088 C 599.74554,491.52059 561.40954,532.98027 561.40954,532.98027 L 561.97748,534.40012 C 561.97748,534.40012 619.3395,477.60604 623.59906,473.34648 C 627.85862,469.08692 658.81139,436.43032 658.81139,436.43032 C 658.81139,436.43032 660.51522,434.44253 658.24345,434.44253 z" style="opacity: 0.648551; fill: rgb(255, 255, 255); fill-rule: evenodd; stroke: none; stroke-width: 1px; stroke-linecap: butt; stroke-linejoin: miter; stroke-opacity: 1; filter: url(&quot;#filter3689&quot;);"/>
              <path sodipodi:nodetypes="csscsccc" id="path3665" d="M 606.88943,476.47176 C 606.88943,476.47176 613.47782,475.91074 617.16039,479.10681 C 618.57987,480.33876 622.38893,486.23463 621.06641,488.59925 C 619.26707,491.81641 633.91744,477.07759 633.91744,477.07759 C 633.91744,477.07759 635.93576,472.50114 631.35923,466.84472 C 627.10438,461.58588 618.85764,464.02575 618.85764,464.02575 L 608.41617,473.86483 C 607.79919,474.73381 606.72824,475.60278 606.88943,476.47176 z" style="fill: rgb(26, 26, 26); fill-opacity: 1; fill-rule: evenodd; stroke: rgb(26, 26, 26); stroke-width: 1px; stroke-linecap: butt; stroke-linejoin: miter; stroke-opacity: 1;"/>
              <path sodipodi:nodetypes="cccc" id="path3897" d="M 559.70969,533.79642 L 555.64125,539.9318 L 560.49061,535.48038 L 559.70969,533.79642 z" style="fill: url(&quot;#linearGradient4546&quot;) rgb(0, 0, 0); fill-opacity: 1; fill-rule: evenodd; stroke: none; stroke-width: 1px; stroke-linecap: butt; stroke-linejoin: miter; stroke-opacity: 1;"/>
              <path style="fill: url(&quot;#linearGradient4548&quot;) rgb(0, 0, 0); fill-opacity: 1; fill-rule: evenodd; stroke: none; stroke-width: 1px; stroke-linecap: butt; stroke-linejoin: miter; stroke-opacity: 1;" d="M 562.10096,536.37711 L 555.71364,540.03734 L 560.47143,535.48817 L 562.10096,536.37711 z" id="path3917" sodipodi:nodetypes="cccc"/>
              <path id="path3929" d="M 619.13496,464.60996 L 609.64465,473.77673 C 609.64465,473.77673 608.5662,475.17871 608.67405,475.61009 C 608.78189,476.04147 610.61525,475.71793 611.26231,475.82578 C 611.90938,475.93362 615.46825,477.01207 615.46825,477.01207 C 615.46825,477.01207 615.25256,476.25716 615.14471,475.50225 C 615.03687,474.74733 614.82118,473.34536 618.48789,470.32571 C 622.1546,467.30607 623.98796,465.6884 624.41934,465.58056 C 624.85071,465.47271 626.46838,465.14918 627.43898,465.36487 C 628.40958,465.58056 627.54683,464.39427 626.57623,464.17858 C 625.60563,463.96289 620.96831,463.63936 619.13496,464.60996 z" style="fill: url(&quot;#linearGradient4550&quot;) rgb(0, 0, 0); fill-opacity: 1; fill-rule: evenodd; stroke: none; stroke-width: 1px; stroke-linecap: butt; stroke-linejoin: miter; stroke-opacity: 1; filter: url(&quot;#filter3969&quot;);"/>
              <path sodipodi:nodetypes="cscssc" id="path3973" d="M 621.61538,483.1592 C 621.61538,483.1592 622.90951,485.63962 622.47814,487.0416 C 622.04676,488.44358 633.58611,476.90422 633.58611,476.90422 C 633.58611,476.90422 634.01749,473.12967 633.37043,472.05122 C 632.72336,470.97278 633.90588,475.06684 627.76251,480.35525 C 624.5638,483.1088 621.93891,483.1592 621.61538,483.1592 z" style="fill: url(&quot;#linearGradient4552&quot;) rgb(0, 0, 0); fill-opacity: 1; fill-rule: evenodd; stroke: none; stroke-width: 1px; stroke-linecap: butt; stroke-linejoin: miter; stroke-opacity: 1; filter: url(&quot;#filter3999&quot;);"/>
            </g>
            <path id="path4042" d="M 606.34207,432.22972 C 606.34207,432.22972 607.64853,431.06842 606.92272,433.10069 C 606.19691,435.13296 590.80972,452.11692 590.95489,453.85887 C 591.10005,455.60081 591.10005,456.32662 592.69683,456.61695 C 594.29361,456.90727 595.45491,455.89114 595.45491,455.89114 C 595.45491,455.89114 611.42274,437.74587 611.85823,437.02006 C 612.29371,436.29425 613.30985,435.13296 612.7292,434.11682 C 612.14855,433.10069 609.39047,430.77809 609.39047,430.77809 C 609.39047,430.77809 607.06788,430.77809 606.34207,432.22972 z" style="opacity: 0.731884; fill: rgb(0, 0, 0); fill-opacity: 1; fill-rule: evenodd; stroke: none; stroke-width: 0.3; stroke-linecap: butt; stroke-linejoin: miter; stroke-miterlimit: 4; stroke-dasharray: none; stroke-opacity: 1; filter: url(&quot;#filter4090&quot;);"/>
            <path style="fill: url(&quot;#linearGradient4554&quot;) rgb(0, 0, 0); fill-opacity: 1; fill-rule: evenodd; stroke: rgb(58, 54, 54); stroke-width: 0.3; stroke-linecap: butt; stroke-linejoin: miter; stroke-miterlimit: 4; stroke-dasharray: none; stroke-opacity: 1;" d="M 607.79369,432.08456 C 607.79369,432.08456 609.97252,430.24475 609.24671,432.27702 C 608.5209,434.30929 594.68459,450.61474 593.27888,452.55055 C 592.2518,453.96495 592.55167,456.18146 594.14845,456.47179 C 595.74523,456.76211 596.22755,455.69868 596.22755,455.69868 C 596.22755,455.69868 609.70931,439.82935 611.1136,438.29621 C 611.68531,437.67204 612.75908,435.7306 612.56615,434.61753 C 612.36628,433.46439 610.84209,430.63293 610.84209,430.63293 C 610.84209,430.63293 608.5195,430.63293 607.79369,432.08456 z" id="path4032" sodipodi:nodetypes="cssscsscc"/>
            <path sodipodi:nodetypes="ccscscsccc" style="opacity: 0.407285; fill: url(&quot;#linearGradient4556&quot;) rgb(0, 0, 0); fill-opacity: 1; fill-rule: evenodd; stroke: none; stroke-width: 1px; stroke-linecap: butt; stroke-linejoin: miter; stroke-opacity: 1; display: inline; filter: url(&quot;#filter4156&quot;);" d="M 609.07426,433.92045 L 593.19538,453.91082 C 593.19538,453.91082 592.91183,454.76148 593.62071,455.47036 C 594.32959,456.17924 594.18781,454.0526 594.18781,454.0526 C 594.18781,454.0526 608.93249,434.06222 610.6338,434.48755 C 612.33511,434.91288 611.87434,436.73233 611.87434,436.73233 C 611.87434,436.73233 611.73256,434.60569 611.73256,434.60569 C 610.88191,433.75504 610.35024,431.65203 610.35024,431.65203 L 609.07426,432.92802 L 609.07426,433.92045 z" id="path4096"/>
          </g>
        </g>
      </g>
    </g>
  </g>
</svg>