<?xml version="1.0" encoding="UTF-8" standalone="no"?>
<!-- Created with Inkscape (http://www.inkscape.org/) -->
<svg xmlns:dc="http://purl.org/dc/elements/1.1/" xmlns:cc="http://creativecommons.org/ns#" xmlns:rdf="http://www.w3.org/1999/02/22-rdf-syntax-ns#" xmlns:svg="http://www.w3.org/2000/svg" xmlns="http://www.w3.org/2000/svg" xmlns:xlink="http://www.w3.org/1999/xlink" xmlns:sodipodi="http://sodipodi.sourceforge.net/DTD/sodipodi-0.dtd" xmlns:inkscape="http://www.inkscape.org/namespaces/inkscape" width="249.07971" height="450.82327" id="svg3451" sodipodi:version="0.32" inkscape:version="0.46" sodipodi:docbase="/home/drunken-duck/SVG/inprogress" sodipodi:docname="pear_final.svg" inkscape:output_extension="org.inkscape.output.svg.inkscape" sodipodi:modified="true" version="1.0">
  <defs id="defs3453">
    <linearGradient id="linearGradient4027">
      <stop id="stop4029" offset="0" style="stop-color: rgb(25, 0, 0); stop-opacity: 0;"/>
      <stop id="stop4031" offset="1" style="stop-color: rgb(255, 255, 255); stop-opacity: 1;"/>
    </linearGradient>
    <linearGradient inkscape:collect="always" id="linearGradient4009">
      <stop style="stop-color: rgb(25, 0, 0); stop-opacity: 1;" offset="0" id="stop4011"/>
      <stop style="stop-color: rgb(25, 0, 0); stop-opacity: 0;" offset="1" id="stop4013"/>
    </linearGradient>
    <linearGradient id="linearGradient3846">
      <stop style="stop-color: rgb(255, 233, 183); stop-opacity: 1;" offset="0" id="stop3848"/>
      <stop style="stop-color: rgb(25, 128, 20); stop-opacity: 0;" offset="1" id="stop3850"/>
    </linearGradient>
    <linearGradient id="linearGradient3838">
      <stop style="stop-color: rgb(0, 0, 0); stop-opacity: 0;" offset="0" id="stop3840"/>
      <stop style="stop-color: rgb(0, 0, 0); stop-opacity: 1;" offset="1" id="stop3842"/>
    </linearGradient>
    <inkscape:perspective sodipodi:type="inkscape:persp3d" inkscape:vp_x="0 : 526.18109 : 1" inkscape:vp_y="0 : 1000 : 0" inkscape:vp_z="744.09448 : 526.18109 : 1" inkscape:persp3d-origin="372.04724 : 350.78739 : 1" id="perspective266"/>
    <linearGradient id="linearGradient22699">
      <stop id="stop22701" offset="0" style="stop-color: rgb(0, 0, 0); stop-opacity: 1;"/>
      <stop id="stop22703" offset="1" style="stop-color: rgb(0, 0, 0); stop-opacity: 0;"/>
    </linearGradient>
    <filter inkscape:collect="always" x="-0.14637218" width="1.2927444" y="-0.25333646" height="1.5066729" id="filter22611">
      <feGaussianBlur inkscape:collect="always" stdDeviation="9.4096401" id="feGaussianBlur22613"/>
    </filter>
    <filter inkscape:collect="always" x="-0.10425664" width="1.2085133" y="-0.1318434" height="1.2636868" id="filter22397">
      <feGaussianBlur inkscape:collect="always" stdDeviation="22.180596" id="feGaussianBlur22399"/>
    </filter>
    <linearGradient id="linearGradient21215">
      <stop style="stop-color: rgb(255, 255, 255); stop-opacity: 0;" offset="0" id="stop21217"/>
      <stop style="stop-color: rgb(0, 0, 0); stop-opacity: 1;" offset="1" id="stop21219"/>
    </linearGradient>
    <radialGradient inkscape:collect="always" xlink:href="#linearGradient21215" id="radialGradient3978" gradientUnits="userSpaceOnUse" gradientTransform="matrix(0.997291, -0.0735575, 0.11685, 1.58425, 2203.22, -3732.36)" cx="-1728.6101" cy="2771.8879" fx="-1728.6101" fy="2771.8879" r="220.0625"/>
    <radialGradient inkscape:collect="always" xlink:href="#linearGradient22699" id="radialGradient3980" gradientUnits="userSpaceOnUse" gradientTransform="matrix(0.88315, -0.0519333, 0.0556546, 0.946432, 2191.52, -1935.78)" cx="-1820" cy="2738.0764" fx="-1820" fy="2738.0764" r="220.0625"/>
    <radialGradient inkscape:collect="always" xlink:href="#linearGradient22699" id="radialGradient3982" gradientUnits="userSpaceOnUse" gradientTransform="matrix(0.768295, -3.55323e-07, 8.81287e-07, 0.345075, 2316.67, -661.272)" cx="-2073.916" cy="3338.9875" fx="-2073.916" fy="3338.9875" r="89.887749"/>
    <radialGradient inkscape:collect="always" xlink:href="#linearGradient21215" id="radialGradient3984" gradientUnits="userSpaceOnUse" gradientTransform="matrix(-1.76736, -0.368102, -0.353912, 1.69923, -1987.9, 2376.33)" cx="-1466.8921" cy="2907.72" fx="-1466.8921" fy="2907.72" r="237.20535"/>
    <radialGradient inkscape:collect="always" xlink:href="#linearGradient21215" id="radialGradient3986" gradientUnits="userSpaceOnUse" gradientTransform="matrix(1.29159, -0.43263, 0.360994, 1.07772, -632.533, -864.027)" cx="-1454.2856" cy="2926.8779" fx="-1454.2856" fy="2926.8779" r="237.20535"/>
    <radialGradient inkscape:collect="always" xlink:href="#linearGradient21215" id="radialGradient3988" gradientUnits="userSpaceOnUse" gradientTransform="matrix(-1.76736, -0.368102, -0.353912, 1.69923, -1987.9, 2376.33)" cx="-1466.8921" cy="2907.72" fx="-1466.8921" fy="2907.72" r="237.20535"/>
    <radialGradient inkscape:collect="always" xlink:href="#linearGradient21215" id="radialGradient3990" gradientUnits="userSpaceOnUse" gradientTransform="matrix(1.29159, -0.43263, 0.360994, 1.07772, -632.533, -864.027)" cx="-1454.2856" cy="2926.8779" fx="-1454.2856" fy="2926.8779" r="237.20535"/>
    <radialGradient inkscape:collect="always" xlink:href="#linearGradient21215" id="radialGradient5109" gradientUnits="userSpaceOnUse" gradientTransform="matrix(-1.76736, -0.368102, -0.353912, 1.69923, -1987.9, 2376.33)" cx="-1466.8921" cy="2907.72" fx="-1466.8921" fy="2907.72" r="237.20535"/>
    <radialGradient inkscape:collect="always" xlink:href="#linearGradient21215" id="radialGradient5111" gradientUnits="userSpaceOnUse" gradientTransform="matrix(1.29159, -0.43263, 0.360994, 1.07772, -632.533, -864.027)" cx="-1454.2856" cy="2926.8779" fx="-1454.2856" fy="2926.8779" r="237.20535"/>
    <radialGradient inkscape:collect="always" xlink:href="#linearGradient21215" id="radialGradient5113" gradientUnits="userSpaceOnUse" gradientTransform="matrix(-1.76736, -0.368102, -0.353912, 1.69923, -1987.9, 2376.33)" cx="-1466.8921" cy="2907.72" fx="-1466.8921" fy="2907.72" r="237.20535"/>
    <radialGradient inkscape:collect="always" xlink:href="#linearGradient21215" id="radialGradient5115" gradientUnits="userSpaceOnUse" gradientTransform="matrix(1.29159, -0.43263, 0.360994, 1.07772, -632.533, -864.027)" cx="-1454.2856" cy="2926.8779" fx="-1454.2856" fy="2926.8779" r="237.20535"/>
    <filter inkscape:collect="always" id="filter3993">
      <feGaussianBlur inkscape:collect="always" stdDeviation="0.88235548" id="feGaussianBlur3995"/>
    </filter>
    <radialGradient inkscape:collect="always" xlink:href="#linearGradient3846" id="radialGradient4072" gradientUnits="userSpaceOnUse" gradientTransform="matrix(1, 0, 0, 1.49354, 227.156, -404.371)" cx="556.75732" cy="838.71692" fx="556.75732" fy="838.71692" r="124.53985"/>
    <radialGradient inkscape:collect="always" xlink:href="#linearGradient3838" id="radialGradient4074" gradientUnits="userSpaceOnUse" gradientTransform="matrix(1, 0, 0, 1.49379, 516.509, -283.501)" cx="215.78815" cy="734.32758" fx="215.78815" fy="734.32758" r="124.47735"/>
    <radialGradient inkscape:collect="always" xlink:href="#linearGradient22699" id="radialGradient4076" gradientUnits="userSpaceOnUse" gradientTransform="matrix(0.641401, -2.96637e-07, 7.35732e-07, 0.288081, 2065.76, -321.476)" cx="-2073.916" cy="3338.9875" fx="-2073.916" fy="3338.9875" r="89.887749"/>
    <linearGradient inkscape:collect="always" xlink:href="#linearGradient4027" id="linearGradient4078" gradientUnits="userSpaceOnUse" gradientTransform="translate(-86.3658, 2.17697)" x1="810.74902" y1="599.72095" x2="842.25452" y2="599.05066"/>
    <linearGradient inkscape:collect="always" xlink:href="#linearGradient4009" id="linearGradient4080" gradientUnits="userSpaceOnUse" gradientTransform="translate(-86.3658, 2.17697)" x1="816.85559" y1="602.40228" x2="834.54572" y2="602.40228"/>
    <radialGradient inkscape:collect="always" xlink:href="#linearGradient21215" id="radialGradient4082" gradientUnits="userSpaceOnUse" gradientTransform="matrix(-1.76736, -0.368102, -0.353912, 1.69923, -1987.9, 2376.33)" cx="-1466.8921" cy="2907.72" fx="-1466.8921" fy="2907.72" r="237.20535"/>
    <radialGradient inkscape:collect="always" xlink:href="#linearGradient21215" id="radialGradient4084" gradientUnits="userSpaceOnUse" gradientTransform="matrix(1.29159, -0.43263, 0.360994, 1.07772, -632.533, -864.027)" cx="-1454.2856" cy="2926.8779" fx="-1454.2856" fy="2926.8779" r="237.20535"/>
    <radialGradient inkscape:collect="always" xlink:href="#linearGradient21215" id="radialGradient4086" gradientUnits="userSpaceOnUse" gradientTransform="matrix(-1.76736, -0.368102, -0.353912, 1.69923, -1987.9, 2376.33)" cx="-1466.8921" cy="2907.72" fx="-1466.8921" fy="2907.72" r="237.20535"/>
    <radialGradient inkscape:collect="always" xlink:href="#linearGradient21215" id="radialGradient4088" gradientUnits="userSpaceOnUse" gradientTransform="matrix(1.29159, -0.43263, 0.360994, 1.07772, -632.533, -864.027)" cx="-1454.2856" cy="2926.8779" fx="-1454.2856" fy="2926.8779" r="237.20535"/>
    <radialGradient inkscape:collect="always" xlink:href="#linearGradient22699" id="radialGradient4126" gradientUnits="userSpaceOnUse" gradientTransform="matrix(0.641401, -2.96637e-07, 7.35732e-07, 0.288081, 2065.76, -321.476)" cx="-2073.916" cy="3338.9875" fx="-2073.916" fy="3338.9875" r="89.887749"/>
    <radialGradient inkscape:collect="always" xlink:href="#linearGradient21215" id="radialGradient4163" gradientUnits="userSpaceOnUse" gradientTransform="matrix(-1.76736, -0.368102, -0.353912, 1.69923, -1987.9, 2376.33)" cx="-1466.8921" cy="2907.72" fx="-1466.8921" fy="2907.72" r="237.20535"/>
    <radialGradient inkscape:collect="always" xlink:href="#linearGradient21215" id="radialGradient4165" gradientUnits="userSpaceOnUse" gradientTransform="matrix(1.29159, -0.43263, 0.360994, 1.07772, -632.533, -864.027)" cx="-1454.2856" cy="2926.8779" fx="-1454.2856" fy="2926.8779" r="237.20535"/>
    <radialGradient inkscape:collect="always" xlink:href="#linearGradient21215" id="radialGradient4167" gradientUnits="userSpaceOnUse" gradientTransform="matrix(-1.76736, -0.368102, -0.353912, 1.69923, -1987.9, 2376.33)" cx="-1466.8921" cy="2907.72" fx="-1466.8921" fy="2907.72" r="237.20535"/>
    <radialGradient inkscape:collect="always" xlink:href="#linearGradient21215" id="radialGradient4169" gradientUnits="userSpaceOnUse" gradientTransform="matrix(1.29159, -0.43263, 0.360994, 1.07772, -632.533, -864.027)" cx="-1454.2856" cy="2926.8779" fx="-1454.2856" fy="2926.8779" r="237.20535"/>
    <radialGradient inkscape:collect="always" xlink:href="#linearGradient21215" id="radialGradient4171" gradientUnits="userSpaceOnUse" gradientTransform="matrix(-1.76736, -0.368102, -0.353912, 1.69923, -1987.9, 2376.33)" cx="-1466.8921" cy="2907.72" fx="-1466.8921" fy="2907.72" r="237.20535"/>
    <radialGradient inkscape:collect="always" xlink:href="#linearGradient21215" id="radialGradient4173" gradientUnits="userSpaceOnUse" gradientTransform="matrix(1.29159, -0.43263, 0.360994, 1.07772, -632.533, -864.027)" cx="-1454.2856" cy="2926.8779" fx="-1454.2856" fy="2926.8779" r="237.20535"/>
    <radialGradient inkscape:collect="always" xlink:href="#linearGradient21215" id="radialGradient4175" gradientUnits="userSpaceOnUse" gradientTransform="matrix(-1.76736, -0.368102, -0.353912, 1.69923, -1987.9, 2376.33)" cx="-1466.8921" cy="2907.72" fx="-1466.8921" fy="2907.72" r="237.20535"/>
    <radialGradient inkscape:collect="always" xlink:href="#linearGradient21215" id="radialGradient4177" gradientUnits="userSpaceOnUse" gradientTransform="matrix(1.29159, -0.43263, 0.360994, 1.07772, -632.533, -864.027)" cx="-1454.2856" cy="2926.8779" fx="-1454.2856" fy="2926.8779" r="237.20535"/>
    <radialGradient inkscape:collect="always" xlink:href="#linearGradient3846" id="radialGradient4205" gradientUnits="userSpaceOnUse" gradientTransform="matrix(1, 0, 0, 1.49354, 227.156, -404.371)" cx="556.75732" cy="838.71692" fx="556.75732" fy="838.71692" r="124.53985"/>
    <radialGradient inkscape:collect="always" xlink:href="#linearGradient3838" id="radialGradient4207" gradientUnits="userSpaceOnUse" gradientTransform="matrix(1, 0, 0, 1.49379, 516.509, -283.501)" cx="215.78815" cy="734.32758" fx="215.78815" fy="734.32758" r="124.47735"/>
    <radialGradient inkscape:collect="always" xlink:href="#linearGradient22699" id="radialGradient4209" gradientUnits="userSpaceOnUse" gradientTransform="matrix(0.641401, -2.96637e-07, 7.35732e-07, 0.288081, 2065.76, -321.476)" cx="-2073.916" cy="3338.9875" fx="-2073.916" fy="3338.9875" r="89.887749"/>
    <linearGradient inkscape:collect="always" xlink:href="#linearGradient4027" id="linearGradient4211" gradientUnits="userSpaceOnUse" gradientTransform="translate(-86.3658, 2.17697)" x1="810.74902" y1="599.72095" x2="842.25452" y2="599.05066"/>
    <linearGradient inkscape:collect="always" xlink:href="#linearGradient4009" id="linearGradient4213" gradientUnits="userSpaceOnUse" gradientTransform="translate(-86.3658, 2.17697)" x1="816.85559" y1="602.40228" x2="834.54572" y2="602.40228"/>
    <radialGradient inkscape:collect="always" xlink:href="#linearGradient21215" id="radialGradient4215" gradientUnits="userSpaceOnUse" gradientTransform="matrix(-1.76736, -0.368102, -0.353912, 1.69923, -1987.9, 2376.33)" cx="-1466.8921" cy="2907.72" fx="-1466.8921" fy="2907.72" r="237.20535"/>
    <radialGradient inkscape:collect="always" xlink:href="#linearGradient21215" id="radialGradient4217" gradientUnits="userSpaceOnUse" gradientTransform="matrix(1.29159, -0.43263, 0.360994, 1.07772, -632.533, -864.027)" cx="-1454.2856" cy="2926.8779" fx="-1454.2856" fy="2926.8779" r="237.20535"/>
    <radialGradient inkscape:collect="always" xlink:href="#linearGradient21215" id="radialGradient4219" gradientUnits="userSpaceOnUse" gradientTransform="matrix(-1.76736, -0.368102, -0.353912, 1.69923, -1987.9, 2376.33)" cx="-1466.8921" cy="2907.72" fx="-1466.8921" fy="2907.72" r="237.20535"/>
    <radialGradient inkscape:collect="always" xlink:href="#linearGradient21215" id="radialGradient4221" gradientUnits="userSpaceOnUse" gradientTransform="matrix(1.29159, -0.43263, 0.360994, 1.07772, -632.533, -864.027)" cx="-1454.2856" cy="2926.8779" fx="-1454.2856" fy="2926.8779" r="237.20535"/>
  </defs>
  <sodipodi:namedview id="base" pagecolor="#ffffff" bordercolor="#666666" borderopacity="1.0" inkscape:pageopacity="0.0" inkscape:pageshadow="2" inkscape:zoom="1.4918033" inkscape:cx="-11.921269" inkscape:cy="219.42834" inkscape:document-units="px" inkscape:current-layer="layer1" inkscape:window-width="1280" inkscape:window-height="977" inkscape:window-x="1024" inkscape:window-y="20" showgrid="false"/>
  <metadata id="metadata3456">
    <rdf:RDF>
      <cc:Work rdf:about="">
        <dc:format>image/svg+xml</dc:format>
        <dc:type rdf:resource="http://purl.org/dc/dcmitype/StillImage"/>
      </cc:Work>
    </rdf:RDF>
  </metadata>
  <g inkscape:label="Ebene 1" inkscape:groupmode="layer" id="layer1" transform="translate(-607.758, -564.167)">
    <g id="g4179">
      <g transform="matrix(0.834838, 0, 0, 0.834838, 413.286, 200.151)" id="g4979">
        <path style="fill: rgb(0, 0, 0); fill-opacity: 1; fill-rule: evenodd; stroke: rgb(0, 0, 0); stroke-width: 0.118108px; stroke-linecap: butt; stroke-linejoin: miter; stroke-opacity: 1;" d="M 355.93761,952.86993 C 364.53344,952.84783 373.089,951.45399 381.69201,951.90267 C 384.15646,952.44055 385.19839,955.25682 385.06277,957.53488 C 385.73263,961.70392 384.33845,965.97651 381.85187,969.31721 C 381.31198,969.90245 380.09348,972.43502 381.39105,970.56843 C 382.76365,968.61108 383.74473,966.41174 384.56925,964.17667 C 385.0452,966.38058 383.55479,968.48816 384.05717,970.69129 C 384.08463,972.48571 384.33506,974.36935 385.18083,975.97032 C 383.96954,970.24384 380.76294,965.19166 379.37229,959.52032 C 378.4513,962.29446 379.30848,965.20615 379.23633,968.0422 C 379.69742,968.97322 380.87943,971.98714 378.9823,971.40241 C 377.78727,969.39038 376.72569,967.28908 375.44341,965.33695 C 374.94007,963.52909 371.9891,962.69591 371.90469,965.14647 C 371.48013,967.35589 371.78048,969.66074 371.13128,971.83276 C 371.23885,973.40759 369.59743,976.6827 368.32104,974.0388 C 367.54226,972.17139 365.95068,970.79823 365.342,968.96848 C 364.3809,967.55017 361.72616,967.66393 361.20574,969.41784 C 360.68294,968.72688 360.76327,966.02271 359.35537,967.77658 C 358.04823,969.71253 356.90557,971.7929 355.28431,973.46388 C 353.83903,974.85351 352.26201,973.2294 352.8396,971.60867 C 352.57956,969.11317 349.60489,969.41495 348.66385,971.27642 C 347.49876,972.37199 345.42689,973.20098 344.15926,971.81578 C 342.78099,970.02244 344.72201,967.92026 346.5586,967.63109 C 350.49339,965.93889 354.76763,963.96959 356.90473,960.02622 C 358.17561,958.05187 357.30241,955.82437 356.13736,954.08298 C 355.99377,953.69706 355.90732,953.28336 355.93761,952.86993 z" id="path3992"/>
        <path style="fill: rgb(169, 113, 19); fill-opacity: 1; fill-rule: evenodd; stroke: rgb(0, 0, 0); stroke-width: 0.072328px; stroke-linecap: butt; stroke-linejoin: miter; stroke-opacity: 1;" d="M 360.7389,954.37649 C 366.72582,954.3646 372.68469,953.61409 378.67661,953.85568 C 380.39308,954.1453 381.11878,955.6617 381.02432,956.8883 C 381.49088,959.13309 380.51983,961.43362 378.78796,963.23239 C 378.41193,963.54755 377.56326,964.91115 378.467,963.90609 C 379.42301,962.8522 380.10632,961.668 380.68059,960.46453 C 381.01209,961.6512 379.97402,962.78602 380.32393,963.97226 C 380.34306,964.93844 380.51748,965.95272 381.10655,966.81471 C 380.2629,963.73136 378.02953,961.01105 377.06095,957.95734 C 376.41949,959.45106 377.0165,961.01885 376.96626,962.54588 C 377.2874,963.04717 378.11066,964.67003 376.78933,964.35515 C 375.957,963.27181 375.21762,962.14037 374.32452,961.08928 C 373.97395,960.11583 371.91863,959.66722 371.85983,960.98671 C 371.56413,962.17635 371.77333,963.4174 371.32116,964.5869 C 371.39608,965.43483 370.25285,967.19829 369.36385,965.7747 C 368.82143,964.76922 367.71292,964.02983 367.28898,963.04463 C 366.61957,962.28097 364.77057,962.34219 364.40811,963.28661 C 364.04398,962.91455 364.09993,961.45849 363.11934,962.40287 C 362.20893,963.44524 361.41308,964.56541 360.28388,965.46515 C 359.27726,966.21337 358.17887,965.33889 358.58116,964.46623 C 358.40005,963.12255 356.32822,963.28505 355.67279,964.28731 C 354.86132,964.87722 353.41828,965.32359 352.53539,964.57775 C 351.57544,963.61216 352.92734,962.48025 354.2065,962.32453 C 356.94705,961.41338 359.92402,960.35302 361.41249,958.22974 C 362.29765,957.16667 361.68947,955.9673 360.87802,955.02965 C 360.77802,954.82186 360.71781,954.5991 360.7389,954.37649 z" id="path4977"/>
      </g>
      <g id="g3874">
        <path style="fill: rgb(25, 128, 20); fill-opacity: 1; stroke: rgb(0, 0, 0); stroke-width: 0.0417419; stroke-linecap: round; stroke-miterlimit: 4; stroke-opacity: 1;" d="M 843.02302,843.47166 C 883.54655,927.5513 831.16764,999.36935 729.78495,999.36935 C 628.40226,999.36935 579.56256,919.76121 624.71164,834.90926 C 679.45024,732.03503 634.67113,627.48453 736.05383,627.48453 C 837.43652,627.48453 786.41512,726.01959 843.02302,843.47166 z" id="path3590" sodipodi:nodetypes="cssss"/>
        <path style="opacity: 0.755319; fill: url(&quot;#radialGradient4205&quot;) rgb(0, 0, 0); fill-opacity: 1; stroke: none; stroke-width: 0.0417419; stroke-linecap: round; stroke-miterlimit: 4; stroke-opacity: 1;" d="M 843.02302,843.47168 C 883.54655,927.55138 831.16764,999.36929 729.78495,999.36929 C 628.40226,999.36929 579.56257,919.76128 624.71165,834.90928 C 679.45024,732.03511 634.67114,627.4846 736.05383,627.4846 C 837.43652,627.4846 786.41512,726.01966 843.02302,843.47168 z" id="path2771" sodipodi:nodetypes="cssss"/>
        <path style="opacity: 0.269504; fill: url(&quot;#radialGradient4207&quot;) rgb(0, 0, 0); fill-opacity: 1; stroke: none; stroke-width: 0.0417419; stroke-linecap: round; stroke-miterlimit: 4; stroke-opacity: 1;" d="M 843.02302,843.47163 C 883.54654,927.55135 831.16764,999.36934 729.78495,999.36934 C 628.40226,999.36934 579.56257,919.76125 624.71165,834.90923 C 679.45024,732.03506 634.67114,627.48455 736.05382,627.48455 C 837.43652,627.48455 786.41512,726.01961 843.02302,843.47163 z" id="path2773" sodipodi:nodetypes="cssss"/>
      </g>
      <path sodipodi:nodetypes="csssssc" id="path3792" d="M 773.82667,638.26629 C 773.82667,640.37809 756.742,639.72084 750.85146,640.01268 C 743.78057,640.36295 742.05892,646.11635 735.08808,645.58974 C 726.93204,644.9736 724.86942,639.45249 717.71061,639.37929 C 710.63045,639.30913 697.27181,640.37809 697.27181,638.26629 C 697.27181,634.04276 714.53542,628.75678 735.66452,628.75678 C 756.79366,628.75678 773.82667,634.04276 773.82667,638.26629 z" style="opacity: 0.568493; fill: url(&quot;#radialGradient4209&quot;) rgb(0, 0, 0); fill-opacity: 1; stroke: none; stroke-width: 0.05; stroke-linecap: round; stroke-miterlimit: 4; stroke-opacity: 1;"/>
      <g id="g4039">
        <g id="g4033">
          <g transform="matrix(0.501745, 0, 0, 0.501745, 360.396, 340.876)" id="g3997">
            <path style="fill: rgb(25, 0, 0); fill-opacity: 1; fill-rule: evenodd; stroke: rgb(0, 0, 0); stroke-width: 1px; stroke-linecap: butt; stroke-linejoin: miter; stroke-opacity: 1;" d="M 166.24176,-37.965824 C 160.67852,-18.848244 181.58111,-3.1257097 186.35165,-37.965824 C 191.19885,-73.365802 216.59393,-151.77158 231.93407,-163.9878 C 247.68779,-176.53338 193.93137,-184.93994 192.38462,-161.97681 C 190.84155,-139.06832 171.93724,-57.537831 166.24176,-37.965824 z" id="path3879" transform="translate(573.423, 621.934)" sodipodi:nodetypes="czzzz"/>
            <path style="opacity: 0.69149; fill: rgb(216, 131, 34); fill-opacity: 1; fill-rule: evenodd; stroke: rgb(0, 0, 0); stroke-width: 1px; stroke-linecap: butt; stroke-linejoin: miter; stroke-opacity: 1; filter: url(&quot;#filter3993&quot;);" d="M 194.14904,-167.89217 C 194.47856,-161.94044 173.34211,-56.837563 166.59375,-39.40625 C 159.40544,-20.838546 181.94821,-4.56613 186.71875,-39.40625 C 191.56595,-74.80622 210.15032,-126.28457 215.21875,-140.28125 C 220.2472,-154.16749 211.13878,-135.42433 193.50412,-162.73592 C 196.52664,-145.39603 194.21147,-167.96451 194.14904,-167.89217 z M 205.75,-139.875 L 206.46875,-139.1875 C 206.02373,-138.74248 205.35965,-137.47471 205.03125,-135.78125 C 204.70285,-134.08779 204.66259,-131.94338 205.25,-129.59375 C 205.49749,-128.60382 205.88784,-128.10484 206.25,-127.78125 C 206.61216,-127.45766 206.96167,-127.36124 207.3125,-127.09375 C 207.48791,-126.96001 207.67874,-126.68365 207.6875,-126.375 C 207.69626,-126.06635 207.58864,-125.83076 207.40625,-125.5625 C 207.04147,-125.02597 206.34858,-124.31732 205.125,-123.09375 C 204.66381,-122.63255 204.50148,-122.48051 204.40625,-122.375 C 204.40414,-122.37266 204.40821,-122.34593 204.40625,-122.34375 C 204.37375,-122.30365 204.34046,-122.28062 204.3125,-122.25 C 204.31029,-122.24744 204.28294,-122.22075 204.28125,-122.21875 C 204.26692,-122.20388 204.26491,-122.17043 204.25,-122.15625 C 204.23662,-122.14353 204.22894,-122.12414 204.1875,-122.09375 C 204.17714,-122.08615 204.14836,-122.07608 204.125,-122.0625 C 204.11332,-122.05571 204.09397,-122.03135 204.09375,-122.03125 C 204.09353,-122.03115 204.00017,-122.00004 204,-122 C 203.99983,-121.99996 203.78136,-121.99998 203.78125,-122 C 203.78114,-122.00002 203.43755,-122.24991 203.4375,-122.25 C 203.43745,-122.25009 203.375,-122.5311 203.375,-122.53125 C 203.375,-122.5314 203.40619,-122.65603 203.40625,-122.65625 C 203.40638,-122.65669 203.42797,-122.7321 203.4375,-122.75 L 203.21875,-123.21875 C 203.48213,-123.35044 203.6638,-123.42292 203.84375,-123.46875 C 203.92482,-123.4894 204.02095,-123.50464 204.125,-123.5 C 204.13643,-123.49949 204.14418,-123.50105 204.15625,-123.5 C 204.27052,-123.6169 204.23912,-123.61411 204.40625,-123.78125 C 205.62166,-124.99666 206.30256,-125.74267 206.5625,-126.125 C 206.67048,-126.28381 206.65239,-126.31552 206.65625,-126.3125 C 206.51213,-126.41219 206.07783,-126.59872 205.59375,-127.03125 C 205.09328,-127.47843 204.56948,-128.19086 204.28125,-129.34375 C 203.65612,-131.8443 203.70732,-134.13716 204.0625,-135.96875 C 204.41768,-137.80034 205.03549,-139.16048 205.75,-139.875 z M 193.3125,-134.125 L 194.125,-133.53125 C 193.96769,-133.31498 193.70603,-132.75905 193.46875,-132.03125 C 193.23147,-131.30345 192.98493,-130.40405 192.75,-129.4375 C 192.28014,-127.5044 191.85692,-125.31584 191.53125,-123.6875 L 190.53125,-123.875 C 190.85693,-125.50341 191.30418,-127.69351 191.78125,-129.65625 C 192.01978,-130.63762 192.28097,-131.57607 192.53125,-132.34375 C 192.78153,-133.11143 193.00802,-133.70638 193.3125,-134.125 z M 200.21875,-115.90625 C 200.63925,-114.67959 200.42276,-112.67757 200,-110.46875 C 199.57724,-108.25994 198.88619,-105.90298 198.1875,-104.15625 L 197.28125,-104.53125 C 197.94595,-106.19301 198.58947,-108.51135 199,-110.65625 C 199.41053,-112.80115 199.53534,-114.82128 199.28125,-115.5625 L 200.21875,-115.90625 z M 190.53125,-113.84375 L 191.5,-113.59375 C 190.98577,-111.53684 189.11773,-108.20797 187.71875,-105.65625 C 187.06468,-104.46323 186.58429,-103.51703 186.34375,-102.96875 L 186.6875,-102.625 C 186.50652,-102.44402 186.3532,-102.32198 186.21875,-102.21875 C 186.15152,-102.16714 186.11046,-102.13395 186.03125,-102.09375 C 185.95204,-102.05355 185.84321,-101.98111 185.65625,-102 C 185.46929,-102.01889 185.23798,-102.22196 185.1875,-102.375 C 185.13702,-102.52804 185.14399,-102.63861 185.15625,-102.71875 C 185.18077,-102.87904 185.24651,-102.99439 185.3125,-103.15625 C 185.57645,-103.80368 186.14355,-104.8791 186.84375,-106.15625 C 188.24415,-108.71056 190.09904,-112.1149 190.53125,-113.84375 z M 191.34375,-90.625 L 192.0625,-89.90625 C 191.56352,-89.40727 191.39429,-88.850973 191.40625,-88.15625 C 191.41821,-87.46153 191.62751,-86.657483 191.9375,-85.78125 C 192.55747,-84.0288 193.5625,-82.093343 193.5625,-80.21875 C 193.56249,-80.00383 193.49177,-79.820303 193.4375,-79.53125 C 193.38323,-79.2422 193.32623,-78.889303 193.25,-78.53125 C 193.09753,-77.81515 192.93509,-77.050453 192.875,-76.75 L 191.875,-76.96875 C 191.94235,-77.30549 192.13042,-78.041573 192.28125,-78.75 C 192.35667,-79.10421 192.41725,-79.444433 192.46875,-79.71875 C 192.52025,-79.99307 192.5625,-80.249673 192.5625,-80.21875 C 192.5625,-81.72547 191.6481,-83.605553 191,-85.4375 C 190.67595,-86.35348 190.42151,-87.269853 190.40625,-88.15625 C 190.39099,-89.04265 190.64725,-89.928513 191.34375,-90.625 z M 183.4375,-86.46875 C 183.68874,-86.01774 183.77596,-85.420903 183.875,-84.65625 C 183.97404,-83.8916 184.05368,-82.976953 184.09375,-82 C 184.17389,-80.0461 184.15625,-77.860013 184.15625,-76.1875 L 183.15625,-76.1875 C 183.15625,-77.86348 183.1725,-80.048773 183.09375,-81.96875 C 183.05438,-82.92874 182.99901,-83.815123 182.90625,-84.53125 C 182.81349,-85.24738 182.66384,-85.818083 182.5625,-86 L 183.4375,-86.46875 z M 177.78125,-72.8125 L 178.78125,-72.8125 C 178.78125,-71.99911 179.63578,-70.209503 180.65625,-68.4375 C 181.67672,-66.6655 182.83641,-64.858429 183.4375,-63.65625 C 183.6041,-63.32306 183.59127,-63.014099 183.5625,-62.75 C 183.53373,-62.4859 183.5,-62.242649 183.5,-62.09375 L 182.5,-62.09375 C 182.5,-62.39173 182.5413,-62.649169 182.5625,-62.84375 C 182.5837,-63.03833 182.56451,-63.152229 182.53125,-63.21875 C 181.98666,-64.30792 180.82052,-66.132853 179.78125,-67.9375 C 178.74198,-69.74215 177.78125,-71.454623 177.78125,-72.8125 z M 189.875,-61.5 C 190.10069,-60.02858 189.53388,-58.127029 188.625,-56.21875 C 187.71613,-54.31048 186.43126,-52.399999 185.03125,-51 C 184.86046,-50.82921 184.86846,-50.834459 184.75,-50.71875 C 184.76059,-50.59687 184.74168,-50.527469 184.71875,-50.4375 C 184.67292,-50.25755 184.60045,-50.044629 184.46875,-49.78125 L 184,-50.03125 L 183.96875,-50.03125 C 183.95085,-50.02172 183.87545,-49.968879 183.875,-49.96875 C 183.87478,-49.96869 183.75016,-49.968759 183.75,-49.96875 C 183.74985,-49.96875 183.46885,-50.031199 183.46875,-50.03125 C 183.46866,-50.0313 183.25003,-50.343639 183.25,-50.34375 C 183.24998,-50.34386 183.24997,-50.562329 183.25,-50.5625 C 183.25004,-50.56267 183.28116,-50.656029 183.28125,-50.65625 C 183.28135,-50.65647 183.30572,-50.707069 183.3125,-50.71875 C 183.32608,-50.74211 183.33616,-50.739639 183.34375,-50.75 C 183.37414,-50.79144 183.36229,-50.799119 183.375,-50.8125 C 183.39335,-50.8318 183.4178,-50.856459 183.4375,-50.875 C 183.44058,-50.87731 183.45454,-50.865859 183.46875,-50.875 C 183.47896,-50.88432 183.48899,-50.896649 183.5,-50.90625 C 183.50525,-50.91078 183.55489,-50.961969 183.5625,-50.96875 C 183.65394,-51.05009 183.82219,-51.228429 184.3125,-51.71875 C 185.60645,-53.0127 186.85727,-54.847459 187.71875,-56.65625 C 188.58024,-58.46504 189.04009,-60.267489 188.875,-61.34375 L 189.875,-61.5 z M 176.59375,-57.09375 L 177.3125,-56.375 C 177.45711,-56.51961 177.38848,-56.497749 177.375,-56.4375 C 177.36152,-56.37725 177.32729,-56.296149 177.3125,-56.15625 C 177.28292,-55.87645 177.26789,-55.454379 177.25,-54.96875 C 177.21421,-53.99748 177.20816,-52.694389 177.1875,-51.3125 C 177.14619,-48.54872 177.10076,-45.503829 176.78125,-43.90625 L 175.78125,-44.09375 C 176.05381,-45.45654 176.14625,-48.584069 176.1875,-51.34375 C 176.20813,-52.72359 176.2134,-54.006559 176.25,-55 C 176.2683,-55.49672 176.30954,-55.926419 176.34375,-56.25 C 176.36085,-56.41179 176.37846,-56.532029 176.40625,-56.65625 C 176.43404,-56.78047 176.39685,-56.896849 176.59375,-57.09375 z M 179.28125,-36.96875 L 180,-36.28125 C 179.58281,-35.86406 179.46875,-35.230969 179.46875,-34.4375 C 179.46875,-33.64403 179.59461,-32.756049 179.46875,-31.875 L 178.46875,-32 C 178.56633,-32.68306 178.46875,-33.555139 178.46875,-34.4375 C 178.46875,-35.31986 178.58121,-36.268719 179.28125,-36.96875 z" transform="translate(573.423, 621.934)" id="path3881" sodipodi:nodetypes="csssccccssssssssssssssssssssccssssssssscccssccssccsccsccccsccssssssscccsssssccsssssccssccssccccsssccsssccsscscccsssssssssssssssccccssssccsssscccsccsc"/>
          </g>
          <path sodipodi:nodetypes="czccz" id="path4023" d="M 731.20934,634.12975 C 728.41801,643.7219 738.90578,651.6106 741.29937,634.12975 C 743.73143,616.36799 754.39955,587.33768 758.06744,580.31952 C 745.91881,578.98014 748.71667,559.02351 744.32638,571.90787 C 743.55215,583.40209 734.06701,624.3096 731.20934,634.12975 z" style="opacity: 0.464539; fill: url(&quot;#linearGradient4211&quot;) rgb(0, 0, 0); fill-opacity: 1; fill-rule: evenodd; stroke: none; stroke-width: 0.501745px; stroke-linecap: butt; stroke-linejoin: miter; stroke-opacity: 1;"/>
        </g>
        <path style="opacity: 1; fill: url(&quot;#linearGradient4213&quot;) rgb(0, 0, 0); fill-opacity: 1; fill-rule: evenodd; stroke: none; stroke-width: 0.501745px; stroke-linecap: butt; stroke-linejoin: miter; stroke-opacity: 1;" d="M 731.20934,634.12975 C 728.41801,643.7219 738.90578,651.6106 741.29937,634.12975 C 743.73143,616.36799 756.47328,577.02829 764.17012,570.89887 C 772.07447,564.60419 745.10246,560.38624 744.32638,571.90787 C 743.55215,583.40209 734.06701,624.3096 731.20934,634.12975 z" id="path4003" sodipodi:nodetypes="czzzz"/>
      </g>
      <g transform="matrix(-1, 0, 0, 1, 1485.85, 182.99)" id="g4145">
        <g id="g4147" transform="matrix(0.0549419, 0, -0.0139964, 0.0549419, 765.347, 503.679)">
          <path transform="matrix(0.959711, 0, 0, 0.959711, -23.1905, 125.264)" id="path4149" d="M -387.29474,3109.1055 C -256.39184,3109.1055 -150.16974,3026.55 -150.16974,2924.8243 C -150.16974,2861.7106 -191.08044,2805.9803 -253.38844,2772.7617 C -222.70814,2803.8221 -204.45094,2842.6714 -204.45094,2884.8243 C -204.45094,2986.55 -310.70434,3069.1055 -441.60724,3069.1055 C -491.30444,3069.1055 -537.42074,3057.186 -575.54464,3036.8555 C -532.18664,3080.7654 -463.96824,3109.1056 -387.29474,3109.1055 z" style="opacity: 1; fill: url(&quot;#radialGradient4215&quot;) rgb(0, 0, 0); fill-opacity: 1; stroke: rgb(0, 0, 0); stroke-width: 0.05; stroke-linecap: round; stroke-miterlimit: 4; stroke-dasharray: none; stroke-opacity: 1; filter: url(&quot;#filter22397&quot;);"/>
          <path transform="translate(1074.29, 20)" d="M -1248.5714,2893.7908 A 237.14285,184.28572 0 1 1 -1722.8571,2893.7908 A 237.14285,184.28572 0 1 1 -1248.5714,2893.7908 z" sodipodi:ry="184.28572" sodipodi:rx="237.14285" sodipodi:cy="2893.7908" sodipodi:cx="-1485.7142" id="path4151" style="opacity: 1; fill: url(&quot;#radialGradient4217&quot;) rgb(0, 0, 0); fill-opacity: 1; stroke: none; stroke-width: 0.05; stroke-linecap: round; stroke-miterlimit: 4; stroke-dasharray: none; stroke-opacity: 1;" sodipodi:type="arc"/>
          <path transform="matrix(0.386391, 0, 0, 0.55812, -257.784, 1429.01)" d="M -674.2857,2515.2192 A 64.285713,37.142857 0 1 1 -802.85712,2515.2192 A 64.285713,37.142857 0 1 1 -674.2857,2515.2192 z" sodipodi:ry="37.142857" sodipodi:rx="64.285713" sodipodi:cy="2515.2192" sodipodi:cx="-738.57141" id="path4153" style="opacity: 1; fill: rgb(255, 255, 255); fill-opacity: 1; stroke: none; stroke-width: 0.05; stroke-linecap: round; stroke-miterlimit: 4; stroke-dasharray: none; stroke-opacity: 1; filter: url(&quot;#filter22611&quot;);" sodipodi:type="arc"/>
        </g>
        <g id="g4155" transform="matrix(0.0317215, -0.0128459, 0.00476493, 0.034994, 685.587, 584.797)">
          <path transform="matrix(0.959711, 0, 0, 0.959711, -23.1905, 125.264)" id="path4157" d="M -387.29474,3109.1055 C -256.39184,3109.1055 -150.16974,3026.55 -150.16974,2924.8243 C -150.16974,2861.7106 -191.08044,2805.9803 -253.38844,2772.7617 C -222.70814,2803.8221 -204.45094,2842.6714 -204.45094,2884.8243 C -204.45094,2986.55 -310.70434,3069.1055 -441.60724,3069.1055 C -491.30444,3069.1055 -537.42074,3057.186 -575.54464,3036.8555 C -532.18664,3080.7654 -463.96824,3109.1056 -387.29474,3109.1055 z" style="opacity: 1; fill: url(&quot;#radialGradient4219&quot;) rgb(0, 0, 0); fill-opacity: 1; stroke: rgb(0, 0, 0); stroke-width: 0.05; stroke-linecap: round; stroke-miterlimit: 4; stroke-dasharray: none; stroke-opacity: 1; filter: url(&quot;#filter22397&quot;);"/>
          <path transform="translate(1074.29, 20)" d="M -1248.5714,2893.7908 A 237.14285,184.28572 0 1 1 -1722.8571,2893.7908 A 237.14285,184.28572 0 1 1 -1248.5714,2893.7908 z" sodipodi:ry="184.28572" sodipodi:rx="237.14285" sodipodi:cy="2893.7908" sodipodi:cx="-1485.7142" id="path4159" style="opacity: 1; fill: url(&quot;#radialGradient4221&quot;) rgb(0, 0, 0); fill-opacity: 1; stroke: none; stroke-width: 0.05; stroke-linecap: round; stroke-miterlimit: 4; stroke-dasharray: none; stroke-opacity: 1;" sodipodi:type="arc"/>
          <path transform="matrix(0.386391, 0, 0, 0.55812, -257.784, 1429.01)" d="M -674.2857,2515.2192 A 64.285713,37.142857 0 1 1 -802.85712,2515.2192 A 64.285713,37.142857 0 1 1 -674.2857,2515.2192 z" sodipodi:ry="37.142857" sodipodi:rx="64.285713" sodipodi:cy="2515.2192" sodipodi:cx="-738.57141" id="path4161" style="opacity: 1; fill: rgb(255, 255, 255); fill-opacity: 1; stroke: none; stroke-width: 0.05; stroke-linecap: round; stroke-miterlimit: 4; stroke-dasharray: none; stroke-opacity: 1; filter: url(&quot;#filter22611&quot;);" sodipodi:type="arc"/>
        </g>
      </g>
    </g>
  </g>
</svg>