<?xml version="1.0" encoding="UTF-8" standalone="no"?>
<!-- Created with Inkscape (http://www.inkscape.org/) -->
<svg xmlns:dc="http://purl.org/dc/elements/1.1/" xmlns:cc="http://creativecommons.org/ns#" xmlns:rdf="http://www.w3.org/1999/02/22-rdf-syntax-ns#" xmlns:svg="http://www.w3.org/2000/svg" xmlns="http://www.w3.org/2000/svg" xmlns:xlink="http://www.w3.org/1999/xlink" xmlns:sodipodi="http://sodipodi.sourceforge.net/DTD/sodipodi-0.dtd" xmlns:inkscape="http://www.inkscape.org/namespaces/inkscape" width="150" height="150" id="svg2974" sodipodi:version="0.32" inkscape:version="0.46" sodipodi:docname="printer_on_fire.svg" inkscape:output_extension="org.inkscape.output.svg.inkscape" version="1.0">
  <defs id="defs2976">
    <linearGradient id="linearGradient1731">
      <stop style="stop-color: rgb(96, 96, 96); stop-opacity: 1;" offset="0.0000000" id="stop1732"/>
      <stop style="stop-color: rgb(240, 240, 240); stop-opacity: 1;" offset="1.0000000" id="stop1733"/>
    </linearGradient>
    <linearGradient id="linearGradient1727">
      <stop style="stop-color: rgb(0, 192, 66); stop-opacity: 1;" offset="0.0000000" id="stop1728"/>
      <stop style="stop-color: rgb(108, 255, 73); stop-opacity: 1;" offset="1.0000000" id="stop1729"/>
    </linearGradient>
    <linearGradient id="linearGradient1739">
      <stop style="stop-color: rgb(208, 240, 240); stop-opacity: 1;" offset="0.0000000" id="stop1740"/>
      <stop style="stop-color: rgb(250, 255, 255); stop-opacity: 1;" offset="1.0000000" id="stop1741"/>
    </linearGradient>
    <linearGradient id="linearGradient1696">
      <stop style="stop-color: rgb(215, 212, 213); stop-opacity: 1;" offset="0.0000000" id="stop1697"/>
      <stop style="stop-color: rgb(242, 242, 242); stop-opacity: 1;" offset="1.0000000" id="stop1698"/>
    </linearGradient>
    <linearGradient id="linearGradient14625">
      <stop id="stop14626" offset="0.0000000" style="stop-color: rgb(255, 255, 255); stop-opacity: 1;"/>
      <stop id="stop14627" offset="1" style="stop-color: rgb(255, 255, 255); stop-opacity: 0;"/>
    </linearGradient>
    <linearGradient id="linearGradient26051">
      <stop id="stop26052" offset="0.0000000" style="stop-color: rgb(255, 255, 255); stop-opacity: 0.449275;"/>
      <stop id="stop26053" offset="1" style="stop-color: rgb(255, 255, 255); stop-opacity: 0;"/>
    </linearGradient>
    <linearGradient id="linearGradient29186">
      <stop id="stop29187" offset="0.0000000" style="stop-color: rgb(255, 255, 255); stop-opacity: 1;"/>
      <stop id="stop29188" offset="1" style="stop-color: rgb(255, 255, 255); stop-opacity: 0;"/>
    </linearGradient>
    <linearGradient id="linearGradient17250">
      <stop id="stop17251" offset="0.0000000" style="stop-color: rgb(220, 0, 0); stop-opacity: 1;"/>
      <stop id="stop17252" offset="1.0000000" style="stop-color: rgb(255, 178, 0); stop-opacity: 1;"/>
    </linearGradient>
    <inkscape:perspective sodipodi:type="inkscape:persp3d" inkscape:vp_x="0 : 526.18109 : 1" inkscape:vp_y="0 : 1000 : 0" inkscape:vp_z="744.09448 : 526.18109 : 1" inkscape:persp3d-origin="372.04724 : 350.78739 : 1" id="perspective2982"/>
    <linearGradient inkscape:collect="always" xlink:href="#linearGradient17250" id="linearGradient3124" gradientUnits="userSpaceOnUse" gradientTransform="matrix(0.939411, 0, 0, 1.44618, 1125.51, -315.476)" x1="-1006.61" y1="448.68289" x2="-953.87994" y2="299.88538"/>
    <linearGradient inkscape:collect="always" xlink:href="#linearGradient29186" id="linearGradient3126" gradientUnits="userSpaceOnUse" gradientTransform="matrix(0.805965, 0, 0, 1.24075, 18.001, -263.964)" x1="9.6549549" y1="256.78357" x2="323.10443" y2="500.80176"/>
    <linearGradient inkscape:collect="always" xlink:href="#linearGradient17250" id="linearGradient3128" gradientUnits="userSpaceOnUse" gradientTransform="matrix(0.701579, 0, 0, 1.93643, 1125.51, -315.476)" x1="-1308.2009" y1="330.19891" x2="-1335.0436" y2="272.82257"/>
    <linearGradient inkscape:collect="always" xlink:href="#linearGradient26051" id="linearGradient3130" gradientUnits="userSpaceOnUse" gradientTransform="matrix(0.606945, 0, 0, 1.6476, 0.392598, -250.419)" x1="468.40564" y1="232.90141" x2="502.45129" y2="232.90141"/>
    <linearGradient inkscape:collect="always" xlink:href="#linearGradient17250" id="linearGradient3132" gradientUnits="userSpaceOnUse" gradientTransform="matrix(0.926747, 0, 0, 1.46595, 1125.51, -315.476)" x1="-916.89685" y1="438.47348" x2="-857.95917" y2="362.15622"/>
    <linearGradient inkscape:collect="always" xlink:href="#linearGradient14625" id="linearGradient3134" gradientUnits="userSpaceOnUse" gradientTransform="matrix(0.7951, 0, 0, 1.2577, 24.0962, -278.864)" x1="501.40482" y1="384.39618" x2="317.13544" y2="485.78278"/>
    <linearGradient inkscape:collect="always" xlink:href="#linearGradient26051" id="linearGradient3136" gradientUnits="userSpaceOnUse" gradientTransform="matrix(0.602527, 0, 0, 1.65968, 0.392598, -252.451)" x1="533.78339" y1="294.8653" x2="572.40991" y2="294.8653"/>
    <linearGradient inkscape:collect="always" xlink:href="#linearGradient17250" id="linearGradient3138" gradientUnits="userSpaceOnUse" gradientTransform="matrix(0.796212, 0, 0, 1.70628, 1125.51, -315.476)" x1="-1131.0251" y1="404.58243" x2="-1102.728" y2="306.75836"/>
    <linearGradient inkscape:collect="always" xlink:href="#linearGradient26051" id="linearGradient3140" gradientUnits="userSpaceOnUse" gradientTransform="matrix(0.544121, 0, 0, 1.83783, 0.392598, -250.419)" x1="349.43204" y1="179.97382" x2="390.31766" y2="179.97382"/>
    <linearGradient inkscape:collect="always" xlink:href="#linearGradient14625" id="linearGradient3142" gradientUnits="userSpaceOnUse" gradientTransform="matrix(0.683108, 0, 0, 1.4639, 22.7417, -283.604)" x1="198.88322" y1="246.21246" x2="342.54471" y2="403.09412"/>
    <linearGradient inkscape:collect="always" xlink:href="#linearGradient14625" id="linearGradient3144" gradientUnits="userSpaceOnUse" gradientTransform="matrix(0.601918, 0, 0, 1.66136, 26.2996, -269.454)" x1="110.44791" y1="244.048" x2="239.46423" y2="376.90421"/>
    <linearGradient inkscape:collect="always" xlink:href="#linearGradient1696" id="linearGradient3360" gradientUnits="userSpaceOnUse" gradientTransform="matrix(1.30622, 0, 0, 0.765568, 1.0287, 10.3709)" x1="107.47197" y1="172.93613" x2="80.99366" y2="152.9248"/>
    <linearGradient inkscape:collect="always" xlink:href="#linearGradient1696" id="linearGradient3363" gradientUnits="userSpaceOnUse" gradientTransform="matrix(1.38337, 0, 0, 0.722873, 1.0287, 10.3709)" x1="91.20652" y1="122.64465" x2="76.28244" y2="169.12962"/>
    <linearGradient inkscape:collect="always" xlink:href="#linearGradient1696" id="linearGradient3366" gradientUnits="userSpaceOnUse" gradientTransform="matrix(1.10645, 0, 0, 0.903791, 1.0287, 10.3709)" x1="56.598106" y1="146.75134" x2="75.084007" y2="133.35785"/>
    <linearGradient inkscape:collect="always" xlink:href="#linearGradient1739" id="linearGradient3369" gradientUnits="userSpaceOnUse" gradientTransform="matrix(1.02231, 0, 0, 0.978179, 1.0287, 10.3709)" x1="68.967087" y1="61.385227" x2="48.944408" y2="32.755234"/>
    <linearGradient inkscape:collect="always" xlink:href="#linearGradient1727" id="linearGradient3372" gradientUnits="userSpaceOnUse" gradientTransform="matrix(1.03388, 0, 0, 0.967231, 1.0287, 10.3709)" x1="106.06989" y1="68.346664" x2="103.55814" y2="66.288597"/>
    <linearGradient inkscape:collect="always" xlink:href="#linearGradient1731" id="linearGradient3375" gradientUnits="userSpaceOnUse" gradientTransform="matrix(1.49163, 0, 0, 0.670407, 1.0287, 10.3709)" x1="38.475441" y1="76.877792" x2="50.980556" y2="97.393562"/>
    <linearGradient inkscape:collect="always" xlink:href="#linearGradient1731" id="linearGradient3378" gradientUnits="userSpaceOnUse" gradientTransform="matrix(1.36055, 0, 0, 0.734995, 1.0287, 10.3709)" x1="69.758781" y1="149.86493" x2="49.088371" y2="125.84365"/>
    <linearGradient inkscape:collect="always" xlink:href="#linearGradient1696" id="linearGradient3381" gradientUnits="userSpaceOnUse" gradientTransform="matrix(1.4442, 0, 0, 0.692425, 1.0287, 10.3709)" x1="61.318573" y1="69.988159" x2="43.187496" y2="113.94408"/>
    <linearGradient inkscape:collect="always" xlink:href="#linearGradient1696" id="linearGradient3384" gradientUnits="userSpaceOnUse" gradientTransform="matrix(1.14184, 0, 0, 0.875779, 1.0287, 10.3709)" x1="101.58556" y1="123.73905" x2="68.683929" y2="94.950119"/>
    <linearGradient inkscape:collect="always" xlink:href="#linearGradient1696" id="linearGradient3387" gradientUnits="userSpaceOnUse" gradientTransform="matrix(0.831022, 0, 0, 1.20334, 1.0287, 10.3709)" x1="52.039398" y1="93.432655" x2="38.779137" y2="73.70961"/>
    <clipPath clipPathUnits="userSpaceOnUse" id="clipPath4446">
      <path style="fill: rgb(0, 0, 255); fill-opacity: 1; fill-rule: evenodd; stroke: none; stroke-width: 1; stroke-miterlimit: 4; stroke-opacity: 1; display: inline;" d="M 148.16528,120.1476 C 223.63202,-80.353212 352.37445,112.33778 354.17745,120.05917 C 366.73968,171.3383 369.83693,322.89496 350.46244,344.9974 C 330.44342,341.61493 319.18395,340.17607 301.20234,337.14952 C 281.85927,333.89381 253.40392,330.47878 231.43048,329.86383 C 214.59964,329.3928 199.39209,328.47421 183.2787,326.92229 C 170.20948,325.66356 147.97072,323.44557 129.6305,322.84889 C 121.52319,290.18426 156.27259,152.81223 148.16528,120.1476 z" id="path4448" sodipodi:nodetypes="cccssscc"/>
    </clipPath>
  </defs>
  <sodipodi:namedview id="base" pagecolor="#ffffff" bordercolor="#666666" borderopacity="1.0" gridtolerance="10000" guidetolerance="10" objecttolerance="10" inkscape:pageopacity="0.0" inkscape:pageshadow="2" inkscape:zoom="4.1577879" inkscape:cx="60.416847" inkscape:cy="96.888903" inkscape:document-units="px" inkscape:current-layer="layer1" showgrid="false" inkscape:window-width="1920" inkscape:window-height="1092" inkscape:window-x="0" inkscape:window-y="32" width="524.41px"/>
  <metadata id="metadata2979">
    <rdf:RDF>
      <cc:Work rdf:about="">
        <dc:format>image/svg+xml</dc:format>
        <dc:type rdf:resource="http://purl.org/dc/dcmitype/StillImage"/>
      </cc:Work>
    </rdf:RDF>
  </metadata>
  <g inkscape:groupmode="layer" id="layer11" inkscape:label="Top" style="display: inline;" sodipodi:insensitive="true">
    <path style="fill: url(#linearGradient3381) rgb(0, 0, 0); fill-opacity: 1; fill-rule: evenodd; stroke: none; stroke-width: 1pt; stroke-linecap: butt; stroke-linejoin: miter; stroke-opacity: 1; display: inline;" d="M 19.299186,73.375238 C 23.655996,69.440058 29.277686,65.083248 34.337206,63.537288 C 36.726416,62.834578 86.197276,50.185778 87.602706,50.185778 C 94.348726,50.607408 110.79217,64.942708 111.63542,67.331928 C 106.99753,69.158978 93.786556,70.986028 90.975716,72.110358 C 89.710836,73.234698 73.126856,78.434758 71.159266,79.699638 C 69.191676,80.964518 54.153656,87.991628 53.450946,88.694338 C 51.623896,89.678138 46.704916,92.207898 44.175156,94.456578 C 41.504856,91.505188 21.266776,73.796868 19.299186,73.375238 z" id="path1687" sodipodi:nodetypes="ccccccccc"/>
  </g>
  <g inkscape:groupmode="layer" id="layer12" inkscape:label="Paper In" style="display: inline;" sodipodi:insensitive="true">
    <path style="fill: url(#linearGradient3375) rgb(0, 0, 0); fill-opacity: 1; fill-rule: evenodd; stroke: none; stroke-width: 1pt; stroke-linecap: butt; stroke-linejoin: miter; stroke-opacity: 1; display: inline;" d="M 93.224386,55.666918 C 93.224386,55.666918 97.019026,59.321018 96.035236,60.023728 C 96.035236,61.148068 85.494566,63.396748 84.229686,63.818368 C 82.964806,64.239998 66.099746,70.423858 64.413236,71.126568 C 62.726726,71.829278 51.904976,77.732048 50.499556,78.153678 C 49.094136,78.575308 38.694016,84.056448 37.991296,84.056448 C 37.288586,84.056448 32.650696,79.840188 32.931776,78.715848 C 33.212866,77.591508 34.758826,76.186088 36.023706,75.764458 C 37.288586,75.342828 88.727036,56.088548 89.429746,56.229088 C 90.132466,56.369638 92.240596,55.385838 93.224386,55.666918 z" id="path1689" sodipodi:nodetypes="cccccccccc"/>
  </g>
  <g inkscape:groupmode="layer" id="layer9" inkscape:label="Front" style="display: inline;" sodipodi:insensitive="true">
    <path style="fill: url(#linearGradient3384) rgb(0, 0, 0); fill-opacity: 1; fill-rule: evenodd; stroke: none; stroke-width: 1pt; stroke-linecap: butt; stroke-linejoin: miter; stroke-opacity: 1; display: inline;" d="M 44.357656,93.739148 C 44.357656,93.739148 61.053226,84.445808 63.239546,83.650788 C 65.425866,82.855758 86.096566,73.911708 87.487866,73.712948 C 88.879166,73.514188 110.54364,66.955218 111.93494,67.949008 C 113.32624,68.942788 118.0964,81.265708 118.89143,84.843328 C 119.68645,88.420948 123.06532,97.364998 121.87278,98.955048 C 120.68024,100.54511 64.630846,124.79342 62.842036,125.38969 C 62.318106,125.56433 56.355406,127.15025 54.014416,127.61011 C 53.219386,125.8213 51.512906,119.62575 51.115386,118.23445 C 50.717876,116.84315 48.730306,107.50159 48.134036,105.91154 C 47.537766,104.32148 43.363876,94.732938 44.357656,93.739148 z" id="path1686" sodipodi:nodetypes="ccccccccccc"/>
  </g>
  <g inkscape:groupmode="layer" id="layer10" inkscape:label="Paper Out" style="display: inline;" sodipodi:insensitive="true">
    <path style="fill: url(#linearGradient3378) rgb(0, 0, 0); fill-opacity: 1; fill-rule: evenodd; stroke: none; stroke-width: 1pt; stroke-linecap: butt; stroke-linejoin: miter; stroke-opacity: 1; display: inline;" d="M 60.056426,122.56501 C 58.932086,122.28393 56.402326,124.67315 56.121246,123.40827 C 55.840166,122.14339 53.450946,115.11628 54.153656,113.99194 C 54.856366,112.8676 58.229376,111.04055 60.759136,110.33785 C 63.288896,109.63513 86.056736,101.06206 86.478366,100.35935 C 86.899986,99.656638 106.99753,90.661938 108.54349,90.521388 C 110.08946,90.380848 116.97603,88.132178 117.39765,89.397058 C 117.81928,90.661938 117.95982,96.845788 118.38145,97.829588 C 118.80307,98.813378 61.321306,122.42447 60.056426,122.56501 z" id="path1688"/>
  </g>
  <g inkscape:groupmode="layer" id="layer7" inkscape:label="Side" style="display: inline;" sodipodi:insensitive="true">
    <path style="fill: url(#linearGradient3387) rgb(0, 0, 0); fill-opacity: 1; fill-rule: evenodd; stroke: none; stroke-width: 1pt; stroke-linecap: butt; stroke-linejoin: miter; stroke-opacity: 1; display: inline;" d="M 20.109346,73.514188 C 20.109346,73.514188 24.084476,75.501758 25.674526,77.290568 C 27.264586,79.079378 41.773826,91.402298 43.165116,93.191108 C 44.556416,94.979918 46.742736,99.750078 47.537766,102.13516 C 48.332796,104.52024 49.922846,110.08543 50.121606,112.66926 C 50.320366,115.2531 51.711656,119.42699 52.109176,121.61331 C 52.506686,123.79964 55.090526,128.17228 54.295496,127.97353 C 53.500466,127.77477 36.009876,123.79964 34.419826,123.00461 C 32.829776,122.20958 18.121776,115.45185 17.525506,114.06056 C 16.929236,112.66926 16.134206,101.9364 16.332966,100.14759 C 16.531726,98.358778 16.730476,82.458248 17.127996,80.868188 C 17.525506,79.278138 17.525506,75.104248 18.320536,74.309218 C 19.115556,73.514188 19.314316,71.725378 20.109346,73.514188 z" id="path1063"/>
  </g>
  <g inkscape:groupmode="layer" id="layer6" inkscape:label="Tray" style="display: inline;" sodipodi:insensitive="true">
    <path style="fill: url(#linearGradient3363) rgb(0, 0, 0); fill-opacity: 1; fill-rule: evenodd; stroke: none; stroke-width: 1pt; stroke-linecap: butt; stroke-linejoin: miter; stroke-opacity: 1; display: inline;" d="M 59.213176,116.80278 C 59.213176,116.80278 87.462156,105.13778 88.586496,104.99724 C 89.710836,104.8567 112.19759,94.737658 113.18139,94.737658 C 114.16518,94.737658 120.91121,99.375548 121.75446,99.937718 C 122.59771,100.49989 146.63043,112.30543 146.77097,113.28923 C 146.91152,114.27302 145.08447,114.97574 143.39796,115.95953 C 141.52601,117.31422 134.68434,121.58122 128.35994,124.95423 C 125.83018,125.37586 101.2353,136.75978 99.689336,137.60303 C 98.143366,138.44628 94.910896,140.97604 93.786556,140.41388 C 92.662226,139.85171 77.483666,129.02996 76.218786,128.1867 C 74.953906,127.34345 60.478056,116.10007 59.213176,116.80278 z" id="path1694" sodipodi:nodetypes="ccccccccccc"/>
    <path style="fill: url(#linearGradient3360) rgb(0, 0, 0); fill-opacity: 1; fill-rule: evenodd; stroke: none; stroke-width: 1pt; stroke-linecap: butt; stroke-linejoin: miter; stroke-opacity: 1; display: inline;" d="M 146.88242,114.10195 C 146.88242,114.10195 143.17349,116.23459 141.87536,117.0691 C 140.57724,117.90361 132.88121,122.72522 131.76853,123.18883 C 130.65585,123.65245 117.39642,129.67946 116.28374,130.32853 C 115.17106,130.97759 94.864656,139.60086 93.937426,140.52809 C 93.010196,141.45532 94.215596,145.53515 93.844706,145.72059 C 93.473806,145.90604 98.759036,143.40251 99.500826,142.84617 C 100.24261,142.28983 122.86709,132.46116 124.81428,131.8121 C 126.76147,131.16304 135.6629,127.91772 135.94107,127.825 C 136.21924,127.73228 143.08077,124.85785 143.72983,124.30151 C 144.37889,123.74517 149.29323,120.40714 146.88242,114.10195 z" id="path1695"/>
    <path style="fill: url(#linearGradient3366) rgb(0, 0, 0); fill-opacity: 1; fill-rule: evenodd; stroke: none; stroke-width: 1pt; stroke-linecap: butt; stroke-linejoin: miter; stroke-opacity: 1; display: inline;" d="M 59.353716,117.22441 C 59.353716,117.22441 72.143056,124.53261 72.986316,125.79749 C 73.829566,127.06237 93.224386,139.28954 93.505476,140.55442 C 93.786556,141.8193 94.629816,145.4734 93.646016,145.89502 C 92.662226,146.31665 80.013426,140.69496 78.889086,139.00845 C 77.764746,137.32195 67.926796,128.32725 66.661916,127.48399 C 65.397036,126.64074 59.775346,122.8461 59.353716,121.8623 C 58.932086,120.87851 58.791546,117.5055 59.353716,117.22441 z" id="path1692"/>
  </g>
  <g inkscape:groupmode="layer" id="layer8" inkscape:label="LED" style="display: inline;" sodipodi:insensitive="true">
    <path style="fill: url(#linearGradient3372) rgb(0, 0, 0); fill-opacity: 1; fill-rule: evenodd; stroke: none; stroke-width: 1pt; stroke-linecap: butt; stroke-linejoin: miter; stroke-opacity: 1; display: inline;" d="M 106.29482,74.499578 C 106.29482,74.499578 107.27861,77.310428 108.40295,76.888798 C 109.52729,76.467168 111.63542,75.342828 110.93271,73.796868 C 110.23,72.250908 107.27861,71.548188 106.29482,74.499578 z" id="path1690"/>
  </g>
  <g inkscape:groupmode="layer" id="layer5" inkscape:label="Paper" style="display: inline;" sodipodi:insensitive="true">
    <path style="fill: url(#linearGradient3369) rgb(0, 0, 0); fill-opacity: 1; fill-rule: evenodd; stroke: none; stroke-width: 1pt; stroke-linecap: butt; stroke-linejoin: miter; stroke-opacity: 1; display: inline;" d="M 74.813356,19.407032 C 74.813356,19.407032 53.732026,23.763841 51.904976,23.763841 C 50.077926,23.763841 34.196656,26.996312 32.369616,27.980107 C 30.542566,28.963903 21.969486,31.634205 22.110026,32.336916 C 22.250576,33.039627 28.856056,48.639808 29.277686,50.185778 C 29.699306,51.731738 35.320996,64.239998 35.320996,66.348128 C 35.320996,68.456268 37.569676,82.791568 37.569676,83.353738 C 37.569676,83.915908 45.721126,80.683438 46.845456,79.980728 C 47.969796,79.278018 62.726726,71.688738 64.272696,71.126568 C 65.818656,70.564398 76.921496,66.207588 78.186376,65.926508 C 79.451256,65.645418 87.462156,62.272408 89.008126,62.272408 C 88.867586,61.288608 88.164866,59.883188 88.164866,56.650718 C 87.321616,57.493968 78.186376,28.542276 77.624206,27.417938 C 77.062036,26.293601 74.813356,19.407032 74.813356,19.407032 z" id="path1691" sodipodi:nodetypes="cccccccccccccc"/>
  </g>
  <g inkscape:groupmode="layer" id="layer4" inkscape:label="Outline" style="display: inline;" sodipodi:insensitive="true">
    <path style="fill: rgb(0, 0, 0); fill-opacity: 1; fill-rule: nonzero; stroke: none; stroke-width: 1pt; stroke-linecap: butt; stroke-linejoin: miter; stroke-opacity: 1; display: inline;" d="M 75.178896,18.70832 C 72.199706,20.550685 77.020016,25.159289 76.814826,27.982384 C 81.163316,38.912611 85.179696,51.102548 88.709766,62.316068 C 91.212966,61.662538 85.239046,56.373948 92.529066,56.057268 C 92.265336,55.429698 87.743866,56.882638 88.132106,53.646828 C 84.797076,47.340688 93.706716,53.413548 96.143606,54.694538 C 102.55701,58.821118 109.19894,63.481588 112.96338,70.306128 C 114.15336,74.874508 117.03718,80.161598 118.3762,85.154808 C 119.31872,88.934168 122.32138,96.639518 120.65995,98.378698 C 117.29125,97.470568 119.71873,94.332918 118.24194,90.988358 C 119.18713,85.117228 112.92376,91.256008 109.31494,89.831148 C 101.76192,91.152998 95.302216,95.503408 88.610056,98.910918 C 79.753316,102.69317 70.908586,106.48956 61.794186,109.62498 C 58.377386,111.60126 50.070036,111.81414 53.605756,117.58069 C 53.927186,119.71901 56.136206,127.36094 56.551756,122.03769 C 55.423426,117.9414 52.273316,112.19691 59.086866,111.76204 C 68.168496,108.44352 76.912316,104.89732 85.724576,100.90928 C 91.447186,98.771858 94.344236,96.648408 99.180946,94.590228 C 104.42485,91.415918 109.96485,91.124288 115.62664,89.563158 C 117.8096,89.309158 116.43365,94.651918 117.69445,96.601448 C 116.70987,94.425298 111.06998,93.915218 114.64445,96.289308 C 125.12751,102.51226 135.89724,108.2517 146.61478,114.06272 C 150.04995,112.32122 142.08111,111.22609 141.05176,109.6824 C 134.94259,106.47119 128.9904,102.97447 122.92567,99.681518 C 121.9525,89.265038 118.02536,79.396088 114.09915,69.787138 C 113.11454,66.370158 109.29757,63.182548 106.48101,60.583648 C 101.98217,56.358268 95.385046,52.942388 90.851656,50.029938 C 89.605366,49.045358 86.340046,50.127408 86.391066,48.988508 C 83.822166,42.003878 81.203036,35.037664 78.522226,28.095207 C 78.170196,25.232809 75.800336,20.720264 75.178896,18.70832 z M 75.118136,18.95514 C 69.477616,20.362875 61.135066,21.461561 55.395916,22.785466 C 44.737116,24.428246 33.725476,26.195187 23.983096,31.035736 C 19.219756,31.992901 22.679366,35.662216 23.862686,38.728383 C 28.537266,50.664868 34.746836,62.371948 35.615566,75.394448 C 33.272036,77.087588 30.559486,81.263848 34.412116,77.511768 C 36.201946,72.939198 36.834976,83.935808 34.535626,78.936498 C 29.383316,76.291558 36.422586,84.209918 37.842036,84.318738 C 40.079596,82.631268 44.417546,81.738468 47.211496,80.019898 C 56.999946,74.421448 66.917006,70.202038 77.522736,66.460508 C 83.461986,64.010998 89.505936,62.288348 95.813256,61.103098 C 98.993296,59.586328 93.944596,53.972108 92.043896,55.828588 C 94.412726,57.129378 98.286246,61.234948 92.339296,61.182488 C 82.622616,63.408468 73.507636,67.607058 64.136506,70.923868 C 55.221446,74.397078 47.168386,79.701258 38.330846,83.322158 C 37.589966,81.517408 37.319186,75.954218 36.954396,74.593408 C 35.879816,60.946838 28.737836,49.039228 23.977586,36.45171 C 19.271936,30.494726 30.494666,30.220497 34.118926,27.894998 C 43.938976,24.984845 54.160436,23.691699 64.252796,22.101742 C 67.092166,21.974024 75.212716,20.393259 75.118136,18.95514 z M 33.811386,63.336818 C 28.019796,64.780578 22.589986,69.068418 18.485246,73.232008 C 15.399256,77.015418 16.541466,83.776668 15.700136,88.665938 C 15.387226,97.026588 15.529136,105.435 16.586056,113.74305 C 18.553016,116.22139 24.936806,119.52108 28.806006,121.62178 C 36.947956,125.37362 56.528446,128.06547 53.828586,128.73725 C 58.623646,126.91895 63.655326,123.49771 67.308446,129.10047 C 72.504526,132.34398 75.695716,137.78929 80.772326,141.13106 C 84.343956,142.55922 89.878106,148.11917 93.702836,146.19889 C 87.241756,143.77658 79.232296,139.2438 74.846376,133.54267 C 69.932756,128.97909 63.742706,124.44241 58.634466,120.09776 C 59.818946,122.61499 55.335786,122.43119 56.068666,123.1972 C 55.643196,124.93849 60.271576,122.27039 61.187126,124.29226 C 64.072736,126.25508 55.593006,126.52276 53.881846,127.80098 C 52.340886,126.70223 48.162966,125.78354 44.835496,125.16449 C 35.321596,122.21321 25.829666,119.47042 17.970016,113.28423 C 16.224336,101.16573 16.238046,88.713668 18.210586,76.626828 C 18.283316,69.944088 24.066416,77.919168 26.895786,79.144788 C 33.004916,83.943518 38.882786,89.135718 43.753876,95.213718 C 46.136576,92.789028 51.170546,90.144688 55.080086,88.206568 C 71.611696,79.424808 91.473286,71.145018 110.0184,68.309788 C 112.60633,68.504928 114.14133,66.416188 111.21331,67.423818 C 106.64974,67.946028 102.37609,69.230308 97.763536,70.191718 C 79.227926,74.684848 60.743256,83.823028 44.495056,93.727858 C 45.089976,93.856888 39.569326,88.711798 37.781976,86.806598 C 32.387316,81.653268 26.496336,77.050048 20.501016,72.622758 C 23.824366,68.879988 29.620446,66.303478 33.910866,64.120678 C 34.932116,63.608338 33.543286,63.547898 33.811386,63.336818 z M 109.18005,71.208718 C 107.44862,71.777968 103.17467,76.348478 106.78583,74.917028 C 107.78199,69.651548 113.10204,75.182888 108.46173,76.443708 C 107.35789,72.848078 103.79005,75.646518 107.1342,77.331248 C 110.80301,78.367718 113.79588,72.297268 109.18005,71.208718 z M 44.644786,93.621718 C 41.807936,96.056678 47.877356,101.93433 47.501016,105.60781 C 49.009356,111.46464 51.221886,117.48453 51.250496,123.55114 C 52.505876,122.82088 53.440706,131.15182 54.720476,127.44675 C 53.775996,123.87257 51.109456,119.28439 50.757536,114.71451 C 49.655376,107.81773 47.818426,99.879338 44.644786,93.621718 z M 113.20131,94.035608 C 96.808316,101.22982 79.748366,108.17982 62.919316,114.30226 C 61.123056,115.40916 57.453736,115.94373 57.868066,118.48914 C 57.897136,123.97305 59.998696,119.056 59.862356,118.2592 C 69.469416,123.93386 78.586656,130.36952 87.510466,137.05609 C 91.066216,137.70308 93.425796,143.31239 93.417616,146.2929 C 96.129606,144.76164 92.661056,139.54526 97.121896,139.5932 C 107.4198,134.94912 117.67752,129.7814 127.98476,125.17298 C 134.35845,121.86415 140.76715,118.45396 146.4493,114.10409 C 141.48448,116.52705 137.37537,120.51676 132.16345,122.64406 C 122.67986,127.54267 112.61376,131.21917 102.97134,135.80221 C 99.539216,136.40345 95.506946,140.90174 92.924706,138.82644 C 89.718596,135.81769 86.460196,135.14916 83.133866,132.24179 C 75.708976,126.59676 67.806456,121.6471 59.970336,116.60876 C 72.197416,112.53874 83.995076,107.23685 95.940166,102.40945 C 101.23229,99.928068 108.76503,98.033788 113.90785,95.332518 C 115.42968,95.502728 113.03515,94.166648 113.20131,94.035608 z M 147.45264,112.9903 C 144.06127,114.19854 147.77476,120.38167 145.44539,122.39018 C 138.53536,127.93052 129.40101,129.47802 121.30235,132.66577 C 111.7059,136.25368 102.03206,140.34383 93.482176,146.00633 C 97.663886,143.90769 102.02181,141.93346 106.32679,139.99848 C 115.8816,135.05126 126.15241,131.79505 136.13956,127.93551 C 140.37411,125.24895 147.71952,124.50005 147.64675,118.82581 C 147.86112,117.03844 147.47715,114.79385 147.45264,112.9903 z" id="path1062" sodipodi:nodetypes="cccccccccccccccccccccccccccccccccccccccccccccccccccccccccccccccccccccccccccccccccccccccccccccccccccccccccccccccccc"/>
  </g>
  <g inkscape:label="Flames" inkscape:groupmode="layer" id="layer1" style="display: inline;" sodipodi:insensitive="true">
    <g id="g2958" transform="matrix(0.222221, -0.127707, 0.127707, 0.222221, -40.7292, 32.59)" clip-path="url(#clipPath4446)">
      <path d="M 135.30628,265.02207 C 154.65407,322.19907 185.264,352.52027 240.13085,355.98557 C 300.4844,375.33327 356.50634,335.77147 340.62383,273.68527 C 333.40451,286.96877 328.78415,294.18817 316.3669,297.94217 C 321.27605,263.57817 289.7998,257.80277 305.10476,220.83977 C 315.78937,198.02677 322.14237,170.01577 303.37213,147.20272 C 295.57526,173.19227 286.04576,190.51867 266.98674,209.57767 C 269.00815,177.81267 285.75697,152.11185 275.64992,122.07947 C 277.09379,101.86536 243.8849,102.44291 243.59613,40.645498 C 222.51571,67.212618 213.56375,87.715492 216.74025,128.1437 C 208.94337,160.77503 189.88438,172.61477 193.34965,207.84507 C 190.46192,188.20847 188.44051,171.17087 192.48332,156.73222 C 190.17314,138.82831 187.86295,123.52333 169.95904,110.81732 C 175.44573,133.05284 181.79873,166.5505 163.02849,174.92487 C 157.83058,185.60947 131.84101,222.28367 160.42953,279.74947 C 152.05512,274.84037 143.68069,273.39647 135.30628,265.02207 z" id="path15991" style="fill: url(#linearGradient3124) rgb(0, 0, 0); fill-opacity: 1; fill-rule: evenodd; stroke: rgb(255, 255, 0); stroke-width: 2.15631; stroke-linecap: butt; stroke-linejoin: miter; stroke-miterlimit: 4; stroke-opacity: 0.503817;"/>
      <path d="M 237.3145,53.086958 C 222.32178,72.772158 215.96331,97.911232 217.87462,122.42384 C 219.30286,134.41075 212.92991,145.57032 208.393,156.2783 C 200.05028,172.24017 192.50343,189.67217 194.78468,208.11457 C 194.12665,218.74127 189.40551,208.02697 189.90267,202.68207 C 187.64166,187.64677 186.67469,172.05497 189.75881,157.16069 C 188.20432,142.66706 184.5329,126.95594 172.5645,117.43071 C 176.11852,134.63474 180.73662,154.02491 172.15825,170.46197 C 169.08046,175.96867 162.1959,177.47437 160.75698,184.08687 C 146.31426,209.38737 145.22604,240.93027 156.19116,267.71517 C 158.4731,273.81577 161.4496,279.63947 164.03325,285.61817 C 155.98595,281.02327 147.15479,277.90497 139.377,272.86817 C 150.15069,304.41457 170.63661,335.44907 202.976,347.72597 C 215.69352,353.14017 229.56207,354.14507 242.99843,356.28237 C 272.44888,365.47627 308.99567,359.43527 328.42578,333.80737 C 339.84186,318.98047 343.01325,298.97107 339.127,280.89947 C 333.98445,291.30017 325.07332,299.72947 313.5645,302.39947 C 316.2125,289.04637 312.18098,275.68407 305.28238,264.26267 C 297.83516,252.07577 296.08422,236.67027 302.02743,223.50327 C 311.04485,203.73847 317.86058,179.82067 307.35882,159.25011 C 304.10886,149.75397 301.82102,155.58326 300.1745,162.30933 C 293.30818,183.43067 279.44315,201.39817 263.752,216.80567 C 264.83857,195.25787 272.35659,174.87027 275.55156,153.68834 C 277.3759,142.8976 275.28016,132.06935 273.02104,121.61961 C 271.48321,109.87747 259.24548,103.85408 254.08218,93.798882 C 244.88084,80.425382 241.82048,63.803488 241.28325,47.836958 C 239.96033,49.586958 238.63742,51.336958 237.3145,53.086958 z" id="path29198" style="fill: url(#linearGradient3126) rgb(0, 0, 0); fill-opacity: 1; fill-rule: evenodd; stroke: none; stroke-width: 2.15631; stroke-linecap: butt; stroke-linejoin: miter; stroke-miterlimit: 4; stroke-opacity: 0.503817;"/>
      <path d="M 234.06662,347.32237 C 188.15173,298.80847 180.35486,265.02207 210.67602,232.96827 C 244.75122,172.32597 236.3768,134.20793 211.54234,97.822552 C 234.93294,178.39017 183.82013,230.36927 167.36008,253.75987 C 157.54181,223.43877 165.91621,210.44397 179.48855,173.19227 C 152.92143,202.06957 136.75014,237.01107 146.56843,270.21997 C 164.47235,320.17767 206.63319,331.15107 234.06662,347.32237 z" id="path15990" style="fill: url(#linearGradient3128) rgb(0, 0, 0); fill-opacity: 1; fill-rule: evenodd; stroke: rgb(255, 255, 0); stroke-width: 2.15631; stroke-linecap: butt; stroke-linejoin: miter; stroke-miterlimit: 4; stroke-opacity: 0.503817;"/>
      <path d="M 289.78874,164.02436 C 283.63393,146.12338 288.65653,142.28977 294.04796,134.46933 C 299.60959,132.3032 297.90493,124.75067 300.93982,107.93088 C 305.53497,126.70437 317.87117,135.24037 289.78874,164.02436 z" id="path15994" style="fill: rgb(255, 215, 0); fill-opacity: 1; fill-rule: evenodd; stroke: rgb(255, 255, 0); stroke-width: 2.15631; stroke-linecap: butt; stroke-linejoin: miter; stroke-miterlimit: 4; stroke-opacity: 0.503817;"/>
      <path d="M 296.70508,104.9869 C 294.83368,112.96716 295.67968,121.76195 292.20508,129.20565 C 284.064,135.42502 280.51411,146.98168 284.08392,156.78915 C 285.19226,165.00908 287.76326,166.4272 292.32099,158.92107 C 302.05287,148.90681 311.15848,134.55846 305.61717,120.20932 C 303.11691,112.8905 300.92756,105.46029 298.14258,98.236902 C 297.66341,100.4869 297.18425,102.7369 296.70508,104.9869 z" id="path28563" style="fill: url(#linearGradient3130) rgb(0, 0, 0); fill-opacity: 1; fill-rule: evenodd; stroke: none; stroke-width: 2.15631; stroke-linecap: butt; stroke-linejoin: miter; stroke-miterlimit: 4; stroke-opacity: 0.503817;"/>
      <path d="M 329.36169,273.68527 C 345.2442,258.38027 342.0677,251.73847 340.62383,240.76517 C 336.00347,235.56727 341.77892,228.63667 347.55438,209.57767 C 332.82696,226.61527 315.50058,228.92547 329.36169,273.68527 z" id="path15993" style="fill: rgb(255, 215, 0); fill-opacity: 1; fill-rule: evenodd; stroke: rgb(255, 255, 0); stroke-width: 2.15631; stroke-linecap: butt; stroke-linejoin: miter; stroke-miterlimit: 4; stroke-opacity: 0.503817;"/>
      <path d="M 254.85827,347.32237 C 272.76219,337.21527 277.67132,305.45027 279.98152,270.21997 C 284.31311,236.14477 292.9763,202.06957 350.15334,196.58287 C 326.76272,215.35317 307.70372,238.45497 316.3669,281.48217 C 314.05672,344.14587 267.56428,341.83567 254.85827,347.32237 z" id="path15992" style="fill: url(#linearGradient3132) rgb(0, 0, 0); fill-opacity: 1; fill-rule: evenodd; stroke: rgb(255, 255, 0); stroke-width: 2.15631; stroke-linecap: butt; stroke-linejoin: miter; stroke-miterlimit: 4; stroke-opacity: 0.503817;"/>
      <path d="M 343.565,191.60497 C 319.18377,195.06187 294.05263,209.70957 286.89673,234.58817 C 275.41308,265.68517 281.75874,301.07847 266.09625,330.94877 C 260.14813,333.53377 261.60226,344.62307 268.94806,342.45337 C 290.46452,338.55217 310.88571,323.60437 316.33693,301.66727 C 321.59453,286.43357 318.61329,270.31747 318.05398,254.66997 C 318.7694,231.97657 331.90911,211.51217 349.15875,197.51127 C 352.17831,193.16227 347.14219,191.69937 343.565,191.60497 z" id="path26056" style="fill: url(#linearGradient3134) rgb(0, 0, 0); fill-opacity: 1; fill-rule: evenodd; stroke: none; stroke-width: 2.15631; stroke-linecap: butt; stroke-linejoin: miter; stroke-miterlimit: 4; stroke-opacity: 0.503817;"/>
      <path d="M 343.86133,203.48637 C 334.03636,213.88647 319.78283,223.61947 320.12671,239.60987 C 319.40052,251.06637 323.48022,261.98947 326.01758,272.98637 C 334.54625,264.84787 344.24066,254.24637 341.11656,241.41177 C 341.09434,235.75637 336.83198,230.80927 340.17818,225.29897 C 343.39208,216.57337 346.75407,207.89087 348.98633,198.83017 C 347.278,200.38227 345.56966,201.93437 343.86133,203.48637 z" id="path28562" style="fill: url(#linearGradient3136) rgb(0, 0, 0); fill-opacity: 1; fill-rule: evenodd; stroke: none; stroke-width: 2.15631; stroke-linecap: butt; stroke-linejoin: miter; stroke-miterlimit: 4; stroke-opacity: 0.503817;"/>
      <path d="M 223.6708,323.93177 C 221.36061,296.20957 218.18411,276.28417 253.12564,251.16097 C 312.32408,209.86647 283.15802,185.89827 246.19509,142.87112 C 257.16846,185.60947 239.55331,219.68467 224.53711,242.49777 C 214.71884,256.64767 180.64364,285.52497 223.6708,323.93177 z" id="path15989" style="fill: url(#linearGradient3138) rgb(0, 0, 0); fill-opacity: 1; fill-rule: evenodd; stroke: rgb(255, 255, 0); stroke-width: 2.15631; stroke-linecap: butt; stroke-linejoin: miter; stroke-miterlimit: 4; stroke-opacity: 0.503817;"/>
      <path d="M 201.08933,120.58171 C 217.07777,102.17126 212.9715,94.593212 210.36011,81.917472 C 204.80521,76.074008 210.49139,67.795088 215.04178,45.440968 C 200.48259,65.814958 181.69342,69.203818 201.08933,120.58171 z" id="path15995" style="fill: rgb(255, 215, 0); fill-opacity: 1; fill-rule: evenodd; stroke: rgb(255, 255, 0); stroke-width: 2.15631; stroke-linecap: butt; stroke-linejoin: miter; stroke-miterlimit: 4; stroke-opacity: 0.503817;"/>
      <path d="M 211.20508,41.518148 C 201.89539,53.692378 187.77762,64.926138 188.51758,81.799402 C 188.4173,95.828762 193.94668,108.91783 198.08008,122.08065 C 206.52034,112.44595 215.5002,100.21081 211.74366,86.634512 C 211.76941,81.262952 208.00666,77.092638 207.89822,72.019308 C 209.9551,60.043968 214.21087,48.476238 215.89258,36.393148 C 214.33008,38.101478 212.76758,39.809818 211.20508,41.518148 z" id="path28564" style="fill: url(#linearGradient3140) rgb(0, 0, 0); fill-opacity: 1; fill-rule: evenodd; stroke: none; stroke-width: 2.15631; stroke-linecap: butt; stroke-linejoin: miter; stroke-miterlimit: 4; stroke-opacity: 0.503817;"/>
      <path d="M 245.30425,135.70802 C 251.70933,164.84338 245.11261,195.53647 230.36863,221.13277 C 221.215,238.73007 203.16773,252.20707 201.44801,273.14377 C 198.68951,291.38827 211.83533,306.59517 224.01699,318.38477 C 228.97883,324.62377 224.72588,309.87427 225.40121,306.42157 C 223.4215,288.47287 226.49994,268.33377 240.98371,256.02177 C 257.10885,240.33437 280.10729,229.45987 287.83121,206.91247 C 293.05553,186.99957 279.13453,169.15063 266.99252,155.01068 C 259.66984,146.12535 251.94951,137.60454 244.273,129.02052 C 244.61675,131.24969 244.9605,133.47885 245.30425,135.70802 z" id="path26055" style="fill: url(#linearGradient3142) rgb(0, 0, 0); fill-opacity: 1; fill-rule: evenodd; stroke: none; stroke-width: 2.15631; stroke-linecap: butt; stroke-linejoin: miter; stroke-miterlimit: 4; stroke-opacity: 0.503817;"/>
      <path d="M 216.20594,109.85866 C 216.83981,123.63641 220.757,137.27983 218.96326,151.18697 C 217.38096,183.65387 203.11542,214.18567 183.42132,239.60107 C 179.76789,244.79227 175.87684,249.81037 172.11219,254.92117 C 167.07802,238.14837 169.35064,220.06307 176.13083,204.14647 C 179.70132,195.64177 182.20731,186.81457 183.51844,177.67116 C 164.69749,194.84057 151.41488,218.24487 146.73719,243.29617 C 142.94555,266.46557 151.09633,290.28637 166.46767,307.69917 C 185.79494,330.50057 213.58431,343.31267 240.51844,354.76487 C 225.25628,333.29687 204.01013,313.92577 199.49811,286.80267 C 196.40316,271.05327 202.60484,255.24597 212.94787,243.47077 C 224.78726,227.20477 232.16112,207.85547 236.54154,188.32457 C 242.23046,162.8883 237.6701,135.38488 223.76844,113.32741 C 220.33807,110.8197 214.20849,97.642918 216.20594,109.85866 z" id="path26054" style="fill: url(#linearGradient3144) rgb(0, 0, 0); fill-opacity: 1; fill-rule: evenodd; stroke: none; stroke-width: 2.15631; stroke-linecap: butt; stroke-linejoin: miter; stroke-miterlimit: 4; stroke-opacity: 0.503817;"/>
    </g>
  </g>
</svg>