<svg xmlns="http://www.w3.org/2000/svg" viewBox="33 170 572 640">
<g fill="none" stroke="#000" font-family="ArialMT" font-size="9"><path d="M310.66,399.811 L306,396 M420.085,404.212 L312.005,396.432
M312.005,396.432 c-.184,2.536-1.939,4.684-4.389,5.367
 M307.616,401.799 L309.232,407.598 M456.5,396 L420.38,396
M420.38,396 c0,5.482-.394,10.957-1.179,16.382
 M419.201,412.382 L425.158,413.244 M456.185,405.742 L426.147,403.794
M426.147,403.794 c-.41,6.326-1.32,12.61-2.72,18.794
 M423.428,422.588 L429.299,423.917 M455.239,415.442 L431.36,412.332
M431.36,412.332 c-1.014,7.788-2.753,15.464-5.19,22.929
 M426.169,435.261 L431.892,437.13 M446.783,428.476 L435.051,425.77
M435.051,425.77 c-1.769,7.668-4.217,15.163-7.316,22.396
 M427.734,448.165 L433.267,450.536 M453.667,425.062 L447.761,423.899
M447.761,423.899 c-.603,3.062-1.304,6.103-2.104,9.118
 M445.657,433.018 L451.477,434.56 M441.407,446.391 L435.766,444.291
M435.766,444.291 c-1.564,4.204-3.332,8.329-5.297,12.361
 M430.469,456.652 L441.292,461.926 M448.676,443.896 L442.969,441.979
M442.969,441.979 c-.993,2.958-2.081,5.882-3.265,8.771
 M439.705,450.749 L445.275,453.03 M429.128,471.59 L316.261,402.299
M316.261,402.299 c-3.298,5.372-10.182,7.291-15.784,4.399
 M300.477,406.698 L297.715,412.048 M436.741,470.545 L431.511,467.563
M431.512,467.563 c-1.545,2.71-3.178,5.37-4.896,7.974
 M426.616,475.538 L431.642,478.852 M396.567,492.633 L318.351,409.177
M318.35,409.177 c-7.276,6.821-18.706,6.451-25.526-.826c-3.719-3.968-5.452-9.399-4.718-14.788
 M288.105,393.563 L282.14,392.751 M426.015,486.811 L411.613,475.914
M411.613,475.914 c-9.081,12.001-20.14,22.365-32.704,30.65
 M378.909,506.564 L382.224,511.591 M403.11,494.695 L398.888,490.404
 M412.214,493.944 L407.789,489.863
M407.788,489.863 c-3.041,3.297-6.239,6.445-9.586,9.432
 M398.202,499.295 L406.221,508.277 M419.886,494.389 L415.33,490.453
M415.33,490.453 c-2.04,2.361-4.155,4.655-6.343,6.879
 M408.986,497.332 L413.277,501.555 M391.302,512.611 L387.747,507.752
M387.747,507.752 c-3.62,2.648-7.367,5.119-11.227,7.403
 M376.521,515.155 L382.652,525.517 M398.742,514.529 L395.032,509.788
M395.033,509.788 c-2.457,1.923-4.977,3.765-7.553,5.523
 M387.48,515.312 L390.875,520.283 M266.181,432.741 L292.727,408.247
 M264.506,439.615 L268.655,435.253
M268.655,435.254 c-1.704-1.621-3.3-3.352-4.779-5.181
 M263.876,430.074 L188.989,490.65 M263.589,446.856 L267.444,442.233
M267.445,442.233 c-2.016-1.682-3.921-3.493-5.701-5.423
 M261.744,436.811 L195.36,498.025 M263.495,454.411 L267.037,449.544
M267.037,449.544 c-2.357-1.716-4.599-3.585-6.71-5.596
 M260.327,443.948 L202.196,504.973 M264.31,462.231 L267.517,457.137
M267.517,457.137 c-2.743-1.727-5.366-3.635-7.852-5.714
 M259.665,451.423 L209.468,511.464 M266.184,470.282 L269.028,464.976
M269.028,464.976 c-3.209-1.72-6.294-3.662-9.233-5.812
 M259.795,459.164 L217.144,517.471 M269.401,478.551 L271.841,473.048
M271.841,473.048 c-3.841-1.703-7.549-3.69-11.093-5.946
 M260.749,467.102 L225.193,522.967 M274.551,487.041 L276.517,481.352
M276.517,481.352 c-4.822-1.666-9.495-3.737-13.968-6.192
 M262.549,475.158 L233.582,527.931 M282.87,495.692 L284.231,489.828
M284.231,489.828 c-6.551-1.521-12.924-3.723-19.016-6.569
 M265.215,483.259 L242.273,532.342 M296.962,503.982 L297.464,497.983
M297.465,497.983 c-9.84-.824-19.509-3.067-28.707-6.66
 M268.758,491.323 L251.232,536.182 M314.674,510.051 L314.217,504.048
M314.218,504.048 c-11.507,.875-23.079-.094-34.281-2.869
 M279.937,501.179 L271.249,536.239 M330.921,513.793 L329.676,507.902
M329.675,507.903 c-9.905,2.096-20.046,2.866-30.155,2.293
 M299.521,510.196 L298.498,528.228 M339.872,517.798 L338.259,511.998
M338.259,511.998 c-4.854,1.35-9.788,2.394-14.772,3.126
 M323.485,515.123 L327.856,544.904 M349.163,521.209 L347.201,515.518
M347.201,515.518 c-4.84,1.669-9.776,3.042-14.784,4.111
 M332.418,519.629 L337.449,543.177 M358.468,524.134 L356.187,518.562
M356.187,518.562 c-4.632,1.897-9.368,3.529-14.186,4.891
 M342.001,523.453 L346.91,540.833 M367.178,526.889 L364.629,521.435
M364.629,521.435 c-4.063,1.899-8.218,3.601-12.445,5.096
 M352.184,526.53 L356.199,537.882 M374.108,530.207 L371.385,524.839
M371.384,524.839 c-2.782,1.412-5.608,2.732-8.477,3.962
 M362.907,528.801 L365.278,534.334 M306,534.46 L306,528.44
M306,528.44 c-5.006,0-10.007-.284-14.981-.851
 M291.019,527.59 L288.976,545.534 M313.017,540.31 L312.725,534.297
M312.724,534.297 c-4.479,.218-8.968,.218-13.448,0
 M299.276,534.297 L298.691,546.322 M318.173,546.007 L317.686,540.007
M317.686,540.007 c-3.11,.252-6.227,.404-9.346,.454
 M308.34,540.461 L308.437,546.48 M279.333,544.118 L280.4,538.193
M280.399,538.193 c-6.143-1.105-12.207-2.608-18.155-4.499
 M262.244,533.695 L260.421,539.432 M269.801,542.082 L271.249,536.239
 M187.417,454.978 L289.83,404.042 M186.845,466.521 L192.025,463.454
M192.025,463.454 c-3.279-5.54-6.149-11.311-8.588-17.268
 M183.437,446.187 L172.295,450.749 M185.384,475.538 L190.41,472.224
M190.41,472.224 c-2.469-3.744-4.755-7.606-6.849-11.573
 M183.561,460.65 L172.914,466.272 M183.107,482.877 L188.023,479.402
M188.023,479.402 c-1.801-2.549-3.519-5.153-5.151-7.812
 M182.872,471.59 L177.742,474.74 M168.644,457.511 L174.138,455.051
M174.138,455.05 c-1.275-2.847-2.458-5.734-3.546-8.658
 M170.592,446.391 L164.95,448.491 M170.597,424.934 L288.339,399.773
 M166.343,433.018 L172.162,431.476
M172.162,431.475 c-1.149-4.336-2.087-8.724-2.81-13.15
 M169.352,418.324 L157.468,420.265 M161.849,439.25 L167.614,437.521
M167.615,437.521 c-.897-2.988-1.696-6.005-2.397-9.045
 M165.217,428.476 L159.351,429.828 M156.21,410.6 L282.034,398.336
M282.034,398.336 c-.364-3.732,.149-7.497,1.497-10.996
 M283.531,387.34 L277.914,385.175 M182.059,371.086 L276.49,390.068
M276.49,390.068 c0.672-3.342,1.907-6.546,3.652-9.475
 M280.142,380.593 L274.97,377.512 M174.293,382.085 L180.28,382.717
M180.28,382.718 c0.825-7.81,2.376-15.526,4.633-23.048
 M184.913,359.67 L161.849,352.75 M167.704,389.276 L173.716,389.568
M173.716,389.568 c0.243-5,.77-9.982,1.576-14.922
 M175.293,374.646 L157.469,371.734 M161.52,396 L167.54,396
M167.54,396 c0-4.485,.218-8.968,.653-13.432
 M168.193,382.568 L156.21,381.4 M155.579,400.873 L161.596,400.679
M161.596,400.679 c-.101-3.118-.101-6.239,0-9.357
 M161.596,391.321 L155.579,391.126 M159.351,362.171 L182.815,367.584
 M164.95,343.509 L272.148,383.402
M272.148,383.402 c1.525-4.098,3.781-7.885,6.659-11.176
 M278.807,372.226 L274.275,368.264 M184.624,329.375 L269.06,375.723
M269.059,375.723 c2.937-5.351,7.001-9.999,11.912-13.625
 M280.971,362.098 L277.395,357.255 M176.12,332.711 L181.531,335.348
M181.531,335.348 c1.965-4.032,4.124-7.966,6.471-11.789
 M188.002,323.559 L177.741,317.26 M168.644,334.489 L174.138,336.95
M174.138,336.95 c1.275-2.847,2.642-5.653,4.099-8.412
 M178.237,328.538 L172.913,325.728 M183.107,309.123 L266.674,368.199
M266.674,368.199 c5.972-8.448,14.506-14.748,24.337-17.968
 M291.012,350.231 L289.138,344.511 M196.67,301.546 L265.001,360.58
M265.001,360.58 c13.116-15.182,33.548-21.873,53.103-17.391
 M318.104,343.189 L319.45,337.321 M188.988,301.351 L193.668,305.136
M193.669,305.136 c1.962-2.426,4.002-4.787,6.117-7.081
 M199.786,298.056 L195.361,293.975 M285.958,295.642 L294.21,336.966
M294.211,336.966 c16.877-3.37,34.389,.644,48.113,11.028
 M342.324,347.994 L345.956,343.193 M262.122,290.371 L266.741,301.49
M266.74,301.49 c12.427-5.162,25.751-7.823,39.208-7.83
 M305.948,293.66 L305.945,287.64 M243.632,293.013 L246.75,298.162
M246.75,298.162 c9.855-5.968,20.555-10.413,31.738-13.184
 M278.489,284.978 L269.801,249.918 M215.482,291.226 L227.289,304.892
M227.289,304.892 c10.229-8.837,21.873-15.888,34.443-20.858
 M261.732,284.033 L259.519,278.436 M202.197,287.027 L210.5,295.745
M210.501,295.745 c3.248-3.094,6.644-6.028,10.176-8.792
 M220.677,286.954 L216.967,282.212 M209.468,280.537 L213.329,285.155
M213.329,285.155 c2.394-2.001,4.851-3.924,7.369-5.766
 M220.699,279.389 L217.145,274.53 M248.951,276.477 L251.544,281.91
M251.544,281.91 c5.237-2.5,10.639-4.636,16.17-6.393
 M267.714,275.517 L260.421,252.568 M237.418,275.718 L240.4,280.948
M240.4,280.948 c5.592-3.188,11.409-5.965,17.404-8.307
 M257.804,272.641 L251.232,255.819 M225.193,269.033 L231.659,279.19
M231.658,279.19 c3.784-2.408,7.683-4.631,11.682-6.661
 M243.34,272.53 L240.616,267.162 M233.582,264.069 L236.479,269.346
M236.479,269.346 c2.735-1.501,5.518-2.913,8.344-4.234
 M244.822,265.111 L242.273,259.658 M288.113,258.7 L292.001,288.548
M292.001,288.548 c9.257-1.206,18.631-1.211,27.89-.014
 M319.89,288.534 L320.662,282.564 M279.333,247.881 L281.466,259.731
M281.466,259.731 c4.414-.795,8.865-1.374,13.335-1.737
 M294.801,257.994 L294.314,251.994 M288.976,246.466 L289.657,252.447
M289.657,252.447 c3.1-.353,6.21-.605,9.326-.757
 M298.984,251.69 L298.692,245.678 M313.017,251.69 L311.555,281.754
M311.555,281.755 c6.093,.296,12.152,1.079,18.121,2.342
 M329.675,284.097 L330.921,278.207 M308.438,245.52 L308.34,251.539
M308.34,251.539 c3.119,.051,6.235,.202,9.346,.454
 M317.686,251.993 L318.173,245.993 M327.856,247.096 L323.486,276.876
M323.485,276.876 c4.985,.732,9.919,1.776,14.773,3.126
 M338.259,280.002 L339.872,274.202 M337.449,248.823 L332.418,272.371
M332.418,272.371 c5.007,1.07,9.943,2.443,14.784,4.111
 M347.201,276.482 L349.163,270.792 M346.91,251.167 L342.001,268.547
M342.001,268.547 c4.817,1.361,9.553,2.993,14.187,4.89
 M356.187,273.437 L358.468,267.866 M356.199,254.119 L352.184,265.47
M352.184,265.469 c4.229,1.496,8.382,3.197,12.445,5.096
 M364.629,270.565 L367.178,265.111 M365.278,257.666 L362.907,263.199
M362.907,263.199 c2.868,1.229,5.695,2.55,8.477,3.962
 M371.384,267.161 L374.108,261.793 M383.574,274.112 L341.555,340.135
M341.555,340.135 c3.018,1.92,5.874,4.082,8.542,6.463
 M350.097,346.598 L354.105,342.106 M382.652,266.483 L379.587,271.664
M379.587,271.664 c2.685,1.589,5.317,3.264,7.894,5.024
 M387.48,276.688 L390.875,271.717 M398.742,277.471 L350.517,339.106
M350.517,339.106 c2.458,1.923,4.788,4.003,6.976,6.227
 M357.492,345.333 L361.783,341.111 M406.221,283.723 L358.114,337.616
M358.114,337.616 c2.521,2.251,4.896,4.662,7.104,7.22
 M365.219,344.836 L369.773,340.9 M413.277,290.446 L366.076,336.89
M366.075,336.89 c2.553,2.594,4.935,5.35,7.13,8.252
 M373.205,345.142 L378.005,341.509 M419.886,297.611 L374.331,336.967
M374.331,336.967 c2.548,2.949,4.902,6.06,7.047,9.313
 M381.379,346.279 L386.403,342.964 M426.015,305.189 L382.811,337.881
M382.81,337.881 c2.506,3.312,4.795,6.782,6.854,10.389
 M389.662,348.27 L394.892,345.287 M431.642,313.148 L391.437,339.661
M391.437,339.661 c2.424,3.676,4.608,7.505,6.54,11.463
 M397.976,351.124 L403.386,348.484 M436.741,321.455 L400.134,342.328
M400.134,342.327 c2.3,4.035,4.339,8.213,6.103,12.509
 M406.237,354.836 L411.806,352.55 M441.292,330.074 L408.822,345.896
M408.822,345.896 c2.131,4.372,3.979,8.876,5.537,13.484
 M414.359,359.38 L420.062,357.453 M445.276,338.97 L417.421,350.375
M417.421,350.375 c1.909,4.663,3.523,9.441,4.835,14.306
 M422.255,364.681 L428.068,363.115 M448.676,348.104 L425.848,355.768
M425.848,355.768 c1.629,4.854,2.962,9.801,3.991,14.816
 M429.839,370.584 L435.735,369.374 M451.477,357.44 L434.02,362.067
M434.02,362.067 c1.283,4.839,2.29,9.746,3.017,14.699
 M437.036,376.766 L442.992,375.892 M453.667,366.938 L441.854,369.263
M441.854,369.263 c0.866,4.401,1.519,8.841,1.953,13.305
 M443.807,382.568 L449.799,381.984 M455.239,376.557 L449.27,377.335
M449.27,377.335 c0.402,3.094,.706,6.2,.908,9.313
 M450.177,386.648 L456.184,386.258"/>
<text transform="matrix(1 0 0 1 460 399)">Spirochaetes</text>
<text transform="matrix(.9979 .0647 -.0647 .9979 459.4824 408.9629)">Chlamydias</text>
<text transform="matrix(.9916 .1292 -.1292 .9916 458.3223 418.8691)">Hyperthermophilic bacteria</text>
<text transform="matrix(.9812 .1931 -.1931 .9812 456.5225 428.6816)">Cyanobacteria</text>
<text transform="matrix(.9666 .2562 -.2562 .9666 454.0908 438.3564)">Low-GC Gram-positives</text>
<text transform="matrix(.948 .3182 -.3182 .948 451.04 447.8545)">High-GC Gram-positives</text>
<text transform="matrix(.9254 .3789 -.3789 .9254 447.377 457.1328)">Deinococcus/Thermus</text>
<text transform="matrix(.899 .438 -.438 .899 443.124 466.1553)">Proteobacteria</text>
<text transform="matrix(.8687 .4953 -.4953 .8687 438.2969 474.8857)">Crenarchaeota</text>
<text transform="matrix(.8348 .5505 -.5505 .8348 432.9121 483.2842)">Euryarchaeota</text>
<text transform="matrix(.7974 .6034 -.6034 .7974 426.9961 491.3164)">Haptophytes</text>
<text transform="matrix(.7567 .6537 -.6537 .7567 420.5723 498.9473)">Brown algae</text>
<text transform="matrix(.7128 .7014 -.7014 .7128 413.6689 506.1475)">Diatoms</text>
<text transform="matrix(.6659 .746 -.746 .6659 406.3125 512.8848)">Oomycetes</text>
<text transform="matrix(.6162 .7876 -.7876 .6162 398.5371 519.1328)">Dinoflagellates</text>
<text transform="matrix(.564 .8258 -.8258 .564 390.373 524.8652)">Apicomplexans</text>
<text transform="matrix(.5093 .8606 -.8606 .5093 381.8535 530.0566)">Ciliates</text>
<text transform="matrix(.4525 .8917 -.8917 .4525 373.0166 534.6855)">Eudicots</text>
<text transform="matrix(.3939 .9192 -.9192 .3939 363.8994 538.7324)">Monocots</text>
<text transform="matrix(.3336 .9427 -.9427 .3336 354.5391 542.1807)">Magnoliids</text>
<text transform="matrix(.2718 .9623 -.9623 .2718 344.9736 545.0166)">Star anise</text>
<text transform="matrix(.209 .9779 -.9779 .209 335.2471 547.2266)">Water lilies</text>
<text transform="matrix(.1452 .9894 -.9894 .1452 325.3965 548.8047)">Amborella</text>
<text transform="matrix(.0809 .9967 -.9967 .0809 315.4658 549.7383)">Conifers</text>
<text transform="matrix(.0162 1 -1 .0162 305.4932 550.0283)">Gnetophytes</text>
<text transform="matrix(.0486 -.9988 .9988 .0486 300.2061 576.9326)">Ginkgo</text>
<text transform="matrix(.1131 -.9936 .9936 .1131 288.2812 578.166)">Cycads</text>
<text transform="matrix(.1772 -.9842 .9842 .1772 277.7676 569.7461)">Ferns</text>
<text transform="matrix(.2405 -.9706 .9706 .2405 262.4902 584.0547)">Horsetails</text>
<text transform="matrix(.3028 -.953 .953 .3028 247.9863 588.4688)">Whisk ferns</text>
<text transform="matrix(.3639 -.9314 .9314 .3639 214.9072 637.4023)">Club mosses and relatives</text>
<text transform="matrix(.4234 -.9059 .9059 .4234 226.5723 573.0205)">Hornworts</text>
<text transform="matrix(.4812 -.8766 .8766 .4812 219.6104 559.6182)">Mosses</text>
<text transform="matrix(.5369 -.8436 .8436 .5369 204.3682 561.2754)">Liverworts</text>
<text transform="matrix(.5904 -.8071 .8071 .5904 196.835 550.3145)">Charales</text>
<text transform="matrix(.6414 -.7672 .7672 .6414 170.3984 562.8711)">Coleochaetales</text>
<text transform="matrix(.6897 -.7241 .7241 .6897 166.0898 547.2285)">Chlorophytes</text>
<text transform="matrix(.7351 -.6779 .6779 .7351 165.416 529.7188)">Red Algae</text>
<text transform="matrix(.7775 -.6289 .6289 .7775 146.1699 529.1445)">Glaucophytes</text>
<text transform="matrix(.8166 -.5773 .5773 .8166 137.0703 519.0957)">Kinetoplastids</text>
<text transform="matrix(.8522 -.5232 .5232 .8522 143.9443 499.0098)">Euglenids</text>
<text transform="matrix(.8843 -.4669 .4669 .8843 111.9717 501.8438)">Heteroloboseans</text>
<text transform="matrix(.9127 -.4087 .4087 .9127 120.1299 482.5234)">Parabasalids</text>
<text transform="matrix(.9372 -.3488 .3488 .9372 114.9199 470.3105)">Diplomonads</text>
<text transform="matrix(.9578 -.2874 .2874 .9578 102.8477 460.0859)">Foraminiferans</text>
<text transform="matrix(.9744 -.2248 .2248 .9744 110.8174 444.1035)">Cercozoans</text>
<text transform="matrix(.9869 -.1612 .1612 .9869 106.1396 431.6904)">Radiolarians</text>
<text transform="matrix(.9953 -.097 .097 .9953 96.2861 419.4551)">Amoebozoans</text>
<text transform="matrix(.9995 -.0324 .0324 .9995 110.1997 405.3457)">Club Fungi</text>
<text transform="matrix(.9995 .0324 -.0324 .9995 113.0039 392.748)">Sac Fungi</text>
<text transform="matrix(.9953 .097 -.097 .9953 36.9819 372.793)">Arbuscular Mycorrhizal Fungi</text>
<text transform="matrix(.9869 .1612 -.1612 .9869 80.499 362.2012)">"Zygospore Fungi"</text>
<text transform="matrix(.9744 .2248 -.2248 .9744 117.2637 355.542)">"Chytrids"</text>
<text transform="matrix(.9578 .2874 -.2874 .9578 106.8696 339.3867)">Microsporidia</text>
<text transform="matrix(.9372 .3488 -.3488 .9372 94.0825 320.3389)">Choanoflagellates</text>
<text transform="matrix(.9127 .4087 -.4087 .9127 111.2891 312.0918)">Glass sponges</text>
<text transform="matrix(.8843 .4669 -.4669 .8843 118.0127 300.1309)">Demosponges</text>
<text transform="matrix(.8522 .5232 -.5232 .8522 104.1602 275.6064)">Calcareous sponges</text>
<text transform="matrix(.8166 .5773 -.5773 .8166 141.772 283.5762)">Placozoans</text>
<text transform="matrix(.7775 .6289 -.6289 .7775 145.5068 270.0371)">Ctenophores</text>
<text transform="matrix(.7351 .6779 -.6779 .7351 159.8779 265.335)">Cnidarians</text>
<text transform="matrix(.6897 .7241 -.7241 .6897 169.332 256.874)">Bryozoans</text>
<text transform="matrix(.6414 .7672 -.7672 .6414 179.2651 249.0879)">Flatworms</text>
<text transform="matrix(.5904 .8071 -.8071 .5904 194.9448 249.2637)">Rotifers</text>
<text transform="matrix(.5369 .8436 -.8436 .5369 190.7168 220.4482)">Ribbon worms</text>
<text transform="matrix(.4812 .8766 -.8766 .4812 205.6895 219.4912)">Brachiopods</text>
<text transform="matrix(.4234 .9059 -.9059 .4234 221.5596 222.4268)">Phoronids</text>
<text transform="matrix(.3639 .9314 -.9314 .3639 234.792 221.9814)">Annelids</text>
<text transform="matrix(.3029 .953 -.953 .3029 245.9033 216.7842)">Mollusks</text>
<text transform="matrix(.2405 .9706 -.9706 .2405 253.5391 196.7705)">Arrow worms</text>
<text transform="matrix(.1772 .9842 -.9842 .1772 269.0264 207.5703)">Priapulids</text>
<text transform="matrix(.1131 .9936 -.9936 .1131 280.1699 195.6367)">Kinorhynchs</text>
<text transform="matrix(.0486 .9988 -.9988 .0486 293.3398 197.3809)">Loriciferans</text>
<text transform="matrix(.0162 -1 1 .0162 311.4941 242.0679)">Horsehair worms</text>
<text transform="matrix(.0809 -.9967 .9967 .0809 321.4463 242.7476)">Nematodes</text>
<text transform="matrix(.1452 -.9894 .9894 .1452 331.333 244.0684)">Tardigrades</text>
<text transform="matrix(.209 -.9779 .9779 .209 341.1162 246.0269)">Onychophorans</text>
<text transform="matrix(.2718 -.9623 .9623 .2718 350.75 248.6133)">Chelicerates</text>
<text transform="matrix(.3336 -.9427 .9427 .3336 360.1953 251.8208)">Myriapods</text>
<text transform="matrix(.3939 -.9192 .9192 .3939 369.4131 255.6309)">Crustaceans</text>
<text transform="matrix(.4525 -.8917 .8917 .4525 378.3672 260.0298)">Hexapods</text>
<text transform="matrix(.5093 -.8606 .8606 .5093 387.0176 265.0005)">Echinoderms</text>
<text transform="matrix(.564 -.8258 .8258 .564 395.3271 270.5176)">Hemichordates</text>
<text transform="matrix(.6162 -.7876 .7876 .6162 403.2617 276.563)">Cephalochordates</text>
<text transform="matrix(.6659 -.746 .746 .6659 410.79 283.1094)">Urochordates</text>
<text transform="matrix(.7128 -.7014 .7014 .7128 417.876 290.1294)">Hagfishes</text>
<text transform="matrix(.7567 -.6537 .6537 .7567 424.4951 297.5928)">Lampreys</text>
<text transform="matrix(.7974 -.6034 .6034 .7974 430.6172 305.4692)">Chondrichthyans</text>
<text transform="matrix(.8348 -.5505 .5505 .8348 436.2148 313.7261)">Ray-finned fishes</text>
<text transform="matrix(.8687 -.4953 .4953 .8687 441.2686 322.3276)">Lobe-finned fishes</text>
<text transform="matrix(.899 -.438 .438 .899 445.7529 331.2373)">Lungfishes</text>
<text transform="matrix(.9254 -.3789 .3789 .9254 449.6514 340.4199)">Amphibians</text>
<text transform="matrix(.948 -.3182 .3182 .948 452.9482 349.834)">Mammals</text>
<text transform="matrix(.9666 -.2562 .2562 .9666 455.6289 359.4434)">Turtles</text>
<text transform="matrix(.9812 -.1931 .1931 .9812 457.6816 369.2051)">Lepidosaurs</text>
<text transform="matrix(.9916 -.1292 .1292 .9916 459.0967 379.0801)">Crocodilians</text>
<text transform="matrix(.9979 -.0647 .0647 .9979 459.8711 389.0254)">Birds</text>
</g></svg>
