<?xml version="1.0" encoding="UTF-8"?>
<!-- Created with Inkscape (http://www.inkscape.org/) -->
<svg width="100" height="100" version="1.1" viewBox="0 0 100 100" xmlns="http://www.w3.org/2000/svg">
				<defs>
								<marker id="marker5539" style="overflow:visible" orient="auto-start-reverse" preserveAspectRatio="xMidYMid" viewBox="0 0 5.3244081 6.1553851">
												<path id="path5537" transform="scale(.5)" d="m5.77 0-8.65 5v-10z" style="fill-rule:evenodd;fill:context-stroke;stroke-width:1pt;stroke:context-stroke"/>
								</marker>
								<marker id="marker5431" style="overflow:visible" orient="auto-start-reverse" preserveAspectRatio="xMidYMid" viewBox="0 0 5.3244081 6.1553851">
												<path id="path5429" transform="scale(.5)" d="m5.77 0-8.65 5v-10z" style="fill-rule:evenodd;fill:context-stroke;stroke-width:1pt;stroke:context-stroke"/>
								</marker>
								<marker id="marker5353" style="overflow:visible" orient="auto-start-reverse" preserveAspectRatio="xMidYMid" viewBox="0 0 5.3244081 6.1553851">
												<path id="path5351" transform="scale(.5)" d="m5.77 0-8.65 5v-10z" style="fill-rule:evenodd;fill:context-stroke;stroke-width:1pt;stroke:context-stroke"/>
								</marker>
								<marker id="TriangleStart" style="overflow:visible" orient="auto-start-reverse" preserveAspectRatio="xMidYMid" viewBox="0 0 5.3244081 6.1553851">
												<path id="path135" transform="scale(.5)" d="m5.77 0-8.65 5v-10z" style="fill-rule:evenodd;fill:context-stroke;stroke-width:1pt;stroke:context-stroke"/>
								</marker>
				</defs>
				<path id="repo1_77_" class="st7" d="m7.0637 21.175c0-2.0652 4.5584-3.7306 10.184-3.7306 5.6253 0 10.184 1.6655 10.184 3.7306m-20.367 0v18.586c0 0.49964 0.2748 0.98262 0.75974 1.4156 1.5195 1.3657 5.1727 2.315 9.424 2.315 4.2675 0 7.9045-0.96596 9.424-2.315 0.48494-0.43302 0.75974-0.916 0.75974-1.4156v-18.586" style="fill:#c5a3f5;stroke-miterlimit:10;stroke:#404040"/>
				<path id="path238" class="st5" d="m27.431 21.175c0 2.0652-4.5584 3.7306-10.184 3.7306-5.6253 0-10.184-1.6655-10.184-3.7306 0-2.0652 4.5584-3.7306 10.184-3.7306 5.6253 0 10.184 1.6655 10.184 3.7306z" style="fill:#ffffff;stroke-miterlimit:10;stroke:#404040"/>
				<text transform="matrix(.69238 0 0 .54957 24.134 35.128)" x="74.754715" y="110.79491" style="fill-rule:evenodd;fill:#999999;font-family:roboto;font-size:3.7012px;inline-size:0;paint-order:stroke fill markers;stroke-dashoffset:20.001;stroke-linecap:round;stroke-linejoin:round;stroke-width:.48633;white-space:pre" xml:space="preserve"><tspan x="74.754715" y="110.79491" style="stroke-width:.48633"><tspan x="74.754715" y="110.79491" style="fill:#999999;font-family:roboto;stroke-width:.48633">© René Horn 2023</tspan></tspan><tspan x="74.754715" y="115.42138" style="stroke-width:.48633">optimized with scour</tspan></text>
				<text transform="scale(1.0352 .96595)" x="38.859665" y="55.489399" style="fill-rule:evenodd;fill:#faf3dd;font-family:Impact;font-size:9.675px;paint-order:stroke fill markers;stroke-dashoffset:20.001;stroke-linecap:round;stroke-linejoin:round;stroke:#000000" xml:space="preserve"><tspan x="38.859665" y="55.489399">clone</tspan></text>
				<ellipse cx="16.741" cy="31.566" rx="1.7736" ry="1.7741" style="fill-rule:evenodd;fill:#000000;paint-order:stroke fill markers;stroke-dashoffset:20.001;stroke-linecap:round;stroke-linejoin:round;stroke-width:.3;stroke:#000000"/>
				<text transform="scale(1.2705 .78711)" x="5.1818056" y="107.60989" style="fill-rule:evenodd;fill:#000000;font-family:roboto;font-size:3.575px;paint-order:stroke fill markers;stroke-dashoffset:20.001;stroke-linecap:round;stroke-linejoin:round;stroke-width:.3;stroke:#000000" xml:space="preserve"><tspan x="5.1818056" y="107.60989" style="fill:#000000;stroke-width:.3">fix-foo</tspan></text>
				<text transform="scale(1.2705 .78711)" x="5.155622" y="113.26347" style="fill-rule:evenodd;fill:#000000;font-family:roboto;font-size:3.575px;paint-order:stroke fill markers;stroke-dashoffset:20.001;stroke-linecap:round;stroke-linejoin:round;stroke-width:.3;stroke:#000000" xml:space="preserve"><tspan x="5.155622" y="113.26347" style="fill:#000000;stroke-width:.3">feature-bar</tspan></text>
				<text transform="scale(1.2705 .78711)" x="5.0002666" y="118.55309" style="fill-rule:evenodd;fill:#000000;font-family:roboto;font-size:3.575px;paint-order:stroke fill markers;stroke-dashoffset:20.001;stroke-linecap:round;stroke-linejoin:round;stroke-width:.3;stroke:#000000" xml:space="preserve"><tspan x="5.0002666" y="118.55309" style="fill:#000000;stroke-width:.3">update-docu</tspan></text>
				<text transform="scale(1.2705 .78711)" x="5.0910358" y="124.49992" style="fill-rule:evenodd;fill:#000000;font-family:roboto;font-size:3.575px;paint-order:stroke fill markers;stroke-dashoffset:20.001;stroke-linecap:round;stroke-linejoin:round;stroke-width:.3;stroke:#000000" xml:space="preserve"><tspan x="5.0910358" y="124.49992" style="fill:#000000;stroke-width:.3">automation</tspan></text>
				<text transform="scale(1.2705 .78711)" x="5.0037575" y="101.7835" style="fill-rule:evenodd;fill:#000000;font-family:roboto;font-size:3.575px;paint-order:stroke fill markers;stroke-dashoffset:20.001;stroke-linecap:round;stroke-linejoin:round;stroke-width:.3;stroke:#000000" xml:space="preserve"><tspan x="5.0037575" y="101.7835" style="fill:#000000;stroke-width:.3">master</tspan></text>
				<circle id="path2233" cx="3.1075" cy="83.764" r="1.573" style="fill-rule:evenodd;fill:#ff0000;paint-order:stroke fill markers;stroke-dashoffset:20.001;stroke-linecap:round;stroke-linejoin:round;stroke-width:.3;stroke:#000000"/>
				<circle cx="3.1075" cy="88.165" r="1.573" style="fill-rule:evenodd;fill:#ffff00;paint-order:stroke fill markers;stroke-dashoffset:20.001;stroke-linecap:round;stroke-linejoin:round;stroke-width:.3;stroke:#000000"/>
				<circle cx="3.1075" cy="92.566" r="1.573" style="fill-rule:evenodd;fill:#008000;paint-order:stroke fill markers;stroke-dashoffset:20.001;stroke-linecap:round;stroke-linejoin:round;stroke-width:.3;stroke:#000000"/>
				<circle cx="3.1075" cy="96.967" r="1.573" style="fill-rule:evenodd;fill:#0000ff;paint-order:stroke fill markers;stroke-dashoffset:20.001;stroke-linecap:round;stroke-linejoin:round;stroke-width:.3;stroke:#000000"/>
				<circle cx="3.1075" cy="79.364" r="1.573" style="fill-rule:evenodd;fill:#000000;paint-order:stroke fill markers;stroke-dashoffset:20.001;stroke-linecap:round;stroke-linejoin:round;stroke-width:.3;stroke:#000000"/>
				<text transform="scale(1.2705 .78711)" x="0.91802222" y="96.469368" style="fill-rule:evenodd;fill:#000000;font-family:roboto;font-size:3.575px;paint-order:stroke fill markers;stroke-dashoffset:20.001;stroke-linecap:round;stroke-linejoin:round;stroke-width:.3;stroke:#000000" xml:space="preserve"><tspan x="0.91802222" y="96.469368" style="fill:#000000;stroke-width:.3">BRANCHES</tspan></text>
				<g transform="matrix(1.1275 0 0 1.1278 -.88198 -.9591)" style="stroke-width:.88677">
								<g style="stroke-width:.88677">
												<path id="path1115" class="st7" d="m37.707 66.555c0-1.8311 4.0429-3.3077 9.032-3.3077s9.032 1.4767 9.032 3.3077m-18.064 0v4.1199c0 0.443 0.24372 0.87124 0.67381 1.2552 1.3476 1.2109 4.5877 2.0526 8.3581 2.0526 3.7848 0 7.0105-0.85647 8.3581-2.0526 0.43009-0.38393 0.67381-0.81217 0.67381-1.2552v-4.1199" style="fill:#c5a3f5;stroke-miterlimit:10;stroke-width:.88677;stroke:#404040"/>
												<path id="path1117" class="st34" d="m55.771 66.555c0 1.8311-4.0429 3.3077-9.032 3.3077s-9.032-1.4767-9.032-3.3077c0-1.8311 4.0429-3.3077 9.032-3.3077s9.032 1.4767 9.032 3.3077z" style="fill:#c5a3f5;stroke-miterlimit:10;stroke-width:.88677;stroke:#6693ed"/>
												<path id="path1119" class="st7" d="m37.707 62.435c0-1.8311 4.0429-3.3077 9.032-3.3077s9.032 1.4767 9.032 3.3077m-18.064 0v4.1199c0 0.443 0.24372 0.87124 0.67381 1.2552 1.3476 1.2109 4.5877 2.0526 8.3581 2.0526 3.7848 0 7.0105-0.85647 8.3581-2.0526 0.43009-0.38394 0.67381-0.81217 0.67381-1.2552v-4.1199" style="fill:#c5a3f5;stroke-miterlimit:10;stroke-width:.88677;stroke:#404040"/>
												<path id="path1121" class="st34" d="m55.771 62.435c0 1.8311-4.0429 3.3077-9.032 3.3077s-9.032-1.4767-9.032-3.3077 4.0429-3.3077 9.032-3.3077 9.032 1.4767 9.032 3.3077z" style="fill:#c5a3f5;stroke-miterlimit:10;stroke-width:.88677;stroke:#6693ed"/>
												<path id="path1123" class="st7" d="m37.707 58.316c0-1.8311 4.0429-3.3077 9.032-3.3077s9.032 1.4767 9.032 3.3077m-18.064 0v4.1199c0 0.443 0.24372 0.87124 0.67381 1.2552 1.3476 1.2109 4.5877 2.0526 8.3581 2.0526 3.7848 0 7.0105-0.85647 8.3581-2.0526 0.43009-0.38394 0.67381-0.81217 0.67381-1.2552v-4.1199" style="fill:#c5a3f5;stroke-miterlimit:10;stroke-width:.88677;stroke:#404040"/>
												<path id="path1125" class="st34" d="m55.771 58.316c0 1.8311-4.0429 3.3077-9.032 3.3077s-9.032-1.4767-9.032-3.3077 4.0429-3.3077 9.032-3.3077 9.032 1.4767 9.032 3.3077z" style="fill:#c5a3f5;stroke-miterlimit:10;stroke-width:.88677;stroke:#6693ed"/>
												<path id="path1127" class="st7" d="m37.707 54.196c0-1.8311 4.0429-3.3077 9.032-3.3077s9.032 1.4767 9.032 3.3077m-18.064 0v4.1199c0 0.443 0.24372 0.87124 0.67381 1.2552 1.3476 1.2109 4.5877 2.0526 8.3581 2.0526 3.7848 0 7.0105-0.85647 8.3581-2.0526 0.43009-0.38394 0.67381-0.81217 0.67381-1.2552v-4.1199" style="fill:#c5a3f5;stroke-miterlimit:10;stroke-width:.88677;stroke:#404040"/>
												<path id="path1129" class="st5" d="m55.771 54.196c0 1.8311-4.0429 3.3077-9.032 3.3077s-9.032-1.4767-9.032-3.3077c0-1.8311 4.0429-3.3077 9.032-3.3077s9.032 1.4767 9.032 3.3077z" style="fill:#c5a3f5;stroke-miterlimit:10;stroke-width:.88677;stroke:#404040"/>
												<path id="path1131" class="st7" d="m37.707 66.555c0-1.8311 4.0429-3.3077 9.032-3.3077s9.032 1.4767 9.032 3.3077m-18.064 0v4.1199c0 0.443 0.24372 0.87124 0.67381 1.2552 1.3476 1.2109 4.5877 2.0526 8.3581 2.0526 3.7848 0 7.0105-0.85647 8.3581-2.0526 0.43009-0.38393 0.67381-0.81217 0.67381-1.2552v-4.1199" style="fill:#c5a3f5;stroke-miterlimit:10;stroke-width:.88677;stroke:#404040"/>
												<path id="path1133" class="st34" d="m55.771 66.555c0 1.8311-4.0429 3.3077-9.032 3.3077s-9.032-1.4767-9.032-3.3077c0-1.8311 4.0429-3.3077 9.032-3.3077s9.032 1.4767 9.032 3.3077z" style="fill:#c5a3f5;stroke-miterlimit:10;stroke-width:.88677;stroke:#6693ed"/>
												<path id="path1135" class="st7" d="m37.707 62.435c0-1.8311 4.0429-3.3077 9.032-3.3077s9.032 1.4767 9.032 3.3077m-18.064 0v4.1199c0 0.443 0.24372 0.87124 0.67381 1.2552 1.3476 1.2109 4.5877 2.0526 8.3581 2.0526 3.7848 0 7.0105-0.85647 8.3581-2.0526 0.43009-0.38394 0.67381-0.81217 0.67381-1.2552v-4.1199" style="fill:#c5a3f5;stroke-miterlimit:10;stroke-width:.88677;stroke:#404040"/>
												<path id="path1137" class="st34" d="m55.771 62.435c0 1.8311-4.0429 3.3077-9.032 3.3077s-9.032-1.4767-9.032-3.3077 4.0429-3.3077 9.032-3.3077 9.032 1.4767 9.032 3.3077z" style="fill:#c5a3f5;stroke-miterlimit:10;stroke-width:.88677;stroke:#6693ed"/>
												<path id="path1139" class="st7" d="m37.707 58.316c0-1.8311 4.0429-3.3077 9.032-3.3077s9.032 1.4767 9.032 3.3077m-18.064 0v4.1199c0 0.443 0.24372 0.87124 0.67381 1.2552 1.3476 1.2109 4.5877 2.0526 8.3581 2.0526 3.7848 0 7.0105-0.85647 8.3581-2.0526 0.43009-0.38394 0.67381-0.81217 0.67381-1.2552v-4.1199" style="fill:#c5a3f5;stroke-miterlimit:10;stroke-width:.88677;stroke:#404040"/>
												<path id="path1141" class="st34" d="m55.771 58.316c0 1.8311-4.0429 3.3077-9.032 3.3077s-9.032-1.4767-9.032-3.3077 4.0429-3.3077 9.032-3.3077 9.032 1.4767 9.032 3.3077z" style="fill:#c5a3f5;stroke-miterlimit:10;stroke-width:.88677;stroke:#6693ed"/>
												<path id="path1143" class="st7" d="m37.707 54.196c0-1.8311 4.0429-3.3077 9.032-3.3077s9.032 1.4767 9.032 3.3077m-18.064 0v4.1199c0 0.443 0.24372 0.87124 0.67381 1.2552 1.3476 1.2109 4.5877 2.0526 8.3581 2.0526 3.7848 0 7.0105-0.85647 8.3581-2.0526 0.43009-0.38394 0.67381-0.81217 0.67381-1.2552v-4.1199" style="fill:#c5a3f5;stroke-miterlimit:10;stroke-width:.88677;stroke:#404040"/>
												<path id="path1145" class="st5" d="m55.771 54.196c0 1.8311-4.0429 3.3077-9.032 3.3077s-9.032-1.4767-9.032-3.3077c0-1.8311 4.0429-3.3077 9.032-3.3077s9.032 1.4767 9.032 3.3077z" style="fill:#c5a3f5;stroke-miterlimit:10;stroke-width:.88677;stroke:#404040"/>
								</g>
								<g transform="translate(.51757)" style="stroke-width:.88677">
												<circle cx="46.222" cy="59.431" r="1.573" style="fill-rule:evenodd;fill:#ff0000;paint-order:stroke fill markers;stroke-dashoffset:20.001;stroke-linecap:round;stroke-linejoin:round;stroke-width:.26603;stroke:#000000"/>
												<circle cx="46.222" cy="63.701" r="1.573" style="fill-rule:evenodd;fill:#ffff00;paint-order:stroke fill markers;stroke-dashoffset:20.001;stroke-linecap:round;stroke-linejoin:round;stroke-width:.26603;stroke:#000000"/>
												<circle cx="46.222" cy="67.971" r="1.573" style="fill-rule:evenodd;fill:#008000;paint-order:stroke fill markers;stroke-dashoffset:20.001;stroke-linecap:round;stroke-linejoin:round;stroke-width:.26603;stroke:#000000"/>
												<circle cx="46.222" cy="72.081" r="1.573" style="fill-rule:evenodd;fill:#0000ff;paint-order:stroke fill markers;stroke-dashoffset:20.001;stroke-linecap:round;stroke-linejoin:round;stroke-width:.26603;stroke:#000000"/>
								</g>
				</g>
				<g transform="matrix(1.1275 0 0 1.1278 -.31971 -.9591)" style="stroke-width:.88677">
								<path id="path3248" d="m30.297 23.344h27.542" style="fill:none;marker-start:url(#TriangleStart);stroke-width:.88677px;stroke:#000000"/>
								<path id="path3250" d="m30.297 27.584h27.542" style="fill:none;marker-start:url(#marker5353);stroke-width:.88677px;stroke:#000000"/>
								<path id="path3252" d="m30.297 31.825h27.542" style="fill:none;marker-start:url(#marker5431);stroke-width:.88677px;stroke:#000000"/>
								<path id="path3254" d="m30.297 36.066h27.542" style="fill:none;marker-start:url(#marker5539);stroke-width:.88677px;stroke:#000000"/>
				</g>
				<text transform="matrix(1.2702 -.017173 .010637 .78715 0 0)" x="28.283447" y="30.158848" style="fill-rule:evenodd;fill:#0000ff;font-family:roboto;font-size:4.0313px;paint-order:stroke fill markers;stroke-dashoffset:20.001;stroke-linecap:round;stroke-linejoin:round;stroke-width:.3;stroke:#000000" xml:space="preserve"><tspan x="28.283447" y="30.158848" style="fill:#0000ff;stroke-width:.3">pull request</tspan><tspan x="28.283447" y="35.197979" style="fill:#0000ff;stroke-width:.3"/></text>
				<text transform="scale(1.0352 .96595)" x="71.636223" y="15.415105" style="fill-rule:evenodd;fill:#faf3dd;font-family:Impact;font-size:9.675px;paint-order:stroke fill markers;stroke-dashoffset:20.001;stroke-linecap:round;stroke-linejoin:round;stroke:#000000" xml:space="preserve"><tspan x="71.636223" y="15.415105">fork</tspan></text>
				<g transform="matrix(1.1275 0 0 1.1278 29.695 -39.949)" style="stroke-width:.88677">
								<g style="stroke-width:.88677">
												<path id="path5797" class="st7" d="m37.707 66.555c0-1.8311 4.0429-3.3077 9.032-3.3077s9.032 1.4767 9.032 3.3077m-18.064 0v4.1199c0 0.443 0.24372 0.87124 0.67381 1.2552 1.3476 1.2109 4.5877 2.0526 8.3581 2.0526 3.7848 0 7.0105-0.85647 8.3581-2.0526 0.43009-0.38393 0.67381-0.81217 0.67381-1.2552v-4.1199" style="fill:#c5a3f5;stroke-miterlimit:10;stroke-width:.88677;stroke:#404040"/>
												<path id="path5799" class="st34" d="m55.771 66.555c0 1.8311-4.0429 3.3077-9.032 3.3077s-9.032-1.4767-9.032-3.3077c0-1.8311 4.0429-3.3077 9.032-3.3077s9.032 1.4767 9.032 3.3077z" style="fill:#c5a3f5;stroke-miterlimit:10;stroke-width:.88677;stroke:#6693ed"/>
												<path id="path5801" class="st7" d="m37.707 62.435c0-1.8311 4.0429-3.3077 9.032-3.3077s9.032 1.4767 9.032 3.3077m-18.064 0v4.1199c0 0.443 0.24372 0.87124 0.67381 1.2552 1.3476 1.2109 4.5877 2.0526 8.3581 2.0526 3.7848 0 7.0105-0.85647 8.3581-2.0526 0.43009-0.38394 0.67381-0.81217 0.67381-1.2552v-4.1199" style="fill:#c5a3f5;stroke-miterlimit:10;stroke-width:.88677;stroke:#404040"/>
												<path id="path5803" class="st34" d="m55.771 62.435c0 1.8311-4.0429 3.3077-9.032 3.3077s-9.032-1.4767-9.032-3.3077 4.0429-3.3077 9.032-3.3077 9.032 1.4767 9.032 3.3077z" style="fill:#c5a3f5;stroke-miterlimit:10;stroke-width:.88677;stroke:#6693ed"/>
												<path id="path5805" class="st7" d="m37.707 58.316c0-1.8311 4.0429-3.3077 9.032-3.3077s9.032 1.4767 9.032 3.3077m-18.064 0v4.1199c0 0.443 0.24372 0.87124 0.67381 1.2552 1.3476 1.2109 4.5877 2.0526 8.3581 2.0526 3.7848 0 7.0105-0.85647 8.3581-2.0526 0.43009-0.38394 0.67381-0.81217 0.67381-1.2552v-4.1199" style="fill:#c5a3f5;stroke-miterlimit:10;stroke-width:.88677;stroke:#404040"/>
												<path id="path5807" class="st34" d="m55.771 58.316c0 1.8311-4.0429 3.3077-9.032 3.3077s-9.032-1.4767-9.032-3.3077 4.0429-3.3077 9.032-3.3077 9.032 1.4767 9.032 3.3077z" style="fill:#c5a3f5;stroke-miterlimit:10;stroke-width:.88677;stroke:#6693ed"/>
												<path id="path5809" class="st7" d="m37.707 54.196c0-1.8311 4.0429-3.3077 9.032-3.3077s9.032 1.4767 9.032 3.3077m-18.064 0v4.1199c0 0.443 0.24372 0.87124 0.67381 1.2552 1.3476 1.2109 4.5877 2.0526 8.3581 2.0526 3.7848 0 7.0105-0.85647 8.3581-2.0526 0.43009-0.38394 0.67381-0.81217 0.67381-1.2552v-4.1199" style="fill:#c5a3f5;stroke-miterlimit:10;stroke-width:.88677;stroke:#404040"/>
												<path id="path5811" class="st5" d="m55.771 54.196c0 1.8311-4.0429 3.3077-9.032 3.3077s-9.032-1.4767-9.032-3.3077c0-1.8311 4.0429-3.3077 9.032-3.3077s9.032 1.4767 9.032 3.3077z" style="fill:#c5a3f5;stroke-miterlimit:10;stroke-width:.88677;stroke:#404040"/>
												<path id="path5813" class="st7" d="m37.707 66.555c0-1.8311 4.0429-3.3077 9.032-3.3077s9.032 1.4767 9.032 3.3077m-18.064 0v4.1199c0 0.443 0.24372 0.87124 0.67381 1.2552 1.3476 1.2109 4.5877 2.0526 8.3581 2.0526 3.7848 0 7.0105-0.85647 8.3581-2.0526 0.43009-0.38393 0.67381-0.81217 0.67381-1.2552v-4.1199" style="fill:#c5a3f5;stroke-miterlimit:10;stroke-width:.88677;stroke:#404040"/>
												<path id="path5815" class="st34" d="m55.771 66.555c0 1.8311-4.0429 3.3077-9.032 3.3077s-9.032-1.4767-9.032-3.3077c0-1.8311 4.0429-3.3077 9.032-3.3077s9.032 1.4767 9.032 3.3077z" style="fill:#c5a3f5;stroke-miterlimit:10;stroke-width:.88677;stroke:#6693ed"/>
												<path id="path5817" class="st7" d="m37.707 62.435c0-1.8311 4.0429-3.3077 9.032-3.3077s9.032 1.4767 9.032 3.3077m-18.064 0v4.1199c0 0.443 0.24372 0.87124 0.67381 1.2552 1.3476 1.2109 4.5877 2.0526 8.3581 2.0526 3.7848 0 7.0105-0.85647 8.3581-2.0526 0.43009-0.38394 0.67381-0.81217 0.67381-1.2552v-4.1199" style="fill:#c5a3f5;stroke-miterlimit:10;stroke-width:.88677;stroke:#404040"/>
												<path id="path5819" class="st34" d="m55.771 62.435c0 1.8311-4.0429 3.3077-9.032 3.3077s-9.032-1.4767-9.032-3.3077 4.0429-3.3077 9.032-3.3077 9.032 1.4767 9.032 3.3077z" style="fill:#c5a3f5;stroke-miterlimit:10;stroke-width:.88677;stroke:#6693ed"/>
												<path id="path5821" class="st7" d="m37.707 58.316c0-1.8311 4.0429-3.3077 9.032-3.3077s9.032 1.4767 9.032 3.3077m-18.064 0v4.1199c0 0.443 0.24372 0.87124 0.67381 1.2552 1.3476 1.2109 4.5877 2.0526 8.3581 2.0526 3.7848 0 7.0105-0.85647 8.3581-2.0526 0.43009-0.38394 0.67381-0.81217 0.67381-1.2552v-4.1199" style="fill:#c5a3f5;stroke-miterlimit:10;stroke-width:.88677;stroke:#404040"/>
												<path id="path5823" class="st34" d="m55.771 58.316c0 1.8311-4.0429 3.3077-9.032 3.3077s-9.032-1.4767-9.032-3.3077 4.0429-3.3077 9.032-3.3077 9.032 1.4767 9.032 3.3077z" style="fill:#c5a3f5;stroke-miterlimit:10;stroke-width:.88677;stroke:#6693ed"/>
												<path id="path5825" class="st7" d="m37.707 54.196c0-1.8311 4.0429-3.3077 9.032-3.3077s9.032 1.4767 9.032 3.3077m-18.064 0v4.1199c0 0.443 0.24372 0.87124 0.67381 1.2552 1.3476 1.2109 4.5877 2.0526 8.3581 2.0526 3.7848 0 7.0105-0.85647 8.3581-2.0526 0.43009-0.38394 0.67381-0.81217 0.67381-1.2552v-4.1199" style="fill:#c5a3f5;stroke-miterlimit:10;stroke-width:.88677;stroke:#404040"/>
												<path id="path5827" class="st5" d="m55.771 54.196c0 1.8311-4.0429 3.3077-9.032 3.3077s-9.032-1.4767-9.032-3.3077c0-1.8311 4.0429-3.3077 9.032-3.3077s9.032 1.4767 9.032 3.3077z" style="fill:#c5a3f5;stroke-miterlimit:10;stroke-width:.88677;stroke:#404040"/>
								</g>
								<g transform="translate(.51757)" style="stroke-width:.88677">
												<circle cx="46.222" cy="59.431" r="1.573" style="fill-rule:evenodd;fill:#ff0000;paint-order:stroke fill markers;stroke-dashoffset:20.001;stroke-linecap:round;stroke-linejoin:round;stroke-width:.26603;stroke:#000000"/>
												<circle cx="46.222" cy="63.701" r="1.573" style="fill-rule:evenodd;fill:#ffff00;paint-order:stroke fill markers;stroke-dashoffset:20.001;stroke-linecap:round;stroke-linejoin:round;stroke-width:.26603;stroke:#000000"/>
												<circle cx="46.222" cy="67.971" r="1.573" style="fill-rule:evenodd;fill:#008000;paint-order:stroke fill markers;stroke-dashoffset:20.001;stroke-linecap:round;stroke-linejoin:round;stroke-width:.26603;stroke:#000000"/>
												<circle cx="46.222" cy="72.081" r="1.573" style="fill-rule:evenodd;fill:#0000ff;paint-order:stroke fill markers;stroke-dashoffset:20.001;stroke-linecap:round;stroke-linejoin:round;stroke-width:.26603;stroke:#000000"/>
								</g>
				</g>
				<text transform="scale(1.0352 .96595)" x="2.0815325" y="15.415105" style="fill-rule:evenodd;fill:#faf3dd;font-family:Impact;font-size:9.675px;paint-order:stroke fill markers;stroke-dashoffset:20.001;stroke-linecap:round;stroke-linejoin:round;stroke:#000000" xml:space="preserve"><tspan x="2.0815325" y="15.415105">project</tspan></text>
				<path id="path6074" d="m84.167 50.675-11.698 28.775" style="fill:none;marker-start:url(#TriangleStart);stroke-width:1px;stroke:#000000"/>
				<path id="path6076" d="m79.785 48.73-9.611 24.07" style="fill:none;marker-start:url(#marker5353);stroke-width:1px;stroke:#000000"/>
				<path id="path6078" d="m75.385 46.842-8.3438 21.213" style="fill:none;marker-start:url(#marker5431);stroke-width:1px;stroke:#000000"/>
				<path id="path6080" d="m70.991 44.938-7.1278 18.474" style="fill:none;marker-start:url(#marker5539);stroke-width:1px;stroke:#000000"/>
				<path id="path6682" d="m34.406 67.311-20.134-18.174" style="fill:none;marker-start:url(#marker5539);stroke-width:1px;stroke:#000000"/>
				<text transform="matrix(1.2702 -.017173 .010637 .78715 0 0)" x="64.078224" y="82.86705" style="fill-rule:evenodd;fill:#0000ff;font-family:roboto;font-size:4.0313px;paint-order:stroke fill markers;stroke-dashoffset:20.001;stroke-linecap:round;stroke-linejoin:round;stroke-width:.3;stroke:#000000" xml:space="preserve"><tspan x="64.078224" y="82.86705" style="fill:#0000ff;stroke-width:.3">push</tspan><tspan x="64.078224" y="87.906189" style="fill:#0000ff;stroke-width:.3"/></text>
				<text transform="matrix(1.2702 -.017173 .010637 .78715 0 0)" x="1.4985906" y="81.553101" style="fill-rule:evenodd;fill:#0000ff;font-family:roboto;font-size:4.0313px;paint-order:stroke fill markers;stroke-dashoffset:20.001;stroke-linecap:round;stroke-linejoin:round;stroke-width:.3;stroke:#000000" xml:space="preserve"><tspan x="1.4985906" y="81.553101" style="fill:#0000ff;stroke-width:.3">pull daily</tspan><tspan x="1.4985906" y="86.592239" style="fill:#0000ff;stroke-width:.3"/></text>
</svg>
