<?xml version="1.0" encoding="UTF-8"?>
<!-- Generator: Adobe Illustrator 12.0.1, SVG Export Plug-In . SVG Version: 6.00 Build 51448)  -->
<!DOCTYPE svg PUBLIC "-//W3C//DTD SVG 1.1//EN" "http://www.w3.org/Graphics/SVG/1.1/DTD/svg11.dtd" [
	<!ENTITY ns_svg "http://www.w3.org/2000/svg">
	<!ENTITY ns_xlink "http://www.w3.org/1999/xlink">
]>
<svg version="1.1" id="Layer_1" xmlns="http://www.w3.org/2000/svg" xmlns:xlink="http://www.w3.org/1999/xlink" width="325.954" height="120.61" viewBox="0 0 325.954 120.61" overflow="visible" enable-background="new 0 0 325.954 120.61" xml:space="preserve">
<g>
	<polygon fill-rule="evenodd" clip-rule="evenodd" fill="#F6E7A1" points="314.819,107.466 312.064,107.872 287.384,106.323 285.107,107.872 282.812,106.895 276.938,109.506 273.383,108.323 264.808,106.323 258.965,107.872 256.513,108.689 253.377,108.036 240.992,107.055 239.376,108.894 233.661,108.036 223.086,107.18 217.658,108.608 213.658,108.036 209.37,108.894 207.5,110.324 188.795,110.322 178.508,112.896 173.936,111.18 164.791,114.609 150.502,112.896 149.497,114.408 141.929,115.182 137.072,115.753 131.356,114.609 122.539,116.858 119.64,114.609 117.925,116.609 115.068,116.324 110.495,115.753 106.208,115.467 102.208,116.609 94.492,117.753 89.045,118.493 87.348,116.896 83.062,117.753 79.346,118.61 76.792,117.676 74.774,115.467 69.631,118.324 64.201,118.039 52.771,118.039 48.77,118.61 47.626,120.61 41.054,118.896 37.339,117.753 33.053,111.752 21.05,106.037 36.767,77.46 307.673,66.601"/>
	<g>
		<path fill-rule="evenodd" clip-rule="evenodd" d="M276.938,13.926c-0.286,2.708-4.71,1.282-7.353,1.634    C271.041,12.818,273.325,15.136,276.938,13.926z"/>
		<path fill-rule="evenodd" clip-rule="evenodd" d="M87.411,16.377c-1.045,3.584-8.548,0.71-12.254,1.634    c-2.021,0.104-1.389-1,0-0.817C79.376,17.056,84.377,17.7,87.411,16.377z"/>
		<path fill-rule="evenodd" clip-rule="evenodd" d="M71.072,18.828c-3.648,0.166-20.545,0.015-10.62-0.817c2.179,0,4.357,0,6.535,0    C68.67,17.441,71.131,16.448,71.072,18.828z"/>
		<path fill-rule="evenodd" clip-rule="evenodd" d="M153.582,18.011C151.788,20.506,148.349,17.068,153.582,18.011L153.582,18.011z"/>
		<path fill-rule="evenodd" clip-rule="evenodd" fill="#CBC1B6" d="M17.972,20.462c-0.292-1.918,15.788-2.495,5.719-0.817    C21.713,19.974,21.695,20.76,17.972,20.462z"/>
		<path fill-rule="evenodd" clip-rule="evenodd" fill="#CBC1B6" d="M303.895,21.278c0.103-1.804,3.467-0.347,4.903-0.816    C308.696,22.266,305.332,20.809,303.895,21.278z"/>
		<path fill-rule="evenodd" clip-rule="evenodd" fill="#CBC1B6" d="M304.712,22.912c0.352-1.827,4.027-0.331,5.72-0.816    C310.079,23.922,306.405,22.426,304.712,22.912z"/>
		<path fill-rule="evenodd" clip-rule="evenodd" d="M262.234,23.729c-78.809,5.667-158.8,7.894-235.275,12.254    c18.735-2.842,37.238-3.313,55.551-4.085C147.265,29.169,200.38,26.202,262.234,23.729z"/>
		<path fill-rule="evenodd" clip-rule="evenodd" d="M99.665,24.546c0.544,0,1.089,0,1.634,0c-1.907,3.176-7.184,1.435-10.621,1.634    c-9.87,0.569-26.351,2.67-36.761,0.816C68.2,26.215,84.053,25.945,99.665,24.546z"/>
		<path fill-rule="evenodd" clip-rule="evenodd" d="M93.947,27.814c-4.72,1.958-15.172,0.206-4.902,0    C90.995,27.775,92.09,27.844,93.947,27.814z"/>
		<path fill-rule="evenodd" clip-rule="evenodd" fill="#CBC1B6" d="M258.965,29.448c0.661-0.032,18.566,0.345,19.606,0    c-6.77,2.245-22.948,0.456-30.228,0.817c-49.235,2.446-112.789,5.868-169.103,8.986c-8.481,0.47-27.196,2.421-29.409,0.817    c0.221,0.16,18.718-1.322,25.325-1.634c25.763-1.218,52.741-2.726,79.242-4.084C192.789,32.38,226.288,31.004,258.965,29.448z"/>
		<path fill-rule="evenodd" clip-rule="evenodd" fill="#CBC1B6" d="M35.128,44.152c3.212-3.471,10.306-2.099,17.155-2.451    c84.423-4.331,169.762-8.934,262.233-13.071C224.26,35.588,130.938,37.146,35.128,44.152z"/>
		<path fill-rule="evenodd" clip-rule="evenodd" fill="#CBC1B6" d="M318.602,32.715c-42.09,4.167-86.538,5.123-129.075,7.353    c-40.438,2.119-81.911,4.157-120.905,6.535c-0.437-3.236,3.995-1.549,4.901-1.634c34.457-3.229,77.088-4.168,113.552-5.719    C231.144,37.378,275.301,34.455,318.602,32.715z"/>
		<path fill-rule="evenodd" clip-rule="evenodd" d="M303.895,37.617c0.729,0.502,1.462,0.987,1.635,0    C308.884,38.509,302.615,41.035,303.895,37.617z"/>
		<path fill-rule="evenodd" clip-rule="evenodd" d="M309.615,38.434c0.252-1.109,2.044-0.678,3.267-0.817    C312.63,38.726,310.837,38.294,309.615,38.434z"/>
		<path fill-rule="evenodd" clip-rule="evenodd" fill="#CBC1B6" d="M321.051,46.603C313.997,49.025,311.086,45.654,321.051,46.603    L321.051,46.603z"/>
		<path fill-rule="evenodd" clip-rule="evenodd" fill="#CBC1B6" d="M295.726,48.237c2.742-1.888,8.972-0.287,13.072-0.817    C306.055,49.308,299.826,47.707,295.726,48.237z"/>
		<path fill-rule="evenodd" clip-rule="evenodd" fill="#CBC1B6" d="M278.572,49.054c0.869-1.854,5.134-0.311,7.353-0.816    C285.053,50.091,280.789,48.548,278.572,49.054z"/>
		<path fill-rule="evenodd" clip-rule="evenodd" fill="#CBC1B6" d="M293.277,48.237C287.426,50.678,283.899,47.325,293.277,48.237    L293.277,48.237z"/>
		<path fill-rule="evenodd" clip-rule="evenodd" fill="#CBC1B6" d="M290.008,51.505c2.611-2.143,8.635-2.24,13.069-2.451    c5.166-0.246,10.768-0.474,14.707,0.817C308.072,49.962,298.677,50.37,290.008,51.505z"/>
		<path fill-rule="evenodd" clip-rule="evenodd" fill="#CBC1B6" d="M289.191,50.688c-5.401,1.936-18.816,0.246-6.535,0    C284.816,50.645,287.102,50.72,289.191,50.688z"/>
		<path fill-rule="evenodd" clip-rule="evenodd" fill="#CBC1B6" d="M313.699,50.688c1.662,3.02-6.253,1.426-9.804,1.634    c-6.458,0.378-16.388,1.618-24.508,1.634c-1.904,0-3.812,0-5.718,0c-3.564,0.018-0.138-1.407,1.634-0.817c1.907,0,3.813,0,5.718,0    C291.07,51.477,303.797,52.495,313.699,50.688z"/>
		<path fill-rule="evenodd" clip-rule="evenodd" fill="#CBC1B6" d="M315.333,51.505c0.121-0.224,1.758-1.511,2.452-0.817    C318.348,51.252,314.56,52.938,315.333,51.505z"/>
		<path fill-rule="evenodd" clip-rule="evenodd" fill="#CBC1B6" d="M205.866,53.139c3.217-2.5,10.043-1.393,15.521-1.634    c10.56,0.288-2.277,1.269-6.535,0.817C211.952,52.812,210.743,53.228,205.866,53.139z"/>
		<path fill-rule="evenodd" clip-rule="evenodd" fill="#CBC1B6" d="M272.035,51.505c-6.148,1.957-21.197,0.222-7.352,0    C267.237,51.464,269.604,51.536,272.035,51.505z"/>
		<path fill-rule="evenodd" clip-rule="evenodd" fill="#CBC1B6" d="M194.427,53.139c1.677-1.356,8.944-1.356,10.621,0    C200.632,52.618,196.907,54.046,194.427,53.139z"/>
		<path fill-rule="evenodd" clip-rule="evenodd" fill="#CBC1B6" d="M194.427,55.589c2.202-1.882,7.881-0.29,11.438-0.817    C203.663,56.655,197.985,55.062,194.427,55.589z"/>
		<path fill-rule="evenodd" clip-rule="evenodd" fill="#CBC1B6" d="M40.847,57.223c1.841-3.321,9.975-1.497,3.268-0.817    C42.674,56.552,42.372,57.217,40.847,57.223z"/>
		<path fill-rule="evenodd" clip-rule="evenodd" d="M225.47,56.406c-2.619,3.231-7.506,1.423-10.618,1.634    c-54.818,3.73-118.616,5.762-172.372,8.986c2.029-3.17,8.099-1.397,13.07-1.634C108.906,62.852,167.924,59.179,225.47,56.406z"/>
		<path fill-rule="evenodd" clip-rule="evenodd" fill="#CBC1B6" d="M320.234,56.406c2.687-0.595,1.252,1.624,0,1.634    c-45.196,5.268-94.032,5.544-140.511,8.169c-44.587,2.518-96.882,5.539-136.426,5.718c1.519-3.227,5.708-1.399,8.169-1.634    c36.661-3.487,85.959-4.271,128.257-6.535c46.102-2.467,92.84-3.739,135.609-6.536C317.226,57.1,317.277,56.022,320.234,56.406z"/>
		<path fill-rule="evenodd" clip-rule="evenodd" fill="#CBC1B6" d="M98.031,58.04c2.471-1.885,8.426-0.288,12.254-0.817    C107.813,59.108,101.859,57.511,98.031,58.04z"/>
		<path fill-rule="evenodd" clip-rule="evenodd" fill="#CBC1B6" d="M62.904,59.674c-1.02-0.245-15.055,2.918-17.156,0.817    C46.945,61.688,59.486,57.934,62.904,59.674z"/>
		<path fill-rule="evenodd" clip-rule="evenodd" fill="#CBC1B6" d="M94.763,59.674c-3.253,3.282-12.154,0.917-17.972,1.634    C81.596,59.577,89.598,61.043,94.763,59.674z"/>
		<path fill-rule="evenodd" clip-rule="evenodd" fill="#F6E7A1" d="M254.881,68.66c2.484,12.565-1.667,25.561-1.635,38.396    c-5.145-1.383-1.164-7.227-0.816-11.437C253.198,86.273,253,76.384,254.881,68.66z"/>
		<path fill-rule="evenodd" clip-rule="evenodd" fill="#F6E7A1" d="M24.508,70.293c1.551,1.872-1.655,5.935-1.634,8.987    c-2.148-2.124-0.643,1.32-3.268,0.816C20.861,76.45,23.071,73.758,24.508,70.293z"/>
		<path fill-rule="evenodd" clip-rule="evenodd" fill="#F6E7A1" d="M178.088,106.239c-2.377-9.464,1.966-19.27,2.452-28.592    c0-2.179,0-4.357,0-6.536c1.804,0.102,0.347,3.465,0.817,4.902c0.852,8.417-1.618,17.812-1.635,27.775    C178.717,104.145,178.044,104.833,178.088,106.239z"/>
		<path fill-rule="evenodd" clip-rule="evenodd" fill="#F6E7A1" d="M191.162,79.28c-0.694,9.101,1.496,18.481,1.632,30.226    c-2.368-5.364,0.054-0.571-3.267,0.817c0.272-14.349-1.294-28.141,0-39.213c4.798,8.543,5.18,21.506,7.353,32.677    c4.053-9.61,2.53-20.875,5.718-30.226c1.676,10.939-2.195,23.399-4.084,33.494c-1.264-1.967-1.716-3.491-1.634,0.817    C192.777,100.538,193.042,88.836,191.162,79.28z"/>
		<path fill-rule="evenodd" clip-rule="evenodd" fill="#F6E7A1" d="M231.191,72.745c1.376,3.875,1.748,16.473,1.632,24.508    c-1.388,0.3-1.541-0.637-1.632-1.634c-1.73,1.364-0.506,4.82-0.817,7.352c-0.473,3.839,0.103,3.015-1.635,4.902    C227.785,100.099,229.677,84.798,231.191,72.745z"/>
		<path fill-rule="evenodd" clip-rule="evenodd" fill="#F6E7A1" d="M247.529,71.928c4.019,7.962,1.938,22.025,2.449,33.494    C248.023,98.882,246.957,84.846,247.529,71.928z"/>
		<path fill-rule="evenodd" clip-rule="evenodd" fill="#CBC1B6" d="M124.99,72.745c1.095,0.538,1.521,1.746,1.633,3.268    C124.166,76.835,125.175,74.192,124.99,72.745z"/>
		<path fill-rule="evenodd" clip-rule="evenodd" fill="#F6E7A1" d="M164.202,72.745c2.219,12.699-0.398,23.263-2.451,33.494    C159.984,95.752,164.207,84.189,164.202,72.745z"/>
		<path fill-rule="evenodd" clip-rule="evenodd" fill="#F6E7A1" d="M244.26,72.745c2.23,0.901,0.608,5.342,0.817,8.169    c0.656,8.922,0.95,16.635-0.817,25.325C241.168,95.742,245.042,84.668,244.26,72.745z"/>
		<path fill-rule="evenodd" clip-rule="evenodd" fill="#CBC1B6" d="M306.346,73.562c0.312-1.555,1.041,0.521,0.817,1.634    C306.852,76.75,306.125,74.674,306.346,73.562z"/>
		<path fill-rule="evenodd" clip-rule="evenodd" fill="#F6E7A1" d="M183.809,74.378c1.322,13.434-0.769,25.471-3.269,37.579    C178.527,103.932,183.162,86.923,183.809,74.378z"/>
		<path fill-rule="evenodd" clip-rule="evenodd" fill="#F6E7A1" d="M294.093,75.195c1.786,0.685,0.358,11.607,0.817,16.339    C293.123,90.85,294.55,79.927,294.093,75.195z"/>
		<path fill-rule="evenodd" clip-rule="evenodd" fill="#F6E7A1" d="M303.078,75.195c1.29,5.907,3.435,18.77,2.452,28.592    C303.473,95.173,302.654,83.95,303.078,75.195z"/>
		<path fill-rule="evenodd" clip-rule="evenodd" fill="#F6E7A1" d="M272.852,76.013c1.935,7.118,0.512,17.933,0,25.324    C270.073,92.722,272.188,86.72,272.852,76.013z"/>
		<path fill-rule="evenodd" clip-rule="evenodd" d="M138.877,77.646c0.94-2.643,0.924,2.193,0.817,3.268    C138.753,83.557,138.769,78.72,138.877,77.646z"/>
		<path fill-rule="evenodd" clip-rule="evenodd" fill="#F6E7A1" d="M159.3,76.829c2.01,9.476-0.096,26.198-1.634,35.128    C154.831,100.13,159.397,88.639,159.3,76.829z"/>
		<path fill-rule="evenodd" clip-rule="evenodd" fill="#F6E7A1" d="M292.459,77.646c1.227,3.165,0.603,9.859,0,14.704    c-0.338,2.714-0.059,6.872-2.451,7.352C291.412,92.938,291.132,84.489,292.459,77.646z"/>
		<path fill-rule="evenodd" clip-rule="evenodd" fill="#F6E7A1" d="M98.031,78.463c0.95-0.133,1.453,0.181,1.634,0.817    c-0.538,9.235,0.325,20.434-0.817,28.592c-0.415,2.965-1.472,6.57-3.267,8.169C95.039,102.158,97.816,91.592,98.031,78.463z"/>
		<path fill-rule="evenodd" clip-rule="evenodd" fill="#F6E7A1" d="M26.142,80.914c0.23,2.136-0.298,3.514-2.451,3.267    C23.461,82.045,23.989,80.667,26.142,80.914z"/>
		<path fill-rule="evenodd" clip-rule="evenodd" fill="#F6E7A1" d="M296.542,83.365c1.127-2.601,0.811,2.886,0.817,4.084    C296.236,90.049,296.552,84.562,296.542,83.365z"/>
		<path fill-rule="evenodd" clip-rule="evenodd" fill="#F6E7A1" d="M250.795,84.181c0.94-2.643,0.925,2.194,0.817,3.268    C250.672,90.092,250.688,85.256,250.795,84.181z"/>
		<path fill-rule="evenodd" clip-rule="evenodd" d="M209.131,84.999C208.875,89.03,205.437,85.592,209.131,84.999L209.131,84.999z"/>
		<path fill-rule="evenodd" clip-rule="evenodd" fill="#F6E7A1" d="M225.47,85.816c0.755-2.409,2.34,8.406-0.817,7.352    C225.342,91.132,225.724,88.791,225.47,85.816z"/>
		<path fill-rule="evenodd" clip-rule="evenodd" d="M258.148,87.449c0.53-2.303,0.947,1.882,0.817,2.451    C258.585,91.541,257.43,90.559,258.148,87.449z"/>
		<path fill-rule="evenodd" clip-rule="evenodd" d="M124.99,88.266c0.531-2.303,0.947,1.881,0.816,2.451    C125.428,92.357,124.272,91.376,124.99,88.266z"/>
		<path fill-rule="evenodd" clip-rule="evenodd" fill="#F6E7A1" d="M296.542,89.083c1.889,2.742,0.287,8.973,0.817,13.071    C294.419,100.763,295.579,91.75,296.542,89.083z"/>
		<path fill-rule="evenodd" clip-rule="evenodd" d="M146.229,90.717c0.312-1.555,1.04,0.521,0.817,1.634    C146.736,93.906,146.007,91.829,146.229,90.717z"/>
		<path fill-rule="evenodd" clip-rule="evenodd" fill="#F6E7A1" d="M293.277,93.984c1.447-2.179,0.593,4.787,0.816,6.536    C292.643,102.699,293.498,95.733,293.277,93.984z"/>
		<path fill-rule="evenodd" clip-rule="evenodd" d="M209.949,94.802c-0.014,0.307,4.678,14.161-0.817,14.705    c-0.034-2.089,0.608-0.996,1.635-0.817C209.339,105.217,210.159,99.495,209.949,94.802z"/>
		<path fill-rule="evenodd" clip-rule="evenodd" fill="#F6E7A1" d="M56.368,95.619c0.686-2.595,1.077,1.45,0.816,2.451    c3.108,1.314,1.389,9.126,1.634,14.705c-1.104-1.983-1.632-0.509-2.451-1.635c1.147-1.283,2.196-2.603,1.634-7.352    c-1.772-0.138-0.37,2.897-0.817,4.084C55.467,108.467,56.776,99.047,56.368,95.619z"/>
		<path fill-rule="evenodd" clip-rule="evenodd" d="M146.229,95.619c0.672,2.252,3.704,17.879,0,19.606    C141.524,110.917,147.918,103.46,146.229,95.619z M147.046,112.774c-0.166-1.545,0.551-8.072-0.817-5.719    C146.397,108.6,145.679,115.127,147.046,112.774z"/>
		<path fill-rule="evenodd" clip-rule="evenodd" d="M256.513,94.802c2.172,1.592,3.029,12.457,0,13.888    C256.513,104.06,256.513,99.431,256.513,94.802z"/>
		<path fill-rule="evenodd" clip-rule="evenodd" fill="#F6E7A1" d="M261.417,98.07c0.94-2.644,0.924,2.193,0.817,3.267    C261.293,103.979,261.307,99.143,261.417,98.07z"/>
		<path fill-rule="evenodd" clip-rule="evenodd" fill="#F6E7A1" d="M170.737,98.887c1.127-2.601,0.811,2.886,0.817,4.083    C170.429,105.571,170.746,100.084,170.737,98.887z"/>
		<path fill-rule="evenodd" clip-rule="evenodd" d="M102.116,99.703c1.136,1.545,1.386,12.273,2.451,16.338    C101.482,113.678,102.625,105.854,102.116,99.703z"/>
		<path fill-rule="evenodd" clip-rule="evenodd" fill="#F6E7A1" d="M269.585,100.52c0.531-2.304,0.948,1.882,0.817,2.45    C270.023,104.612,268.867,103.63,269.585,100.52z"/>
		<path fill-rule="evenodd" clip-rule="evenodd" fill="#F6E7A1" d="M151.949,105.422c1.125-2.601,0.808,2.887,0.816,4.084    C151.64,112.107,151.957,106.62,151.949,105.422z"/>
		<path fill-rule="evenodd" clip-rule="evenodd" fill="#F6E7A1" d="M49.833,106.239c1.368-2.354,0.65,4.174,0.817,5.718    C49.281,114.31,50,107.783,49.833,106.239z"/>
		<path fill-rule="evenodd" clip-rule="evenodd" d="M79.242,105.422C82.262,107.899,76.761,108.174,79.242,105.422L79.242,105.422z"/>
		<path fill-rule="evenodd" clip-rule="evenodd" fill="#F6E7A1" d="M114.369,106.239c0.941-2.644,0.925,2.193,0.817,3.268    C114.246,112.148,114.262,107.312,114.369,106.239z"/>
		<path fill-rule="evenodd" clip-rule="evenodd" d="M126.623,105.422c1.104,2.195,2.806,8.045,0.817,10.619    C124.259,115.618,125.856,107.202,126.623,105.422z"/>
		<path fill-rule="evenodd" clip-rule="evenodd" fill="#F6E7A1" d="M146.229,107.055c1.368-2.353,0.651,4.174,0.817,5.719    C145.679,115.127,146.397,108.6,146.229,107.055z"/>
		<path fill-rule="evenodd" clip-rule="evenodd" fill="#F6E7A1" d="M171.554,107.872c1.822,2.467,0.645,3.645-1.635,1.634    C170.123,108.62,171.544,108.952,171.554,107.872z"/>
		<path fill-rule="evenodd" clip-rule="evenodd" fill="#F6E7A1" d="M98.031,112.774c0.531-2.304,0.948,1.881,0.816,2.45    C98.469,116.865,97.313,115.885,98.031,112.774z"/>
		<path fill-rule="evenodd" clip-rule="evenodd" fill="#F6E7A1" d="M42.48,113.591c0.311-1.555,1.04,0.521,0.816,1.634    C42.986,116.779,42.258,114.703,42.48,113.591z"/>
		<path fill-rule="evenodd" clip-rule="evenodd" d="M73.523,104.604c4.351,1.096,3.138,7.754,3.268,13.071    c-1.787-0.12-1.754-2.058-1.634-4.085c0.467,5.881-8.851,6.108-12.253,4.902c-1.736-13.646,4.62-26.653,3.267-38.396    c-4.425,10.28-4.977,24.432-6.535,37.579c-2.494,0.043-1.959-2.942-4.901-2.451c1.249-9.514,1.397-24.003,0-33.494    c-2.671,6.417-1.106,16.281-2.451,22.057c0.794-0.022,0.634-1,0.817-1.633c1.972,5.08-1.628,12.4,2.45,16.339    c-5.354,1.541-2.618-5.007-3.268-8.169c-1.862,1.132-0.304,5.685-0.817,8.169c-3.052-0.874-2.328,2.027-4.901,1.633    c0.625-6.496,2.466-12.079,3.268-18.789c0.127-1.066,0.279-7.749,0.817-3.267c0.824,6.867-0.019-3.411,0-4.902    c0.06-4.701,1.78-10.656,0.817-12.254c-2.631,12.05-5.924,22.706-6.535,38.395c-1.792,1.806-3.338-0.808-6.536,0    c4.437-13.146,8.311-21.827,9.803-37.578c-3.255,1.646-3.633,6.169-4.902,9.803c-2.482-1.008,0.886-2.81,0-4.902    c-3.95,9.229-5.329,17.397-8.986,27.776c4.065-3.287,4.944-9.762,7.352-14.706c0.661,5.03-3.625,12.16-4.084,18.791    c-4.579-2.832-5.791-5.925-10.62-4.902c-6.495-3.747-0.2-12.222,3.268-18.789c2.555-4.838,4.806-8.472,6.535-14.705    c-3.236,4.223-5.393,9.97-8.169,15.522c-1.333,2.667-3.14,8.86-6.536,11.437c-3.689-2.573-4.113-8.413-10.62-8.168    C7.611,93.726,3.402,88.949,0,83.365c5.967-9.01,12.53-17.423,17.972-26.959c-1.137-5.398-3.78-9.29-6.535-13.07    c0.534-12.092-0.887-17.914-0.817-28.592c51.384-4.512,113.575-5.577,172.372-8.986c33.93-1.967,66.877-2.702,95.58-4.901    c1.776-0.136,3.995-1.052,5.718-0.817c7.697,1.05,24.734,13.645,30.227,20.423c9.449,11.666,13.824,27.448,6.535,40.846    c-3.239,0.302-7.827-0.749-9.804,0.817c4.621,14.46,13.004,29.452,14.706,44.114c-6.137-0.007-8.749,1.542-13.072,1.633    c0.817-11.071-0.619-19.127-3.267-31.859c-3.592,8.728,2.314,19.877,2.449,31.859c-10.137,1.669-16.138-0.796-26.957,0    c-0.03-9.996-0.342-19.042-1.634-29.409c2.234,7.024,3.699,14.818,4.9,22.874c1.972-10.69-3.434-21.07-4.9-31.043    c-2.333,12.01-0.543,25.156,0.816,37.579c-3.427-0.432-4.562,1.427-7.352,1.634c1.527-12.335,2.507-23.799,1.634-37.579    c-4.039,2.263,2.303,11.427-2.451,13.888c0.249-4.063-0.13-7.496-0.817-10.621c-2.561,10.679,1.807,26.645,0,34.311    c-2.688-0.035-4.066-1.379-7.352-0.817c1.348-14.501,2.034-19.859,1.634-35.945c-4.649,5.144-1.469,17.672-3.269,27.775    c-0.358,2.019-0.308,1.049-1.634,0.817c-0.654,2.833,1.217,3.14,0.816,5.718c-2.209-0.239-4.67,3.413-6.534,0.817    c-0.229-2.383,0.197-2.808,1.634-1.633c-0.17-11.39,0.838-14.495,0-24.508c1.858,6.585,2.111,13.775,2.451,18.789    c3.768-0.965,0.964-4.96,0.815-7.352c-0.508-8.195-1.795-17.986-4.084-24.508c-3.166,3.688-1.413,9.531-2.451,14.705    c-1.064,5.309-3.679,17.311-1.635,25.325c-5.061,0.459-9.04,1.089-14.704-1.634c0.119-7.421,1.386-17.959,1.635-31.042    c-1.265,4.453-1.532,9.903-1.635,15.521c-0.94,2.643-0.924-2.194-0.817-3.268c-1.659-5.147-3.217-10.397-3.266-17.155    c-1.521,13.452,2.237,20.971,3.266,37.579c-4.968,0.165-6.8,1.605-9.801-0.817c-1.911,2.107-14.67,5.83-13.89-2.45    c0.764,0.598,1.238,1.485,1.635,2.45c2.167,0.261-0.764-4.576,2.451-3.268c-0.426-13.349,2.335-19.167,1.634-31.86    c-2.732,8.161-2.188,19.598-4.085,28.592c-0.932-8.771-4.54-18.643-4.084-26.142c-2.979,1.609-1.797,6.06-1.634,8.169    c0.404,5.242,3.967,10.862,2.451,17.155c-1.771,0.137-0.37-2.897-0.817-4.084c-2.806,7.003,1.507,9.437,1.635,13.071    c-5.669,0.807-3.058-8.503-3.269-13.071c-0.41-8.799-1.772-18.983-2.452-26.142c-1.888,3.012-0.284,9.519-0.817,13.888    c-3.042-1.722,0.082-4.825-0.816-8.986c-1.213,0.692-1.181,2.63-1.633,4.085c-2.421-1.188,1.076-3.187,0-5.719    c-3.764,11.479-3.95,21.576-4.902,35.945c1.408-1.859,1.748-4.788,1.634-8.169c1.567-1.775,0.518,5.973,0.817,8.169    c1.84-0.322-0.123-5.097,2.451-2.451c0-2.723,0-5.446,0-8.168c-0.358-1.619,0.322-7.522,0.817-3.268c0,4.901,0,9.803,0,14.705    c-13.678-0.2-18.443,2.401-30.228,2.451c-0.407-2.571,1.781-3.193,0-4.902c-1.805,0.103-0.348,3.466-0.815,4.902    c-3.364-1.993-6.87,2.1-11.438,2.45c-5.786,0.444-11.267-3.157-15.522-0.816c2.209-15.548-1.755-26.678-3.268-40.847    c-2.265,9.812-2.629,24.949-3.268,34.311c-0.211,3.106,2.17,9.385-4.084,8.169c3.319-10.568,2.735-25.04,3.268-38.395    c-1.221-0.438-0.962-0.814-3.268-1.634c-2.869,9.111-2.26,21.703-3.268,32.677c1.324-2.215,1.052-6.028,1.633-8.987    c2.338,3.465-2.147,11.429,0.817,15.522c-0.352,1.827-4.025,0.331-5.718,0.816c3.222-11.482,2.988-26.42,4.085-40.028    c-2.272,0.995-1.519,5.018-1.635,8.168c-1.016,0.674-0.8-3.269-0.817-3.267c-1.844,0.183-0.958,16.569-0.817,4.084    c-0.057,5.085-1.059,24.707-1.633,31.042c-2.74-4.266,0.097-13.196-0.817-19.605c-0.526-3.692-2.812-6.343-3.268-8.986    c-0.71-2.376-1.224-0.919-3.268-0.817c2.32-1.171,4.064-8.08,0.817-9.803c-1.772-0.137-0.371,2.897-0.817,4.085    c-1.368,2.353-0.651-4.174-0.817-5.719c-2.815,5.922-1.085,13.568-1.635,22.875c-2.933-5.674-0.172-11.887-0.816-20.423    c-3.138,9.785-4.211,23.609-4.902,34.311c-0.106,1.634,0.589,5.07-1.634,4.901c-2.562-1.585-1.501-7.723-0.817-12.254    c0.358-2.37,1.507-0.411,1.634-0.817c2.359-7.578-0.402-16.854,0.817-26.141c-3.293,4.121-1.577,18.15-4.084,22.056    c-0.412-8.854,1.702-15.181,1.633-23.69c-3.572,4.758-2.829,22.641-4.901,29.409c-0.582,1.9-0.14,1.138-1.634,0.817    c0.403,2.865,1.218,5.318,0.817,8.986c-3.103-4.667-1.626-11.04-2.451-16.338c-0.842-5.408-2.271-14.529-2.451-22.874    c-1.976-0.652-0.022,4.679-0.817,6.535c-2.047,4.78-0.26-4.105-0.817-4.085c-0.824,0.03-1.882,27.008-1.634,29.409    c0.155,1.495,3.43,6.667,1.634,8.986c-4.068,1.944-6.39,0.022-10.621,1.635c0.906-1.546,1.042-3.86,1.635-5.719    c0.887,0.202,0.554,1.623,1.634,1.634C93.56,102.41,95.9,89.461,95.581,75.195c-3.134,2.857-0.787,11.195-2.451,15.521    c-1.109-0.252-0.678-2.045-0.816-3.268c-2.734,1.078,1.56,9.185-2.451,8.986c0.202,0.887,1.625,0.554,1.634,1.634    c-0.116,1.07-2.908,2.371-2.451,7.352c0.089,0.973,1.612,1.949,1.633,1.633c-0.058,0.834-1.448,0.649-1.633,1.634    c-0.551,2.929,1.191,6.138,0,9.804c-1.968,0.334-1.776-1.492-4.085-0.817c2.984-11.993,4.28-25.675,4.902-40.029    c-4.507,10.742-4.259,26.239-5.718,40.029c-4.793,0.165-3.208-4.529-0.817-5.719c0.506-13.364,1.934-23.616,2.451-31.86    c-3.979,0.354-0.401,11.784-4.085,9.804c1.243,1.407-0.173,12.36-0.817,8.986c-0.397-5.405-0.951-8.329-0.817-15.522    c-2.192,1.217-0.526,5.826-1.633,9.803c-1.409-4.583-0.767-11.215-2.451-15.521c-1.901,6.812-0.276,17.151-0.817,25.324    c-3.265-4.705,0.558-15.525-0.817-23.69c-3.582,10.033-2.265,24.966-4.084,36.761c2.5-2.023,2.197-7.928,2.451,0    c1.854-0.868,0.311-5.134,0.817-7.352c1.811-0.449,1.163,1.56,2.451,1.634C76.49,107.084,72.868,107.983,73.523,104.604z     M307.164,18.828c0.903-0.37,0.584-0.623-0.817-0.817c-8.041-1.115-18.243,1.145-27.774,1.634    c-59.746,3.065-118.581,5.537-183.809,8.169c68.34-4.462,140.327-7.376,206.683-10.62c3.725-1.238-7.311-0.865-9.804-0.817    c-61.178,1.176-127.14,8.252-189.526,8.986c65.562-5.079,134.05-5.919,201.779-11.437c-8.924-0.748-18.162,2.523-26.14,0    c7.868-0.375,11.589-0.845,18.787-0.817c0.859-0.045,0.643-1.047-0.816-0.816c-48.606,1.195-95.965,5.61-141.327,5.718    c47.49-3.402,98.336-3.728,145.412-8.169c-56.172,1.562-108.18,6.671-163.384,6.536c45.498-2.814,97.694-3.561,147.046-7.353    c3.145-0.242,7.476,1.614,9.804-1.634c-66.342,3.279-137.222,8.547-205.049,8.986c46.562-2.075,100.396-4.292,147.863-6.536    c2.693-0.127,23.917-1.064,8.169-1.633c-13.587-0.492-28.13,1.029-42.48,1.633c-43.627,1.839-86.82,5.703-129.89,5.719    c58.91-2.612,127.364-6.956,188.709-9.803c9.198-0.427,18.993,0.661,27.774-2.451C205.004,9.203,117.645,10.858,34.311,15.56    c-6.324,0.356-10.978,0.735-17.155,2.451c18.761-0.287,35.207-3.289,53.917-1.634c-9.752,0.202-21.233,1.062-31.043,1.634    c-3.259,0.19-8.261-1.549-10.62,1.634c8.621-0.707,20.613-1.73,26.141-0.816c-11.219,2.124-26.306,0.379-36.761,3.268    c31.488-0.936,67.391-3.082,102.116-4.902c4.644-0.244,9.877-1.389,13.887,0.817c-36.063,2.976-80.053,0.942-111.102,5.718    c-0.821,0.126-5.534-1.524-4.901,1.634c6.312-0.644,14.16-2.836,20.423-1.634c1.661,0.319,0.862,0.854,0.816,0.817    c3.068,2.507,9.924,0.188,13.888,0c68.868-3.271,145.691-7.491,214.851-8.986c-41.733,1.272-84.764,4.588-126.623,6.536    c-37.245,1.732-81.987,2.249-115.186,5.718c-2.053,0.215-6.325-1.552-7.353,1.634c4.633-0.992,11.064-1.324,17.156-1.634    c5.983-0.305,12.902-1.572,16.339,0.817c-11.153,0.285-23.392-0.518-31.86,2.451c19.756-1.213,42.973-3.318,62.086-2.451    c-20.897,2.385-41.359,0.788-60.452,4.084C119.28,28.266,211.504,23.899,307.164,18.828z M44.931,40.068    c-1.959-1.085-10.826,1.448-13.888-0.817c87.266-6.192,177.026-7,262.233-13.07c4.849-0.346,26.179-1.047,15.521-1.634    c-21.251-1.17-51.358,2.515-66.172,3.268c-71.562,3.637-144.944,6.754-213.217,9.803c47.913-3.979,106.042-5.768,157.666-8.169    c35.107-1.633,78.271-2.985,111.102-5.719c1.494-0.125,9.126-0.188,1.634-0.817c-14.511-1.218-25.807,2.773-36.761,0.817    c13.075-2.22,26.273-0.237,39.213-3.267c-70.796,3.414-139.756,6.879-209.134,9.803c-22.94,0.967-46.109,1.753-68.622,4.901    C29.997,40.842,35.382,43.085,44.931,40.068z M264.683,7.391c-4.752,0.365-11.346-1.523-12.253,1.634    c11.308-2.035,26.643-0.042,36.761-3.268C282.146,6.167,270.605,6.937,264.683,7.391z M23.691,19.645    c10.069-1.678-6.011-1.101-5.719,0.817C21.695,20.76,21.713,19.974,23.691,19.645z M308.798,20.462    c-1.437,0.47-4.801-0.988-4.903,0.816C305.332,20.809,308.696,22.266,308.798,20.462z M310.432,22.096    c-1.692,0.486-5.368-1.01-5.72,0.816C306.405,22.426,310.079,23.922,310.432,22.096z M19.606,26.997    c4.003-1.988,13.138,1.156,15.522-2.45C30.503,25.382,20.449,25.098,19.606,26.997z M305.53,27.814    c8.946-0.179,1.829-1.223-5.719-0.817c-5.587,1.493-14.329-0.17-19.606,1.634C285.196,29.343,298.943,27.946,305.53,27.814z     M154.399,34.35c-26.501,1.359-53.479,2.867-79.242,4.084c-6.606,0.312-25.104,1.794-25.325,1.634    c2.213,1.604,20.928-0.348,29.409-0.817c56.313-3.118,119.867-6.54,169.103-8.986c7.279-0.361,23.458,1.428,30.228-0.817    c-1.04,0.345-18.945-0.032-19.606,0C226.288,31.004,192.789,32.38,154.399,34.35z M309.615,31.082    c-4.766,0.028-9.473-0.058-10.62,0c-44.076,2.229-87.958,4.173-130.707,6.536c-40.382,2.231-84.834,3.39-124.991,6.535    c-1.73,0.136-4.721-0.07-5.718,1.634c1.897,1.353,3.811,0.25,5.718,0c8.906-1.167,17.001-1.249,26.142-1.634    c83.293-3.511,163.873-9.396,245.078-12.254C314.875,29.683,311.457,31.07,309.615,31.082z M314.516,28.631    c-92.471,4.137-177.81,8.74-262.233,13.071c-6.849,0.352-13.943-1.021-17.155,2.451C130.938,37.146,224.26,35.588,314.516,28.631z     M187.076,39.25c-36.464,1.55-79.095,2.49-113.552,5.719c-0.906,0.085-5.338-1.602-4.901,1.634    c38.994-2.378,80.467-4.416,120.905-6.535c42.537-2.23,86.985-3.186,129.075-7.353C275.301,34.455,231.144,37.378,187.076,39.25z     M313.699,35.983c-11.277,1.896-23.786,1.099-35.943,1.634c-35.353,1.554-68.409,4.188-101.299,5.718    c-40.071,1.864-82.227,2.686-119.272,5.718c-5.061,0.415-14.327-1.22-15.521,4.085c65.8-0.932,142.952-6.535,211.583-9.803    c19.72-0.939,44.87-1.617,61.27-3.268c1.765-0.178,5.911,1.821,6.535-1.634C320.436,33.215,315.775,35.634,313.699,35.983z     M52.283,45.786c-2.017,0.157-14.269,1.006-8.169,1.634c3.712,0.62,7.373-0.54,11.437-0.817c3.771-0.256,8.75,1.575,10.62-1.634    C62.881,45.571,55.871,45.507,52.283,45.786z M321.051,46.603C311.086,45.654,313.997,49.025,321.051,46.603L321.051,46.603z     M308.798,47.42c-4.101,0.531-10.33-1.07-13.072,0.817C299.826,47.707,306.055,49.308,308.798,47.42z M285.924,48.237    c-2.219,0.506-6.483-1.037-7.353,0.816C280.789,48.548,285.053,50.091,285.924,48.237z M293.277,48.237    C283.899,47.325,287.426,50.678,293.277,48.237L293.277,48.237z M227.922,50.688c10.986,1.808,36.413-0.589,46.564-1.634    C258.032,48.666,244.438,51.138,227.922,50.688z M317.785,49.871c-3.939-1.291-9.541-1.063-14.707-0.817    c-4.435,0.211-10.458,0.309-13.069,2.451C298.677,50.37,308.072,49.962,317.785,49.871z M282.656,50.688    c-12.281,0.246,1.134,1.936,6.535,0C287.102,50.72,284.816,50.645,282.656,50.688z M281.021,53.139c-1.904,0-3.811,0-5.718,0    c-1.771-0.59-5.198,0.835-1.634,0.817c1.906,0,3.813,0,5.718,0c8.12-0.016,18.05-1.255,24.508-1.634    c3.551-0.208,11.466,1.386,9.804-1.634C303.797,52.495,291.07,51.477,281.021,53.139z M317.785,50.688    c-0.694-0.693-2.331,0.594-2.452,0.817C314.56,52.938,318.348,51.252,317.785,50.688z M214.852,52.322    c4.258,0.452,17.095-0.529,6.535-0.817c-5.479,0.241-12.305-0.866-15.521,1.634C210.743,53.228,211.952,52.812,214.852,52.322z     M230.374,55.589C166.146,57.544,103.6,63.125,42.48,63.759c5.777-1.575,14.569-0.135,20.423-1.634    c7.843,1.082,9.933-1.587,12.253-0.817c-7.388-2.45-28.506,3.589-33.494,0c5.706,0.058-2.188-1.312,0.817-3.268    c-3.364,1.051-0.951,9.366,0.816,10.62c21.083-2.625,49.569-2.922,75.157-4.084c64.575-2.933,120.119-7.039,182.992-9.803    c4.761-0.209,10.302,1.523,14.704-1.633c-21.416,1.887-46.595,2.248-67.806,3.267c-6.428,0.31-17.878,2.36-21.239,0    c15.039-0.482,30.061-0.982,44.115-2.45c-10.475-1.169-30.577,2.78-40.029,0c4.018,0.737,9.044-0.63,13.069-0.817    c4.661-0.217,10.283,1.536,13.07-1.634c-17.009,1.963-36.374,1.384-49.831,3.267C212.321,56.239,226.881,52.791,230.374,55.589z     M264.683,51.505c-13.846,0.222,1.203,1.957,7.352,0C269.604,51.536,267.237,51.464,264.683,51.505z M205.048,53.139    c-1.677-1.356-8.944-1.356-10.621,0C196.907,54.046,200.632,52.618,205.048,53.139z M192.793,53.139    c-5.93-0.659-11.741,0.534-17.971,0.817c-11.254,0.511-23.297-0.587-32.678,2.45C155.674,54.655,179.925,55.284,192.793,53.139z     M187.892,56.406c2.582,0.131,4.932,0.029,5.718-1.634C192.153,55.764,188.859,54.921,187.892,56.406z M205.866,54.772    c-3.558,0.527-9.236-1.065-11.438,0.817C197.985,55.062,203.663,56.655,205.866,54.772z M44.114,56.406    c6.708-0.679-1.426-2.504-3.268,0.817C42.372,57.217,42.674,56.552,44.114,56.406z M113.552,56.406    c4.497,2.028,23.493-0.117,26.143-0.816C130.32,55.202,123.173,57.04,113.552,56.406z M101.299,59.674    c-0.549,0.025-9.866,0.817-2.451,0.817c27.801,0,55.31-2.495,79.241-4.085c2.205-0.146,6.836-1.186,8.17-0.816    c-3.711-1.027-8.94,0.625-13.07,0.816c-21.381,0.995-48.458,2.071-66.987,2.451C105.135,60.266,102.155,59.634,101.299,59.674z     M315.333,57.223c-42.77,2.796-89.508,4.068-135.609,6.536c-42.298,2.263-91.596,3.048-128.257,6.535    c-2.461,0.235-6.65-1.593-8.169,1.634c39.544-0.18,91.839-3.2,136.426-5.718c46.479-2.625,95.314-2.902,140.511-8.169    c1.252-0.01,2.687-2.229,0-1.634C317.277,56.022,317.226,57.1,315.333,57.223z M64.538,59.674c4.117,1.366,6.836,0.366,14.704,0    c6.524-0.304,14.472-0.293,17.972-2.451C87.051,56.099,70.237,61.564,64.538,59.674z M110.285,57.223    c-3.828,0.529-9.783-1.068-12.254,0.817C101.859,57.511,107.813,59.108,110.285,57.223z M45.748,60.491    c2.101,2.101,16.136-1.062,17.156-0.817C59.486,57.934,46.945,61.688,45.748,60.491z M76.792,61.308    c5.817-0.717,14.719,1.648,17.972-1.634C89.598,61.043,81.596,59.577,76.792,61.308z M32.677,67.026    c-0.47-1.436,0.987-4.8-0.817-4.901c-0.127,0.961,0.141,2.319-0.816,2.45c-0.01-1.25-2.229-2.686-1.634,0    C32.032,63.859,31.104,66.694,32.677,67.026z M39.213,70.293c0.605-1.319-6.117-3.833-4.902-2.45    C36.036,68.569,36.725,70.33,39.213,70.293z M14.705,72.745c0.781-1.669,1.668-3.232,2.451-4.901    C15.089,67.747,13.85,72.62,14.705,72.745z M252.43,95.619c-0.348,4.21-4.328,10.053,0.816,11.437    c-0.032-12.834,4.119-25.831,1.635-38.396C253,76.384,253.198,86.273,252.43,95.619z M19.606,80.097    c2.625,0.503,1.12-2.94,3.268-0.816c-0.021-3.052,3.185-7.115,1.634-8.987C23.071,73.758,20.861,76.45,19.606,80.097z     M18.79,74.378C21.146,69.645,16.773,72.229,18.79,74.378L18.79,74.378z M13.071,86.632c4.241-3.12,7.371-11.68,8.169-15.521    C18.944,76.712,15.286,80.951,13.071,86.632z M180.541,111.957c2.5-12.107,4.591-24.145,3.269-37.579    C183.162,86.923,178.527,103.932,180.541,111.957z M179.723,103.788c0.017-9.962,2.486-19.358,1.635-27.775    c-0.471-1.437,0.986-4.8-0.817-4.902c0,2.179,0,4.357,0,6.536c-0.486,9.322-4.829,19.128-2.452,28.592    C178.044,104.833,178.717,104.145,179.723,103.788z M196.879,107.872c-0.082-4.308,0.37-2.784,1.634-0.817    c1.889-10.095,5.76-22.555,4.084-33.494c-3.188,9.352-1.665,20.616-5.718,30.226c-2.173-11.17-2.555-24.133-7.353-32.677    c-1.294,11.072,0.272,24.864,0,39.213c3.32-1.389,0.898-6.181,3.267-0.817c-0.136-11.745-2.326-21.125-1.632-30.226    C193.042,88.836,192.777,100.538,196.879,107.872z M9.803,77.646c-0.118-2.089,3.618-4.465,1.634-5.719    C11.254,73.715,7.752,76.325,9.803,77.646z M228.739,107.872c1.737-1.887,1.162-1.062,1.635-4.902    c0.312-2.532-0.913-5.988,0.817-7.352c0.091,0.997,0.244,1.934,1.632,1.634c0.116-8.035-0.256-20.633-1.632-24.508    C229.677,84.798,227.785,100.099,228.739,107.872z M249.978,105.422c-0.512-11.469,1.569-25.532-2.449-33.494    C246.957,84.846,248.023,98.882,249.978,105.422z M126.623,76.013c-0.112-1.522-0.538-2.73-1.633-3.268    C125.175,74.192,124.166,76.835,126.623,76.013z M151.949,102.97c0.2,3.244-3.283,7.081,0.816,8.987    c1.892-0.98-0.153-7.468,2.45-3.268c-1.687-9.382,4.019-21.872,1.634-31.86c-0.763,2.161-1.247,5.068-1.634,8.169    c-0.526,4.229,0.508,10.17-2.45,12.254c0.326-6.954-1.315-18.768-4.901-24.508C148.538,82.348,151.373,93.648,151.949,102.97z     M161.75,106.239c2.053-10.231,4.67-20.795,2.451-33.494C164.207,84.189,159.984,95.752,161.75,106.239z M174.823,98.07    c-0.305-9.5-1.774-17.833-4.903-24.508c0.614,3.586-1.264-0.728-1.632-0.817c0.88,0.212-1.381,3.936-1.635,0    c-0.481,8.759-0.041,18.021-0.816,26.142c-0.452,4.716-4.475,10.169,0,13.888c2.312,0.134-0.68-5.036,1.634-4.902    c-0.466,1.672,0.247,6.129,1.632,3.268c2.794-10.451-2.16-24.704,0.817-34.311c2.012,12.51,2.405,23.766,5.721,33.495    C176.145,106.601,177.73,95.725,174.823,98.07z M184.624,106.239c-0.473,1.663,0.557,6.437,0.817,2.451    c0.605-3.752,0.291-8.423,1.635-11.437c-0.356,2.808,0.323,4.578,0.816,6.535c0,0.817,0,1.634,0,2.451c0,0.816,0,1.633,0,2.451    c1.1,3.516,0.771-2.325,0.817-3.268c0.526-10.821-1.11-24.653-2.451-32.677C185.59,84.383,185.429,92.246,184.624,106.239z     M244.26,106.239c1.768-8.69,1.474-16.402,0.817-25.325c-0.209-2.828,1.413-7.268-0.817-8.169    C245.042,84.668,241.168,95.742,244.26,106.239z M307.164,75.195c0.224-1.112-0.505-3.189-0.817-1.634    C306.125,74.674,306.852,76.75,307.164,75.195z M312.064,75.195c-0.349-0.831-1.76-4.274-1.632-0.817    c4.878,9.01,5.597,22.177,11.436,30.226C319.509,93.892,316.022,84.309,312.064,75.195z M221.387,105.422    c4.302,1.036,1.015-5.52,3.266-6.535c1.63,0.833-1.718,5.818,0.817,7.352c1.104-8.595,4.096-24.735,1.635-31.86    c-0.486,1.692,1.01,5.367-0.817,5.718c-0.496-1.953,1.026-5.927-0.817-6.535C223.971,84.043,223.002,95.055,221.387,105.422z     M237.725,106.239c-0.498-0.046-0.968-0.122-0.816-0.817c-0.61-3.699,2.242,1.249,1.634-2.452    c-0.074-1.287-2.083-0.639-1.634-2.45c-0.971-7.865-0.952-21.598-2.452-25.325c-2.756,10.077,2.668,23.328-1.634,31.86    c4.672,1.675,0.833-5.159,3.269-5.718C235.696,103.443,236.324,108.625,237.725,106.239z M294.911,91.534    c-0.459-4.732,0.969-15.654-0.817-16.339C294.55,79.927,293.123,90.85,294.911,91.534z M305.53,103.788    c0.982-9.823-1.162-22.686-2.452-28.592C302.654,83.95,303.473,95.173,305.53,103.788z M26.959,76.013    C23.456,80.494,28.997,79.028,26.959,76.013L26.959,76.013z M29.41,76.829c0.632,2.159-3.02,6.327-0.817,4.902    c0.173-0.917,0.907-1.271,1.634-1.634c0.485,1.667-1.533,4.501,0,2.451c1.084-0.811,3.167-7.526,1.633-5.719    C30.679,79.875,30.771,78.895,29.41,76.829z M272.852,101.337c0.512-7.392,1.935-18.207,0-25.324    C272.188,86.72,270.073,92.722,272.852,101.337z M300.628,99.703c2.51,1.7,2.363,8.815,2.449,4.085    c0.089-4.714-2.188-13.805-4.083-21.24c-0.68-2.667,1.087-6.575-2.452-6.535c1.16,3.304-0.456,3.727,1.635,4.084    c-0.023,8.464,0.296,16.587,1.634,23.691c0-1.633,0-3.268,0-4.901c0.471-1.437-0.986-4.8,0.817-4.902    C300.628,95.891,300.628,97.797,300.628,99.703z M157.667,111.957c1.538-8.93,3.644-25.652,1.634-35.128    C159.397,88.639,154.831,100.13,157.667,111.957z M290.008,99.703c2.393-0.48,2.113-4.638,2.451-7.352    c0.603-4.845,1.227-11.539,0-14.704C291.132,84.489,291.412,92.938,290.008,99.703z M95.581,116.041    c1.795-1.599,2.852-5.204,3.267-8.169c1.143-8.158,0.28-19.357,0.817-28.592c-0.181-0.637-0.684-0.95-1.634-0.817    C97.816,91.592,95.039,102.158,95.581,116.041z M68.622,102.97c0.876-4.57-0.516-4.666,1.634-4.9    c-3.826-2.956,1.955-13.478-0.817-17.973c-1.02,8.155-4.073,18.911-4.901,27.775c-0.241,2.575-1.024,7.443,0.816,8.986    C64.989,112.338,67.78,107.36,68.622,102.97z M23.691,84.181c2.153,0.247,2.681-1.131,2.451-3.267    C23.989,80.667,23.461,82.045,23.691,84.181z M297.36,87.449c-0.007-1.198,0.31-6.685-0.817-4.084    C296.552,84.562,296.236,90.049,297.36,87.449z M251.613,87.449c0.107-1.074,0.123-5.911-0.817-3.268    C250.688,85.256,250.672,90.092,251.613,87.449z M14.705,91.534c0.543-1.159,3.587-6.448,1.634-4.902    C16.167,88.171,13.063,90.877,14.705,91.534z M297.36,102.154c-0.53-4.099,1.071-10.33-0.817-13.071    C295.579,91.75,294.419,100.763,297.36,102.154z M294.093,100.52c-0.224-1.749,0.631-8.715-0.816-6.536    C293.498,95.733,292.643,102.699,294.093,100.52z M57.185,107.872c0.447-1.188-0.955-4.222,0.817-4.084    c0.562,4.749-0.487,6.069-1.634,7.352c0.818,1.126,1.347-0.348,2.451,1.635c-0.246-5.579,1.474-13.391-1.634-14.705    c0.261-1.001-0.131-5.046-0.816-2.451C56.776,99.047,55.467,108.467,57.185,107.872z M262.234,101.337    c0.106-1.074,0.123-5.911-0.817-3.267C261.307,99.143,261.293,103.979,262.234,101.337z M171.554,102.97    c-0.007-1.198,0.31-6.685-0.817-4.083C170.746,100.084,170.429,105.571,171.554,102.97z M270.403,102.97    c0.131-0.568-0.286-4.754-0.817-2.45C268.867,103.63,270.023,104.612,270.403,102.97z M50.649,111.957    c-0.167-1.544,0.551-8.072-0.817-5.718C50,107.783,49.281,114.31,50.649,111.957z M115.187,109.506    c0.108-1.074,0.124-5.911-0.817-3.268C114.262,107.312,114.246,112.148,115.187,109.506z M169.919,109.506    c2.279,2.01,3.457,0.833,1.635-1.634C171.544,108.952,170.123,108.62,169.919,109.506z M98.848,115.225    c0.132-0.569-0.285-4.754-0.816-2.45C97.313,115.885,98.469,116.865,98.848,115.225z M43.297,115.225    c0.223-1.112-0.506-3.188-0.816-1.634C42.258,114.703,42.986,116.779,43.297,115.225z"/>
		<path fill-rule="evenodd" clip-rule="evenodd" fill="#CBC1B6" d="M22.874,32.715c19.093-3.297,39.555-1.7,60.452-4.084    c-19.113-0.867-42.33,1.238-62.086,2.451c8.468-2.968,20.708-2.166,31.86-2.451c-3.437-2.389-10.355-1.122-16.339-0.817    c-6.091,0.31-12.522,0.642-17.156,1.634c1.028-3.186,5.3-1.419,7.353-1.634c33.199-3.47,77.941-3.986,115.186-5.718    c41.859-1.948,84.89-5.264,126.623-6.536c-69.16,1.495-145.983,5.715-214.851,8.986c-3.964,0.188-10.82,2.507-13.888,0    c0.045,0.037,0.844-0.498-0.816-0.817c-6.264-1.202-14.112,0.99-20.423,1.634c-0.633-3.158,4.081-1.507,4.901-1.634    c31.049-4.776,75.039-2.743,111.102-5.718c-4.01-2.206-9.244-1.061-13.887-0.817c-34.725,1.82-70.627,3.966-102.116,4.902    c10.456-2.888,25.542-1.144,36.761-3.268c-5.528-0.914-17.52,0.109-26.141,0.816c2.359-3.183,7.36-1.443,10.62-1.634    c9.81-0.572,21.291-1.432,31.043-1.634c-18.709-1.655-35.155,1.347-53.917,1.634c6.178-1.716,10.832-2.094,17.155-2.451    c83.334-4.702,170.693-6.357,254.062-12.254c-8.781,3.112-18.576,2.023-27.774,2.451C199.253,8.604,130.8,12.948,71.89,15.56    c43.07-0.016,86.263-3.88,129.89-5.719c14.351-0.604,28.894-2.125,42.48-1.633c15.748,0.569-5.476,1.506-8.169,1.633    c-47.468,2.243-101.301,4.461-147.863,6.536c67.827-0.439,138.707-5.707,205.049-8.986c-2.328,3.248-6.659,1.392-9.804,1.634    c-49.352,3.792-101.548,4.539-147.046,7.353c55.204,0.136,107.212-4.973,163.384-6.536c-47.076,4.442-97.922,4.767-145.412,8.169    c45.362-0.108,92.721-4.523,141.327-5.718c1.459-0.23,1.676,0.771,0.816,0.816c-7.198-0.028-10.919,0.442-18.787,0.817    c7.978,2.523,17.216-0.748,26.14,0c-67.729,5.517-136.218,6.358-201.779,11.437c62.387-0.733,128.349-7.81,189.526-8.986    c2.493-0.048,13.528-0.421,9.804,0.817c-66.355,3.244-138.343,6.158-206.683,10.62c65.228-2.633,124.062-5.104,183.809-8.169    c9.531-0.489,19.733-2.749,27.774-1.634c1.401,0.194,1.721,0.447,0.817,0.817C211.504,23.899,119.28,28.266,22.874,32.715z     M269.585,15.56c2.643-0.352,7.066,1.075,7.353-1.634C273.325,15.136,271.041,12.818,269.585,15.56z M75.157,17.194    c-1.389-0.183-2.021,0.92,0,0.817c3.706-0.923,11.209,1.951,12.254-1.634C84.377,17.7,79.376,17.056,75.157,17.194z     M66.988,18.011c-2.178,0-4.356,0-6.535,0c-9.925,0.833,6.972,0.983,10.62,0.817C71.131,16.448,68.67,17.441,66.988,18.011z     M50.649,22.912c-2.056,0.067-6.146-1.488-7.353,1.634c24.007-1.188,50.633-2.978,73.524-4.084    c11.235-0.544,22.397,0.634,32.676-2.451C117.668,19.653,83.301,21.846,50.649,22.912z M153.582,18.011    C148.349,17.068,151.788,20.506,153.582,18.011L153.582,18.011z M53.917,26.997c10.411,1.854,26.892-0.247,36.761-0.816    c3.437-0.199,8.714,1.542,10.621-1.634c-0.545,0-1.089,0-1.634,0C84.053,25.945,68.2,26.215,53.917,26.997z M89.045,27.814    c-10.27,0.206,0.182,1.958,4.902,0C92.09,27.844,90.995,27.775,89.045,27.814z"/>
		<path fill-rule="evenodd" clip-rule="evenodd" fill="#CBC1B6" d="M24.508,35.166c22.513-3.148,45.681-3.935,68.622-4.901    c69.378-2.924,138.338-6.389,209.134-9.803c-12.939,3.03-26.138,1.047-39.213,3.267c10.954,1.957,22.25-2.035,36.761-0.817    c7.492,0.629-0.14,0.692-1.634,0.817c-32.831,2.734-75.994,4.085-111.102,5.719c-51.624,2.401-109.753,4.19-157.666,8.169    c68.273-3.049,141.655-6.166,213.217-9.803c14.813-0.752,44.921-4.438,66.172-3.268c10.657,0.587-10.673,1.288-15.521,1.634    C208.07,32.25,118.31,33.058,31.043,39.25c3.062,2.266,11.928-0.268,13.888,0.817C35.382,43.085,29.997,40.842,24.508,35.166z     M82.51,31.898c-18.313,0.772-36.815,1.243-55.551,4.085c76.475-4.36,156.466-6.587,235.275-12.254    C200.38,26.202,147.265,29.169,82.51,31.898z"/>
		<path fill-rule="evenodd" clip-rule="evenodd" fill="#CBC1B6" d="M289.191,5.757c-10.118,3.225-25.453,1.233-36.761,3.268    c0.907-3.157,7.501-1.269,12.253-1.634C270.605,6.937,282.146,6.167,289.191,5.757z"/>
		<path fill-rule="evenodd" clip-rule="evenodd" d="M149.497,18.011c-10.278,3.085-21.44,1.907-32.676,2.451    c-22.891,1.106-49.517,2.896-73.524,4.084c1.207-3.122,5.296-1.567,7.353-1.634C83.301,21.846,117.668,19.653,149.497,18.011z"/>
		<path fill-rule="evenodd" clip-rule="evenodd" fill="#CBC1B6" d="M35.128,24.546c-2.385,3.606-11.52,0.462-15.522,2.45    C20.449,25.098,30.503,25.382,35.128,24.546z"/>
		<path fill-rule="evenodd" clip-rule="evenodd" fill="#CBC1B6" d="M280.205,28.631c5.277-1.804,14.02-0.141,19.606-1.634    c7.548-0.406,14.665,0.638,5.719,0.817C298.943,27.946,285.196,29.343,280.205,28.631z"/>
		<path fill-rule="evenodd" clip-rule="evenodd" fill="#CBC1B6" d="M314.516,31.898c-81.205,2.858-161.784,8.743-245.078,12.254    c-9.14,0.385-17.236,0.467-26.142,1.634c-1.908,0.25-3.821,1.353-5.718,0c0.997-1.704,3.988-1.498,5.718-1.634    c40.156-3.146,84.609-4.304,124.991-6.535c42.749-2.363,86.631-4.307,130.707-6.536c1.147-0.058,5.854,0.028,10.62,0    C311.457,31.07,314.875,29.683,314.516,31.898z"/>
		<path fill-rule="evenodd" clip-rule="evenodd" fill="#CBC1B6" d="M66.171,44.969c-1.87,3.208-6.85,1.377-10.62,1.634    c-4.063,0.277-7.725,1.437-11.437,0.817c-6.1-0.627,6.152-1.477,8.169-1.634C55.871,45.507,62.881,45.571,66.171,44.969z"/>
		<path fill-rule="evenodd" clip-rule="evenodd" fill="#CBC1B6" d="M274.487,49.054c-10.151,1.045-35.578,3.441-46.564,1.634    C244.438,51.138,258.032,48.666,274.487,49.054z"/>
		<path fill-rule="evenodd" clip-rule="evenodd" fill="#CBC1B6" d="M207.5,54.772c13.457-1.883,32.822-1.304,49.831-3.267    c-2.787,3.169-8.409,1.417-13.07,1.634c-4.025,0.187-9.052,1.554-13.069,0.817c9.452,2.78,29.555-1.169,40.029,0    c-14.055,1.468-29.076,1.968-44.115,2.45c3.361,2.36,14.812,0.31,21.239,0c21.211-1.02,46.39-1.38,67.806-3.267    c-4.402,3.157-9.943,1.424-14.704,1.633c-62.873,2.764-118.417,6.871-182.992,9.803c-25.588,1.162-54.074,1.46-75.157,4.084    c-1.767-1.254-4.181-9.568-0.816-10.62c-3.006,1.955,4.889,3.326-0.817,3.268c4.988,3.589,26.106-2.45,33.494,0    c-2.32-0.77-4.41,1.899-12.253,0.817c-5.854,1.499-14.646,0.059-20.423,1.634c61.12-0.633,123.666-6.214,187.893-8.169    C226.881,52.791,212.321,56.239,207.5,54.772z M55.551,65.393c-4.971,0.237-11.042-1.536-13.07,1.634    c53.756-3.224,117.553-5.256,172.372-8.986c3.112-0.211,7.999,1.597,10.618-1.634C167.924,59.179,108.906,62.852,55.551,65.393z"/>
		<path fill-rule="evenodd" clip-rule="evenodd" fill="#CBC1B6" d="M142.145,56.406c9.381-3.038,21.424-1.939,32.678-2.45    c6.229-0.283,12.041-1.476,17.971-0.817C179.925,55.284,155.674,54.655,142.145,56.406z"/>
		<path fill-rule="evenodd" clip-rule="evenodd" fill="#CBC1B6" d="M193.61,54.772c-0.786,1.663-3.136,1.765-5.718,1.634    C188.859,54.921,192.153,55.764,193.61,54.772z"/>
		<path fill-rule="evenodd" clip-rule="evenodd" fill="#CBC1B6" d="M139.695,55.589c-2.649,0.7-21.646,2.845-26.143,0.816    C123.173,57.04,130.32,55.202,139.695,55.589z"/>
		<path fill-rule="evenodd" clip-rule="evenodd" fill="#CBC1B6" d="M106.201,58.857c18.53-0.38,45.606-1.457,66.987-2.451    c4.13-0.192,9.359-1.843,13.07-0.816c-1.334-0.37-5.965,0.67-8.17,0.816c-23.931,1.59-51.439,4.085-79.241,4.085    c-7.415,0,1.902-0.792,2.451-0.817C102.155,59.634,105.135,60.266,106.201,58.857z"/>
		<path fill-rule="evenodd" clip-rule="evenodd" fill="#CBC1B6" d="M97.214,57.223c-3.5,2.158-11.448,2.147-17.972,2.451    c-7.868,0.366-10.587,1.366-14.704,0C70.237,61.564,87.051,56.099,97.214,57.223z"/>
		<path fill-rule="evenodd" clip-rule="evenodd" fill="#CBC1B6" d="M29.41,64.575c-0.595-2.686,1.624-1.25,1.634,0    c0.958-0.131,0.689-1.489,0.816-2.45c1.805,0.102,0.347,3.465,0.817,4.901C31.104,66.694,32.032,63.859,29.41,64.575z"/>
		<path fill-rule="evenodd" clip-rule="evenodd" fill="#CBC1B6" d="M34.311,67.843c-1.215-1.382,5.507,1.131,4.902,2.45    C36.725,70.33,36.036,68.569,34.311,67.843z"/>
		<path fill-rule="evenodd" clip-rule="evenodd" fill="#F6E7A1" d="M17.156,67.843c-0.782,1.669-1.669,3.232-2.451,4.901    C13.85,72.62,15.089,67.747,17.156,67.843z"/>
		<path fill-rule="evenodd" clip-rule="evenodd" fill="#F6E7A1" d="M18.79,74.378C16.773,72.229,21.146,69.645,18.79,74.378    L18.79,74.378z"/>
		<path fill-rule="evenodd" clip-rule="evenodd" fill="#F6E7A1" d="M21.24,71.111c-0.798,3.842-3.928,12.401-8.169,15.521    C15.286,80.951,18.944,76.712,21.24,71.111z"/>
		<path fill-rule="evenodd" clip-rule="evenodd" fill="#F6E7A1" d="M11.438,71.928c1.984,1.254-1.752,3.63-1.634,5.719    C7.752,76.325,11.254,73.715,11.438,71.928z"/>
		<path fill-rule="evenodd" clip-rule="evenodd" fill="#F6E7A1" d="M175.64,110.324c-3.315-9.729-3.709-20.985-5.721-33.495    c-2.978,9.606,1.977,23.86-0.817,34.311c-1.385,2.861-2.098-1.596-1.632-3.268c-2.313-0.134,0.678,5.036-1.634,4.902    c-4.475-3.718-0.452-9.172,0-13.888c0.775-8.121,0.335-17.383,0.816-26.142c0.254,3.936,2.515,0.212,1.635,0    c0.368,0.089,2.246,4.403,1.632,0.817c3.129,6.675,4.599,15.008,4.903,24.508C177.73,95.725,176.145,106.601,175.64,110.324z"/>
		<path fill-rule="evenodd" clip-rule="evenodd" fill="#F6E7A1" d="M321.868,104.604c-5.839-8.049-6.558-21.216-11.436-30.226    c-0.128-3.458,1.283-0.014,1.632,0.817C316.022,84.309,319.509,93.892,321.868,104.604z"/>
		<path fill-rule="evenodd" clip-rule="evenodd" fill="#F6E7A1" d="M236.091,101.337c-2.436,0.559,1.403,7.393-3.269,5.718    c4.302-8.532-1.122-21.783,1.634-31.86c1.5,3.727,1.481,17.46,2.452,25.325c-0.449,1.811,1.56,1.163,1.634,2.45    c0.608,3.701-2.244-1.248-1.634,2.452c-0.151,0.695,0.318,0.771,0.816,0.817C236.324,108.625,235.696,103.443,236.091,101.337z"/>
		<path fill-rule="evenodd" clip-rule="evenodd" fill="#F6E7A1" d="M26.959,76.013C28.997,79.028,23.456,80.494,26.959,76.013    L26.959,76.013z"/>
		<path fill-rule="evenodd" clip-rule="evenodd" fill="#F6E7A1" d="M31.86,76.829c1.534-1.807-0.549,4.908-1.633,5.719    c-1.533,2.05,0.485-0.784,0-2.451c-0.727,0.363-1.461,0.718-1.634,1.634c-2.203,1.425,1.449-2.743,0.817-4.902    C30.771,78.895,30.679,79.875,31.86,76.829z"/>
		<path fill-rule="evenodd" clip-rule="evenodd" fill="#F6E7A1" d="M300.628,93.984c-1.804,0.102-0.347,3.465-0.817,4.902    c0,1.633,0,3.268,0,4.901c-1.338-7.104-1.657-15.227-1.634-23.691c-2.091-0.357-0.475-0.78-1.635-4.084    c3.539-0.04,1.772,3.868,2.452,6.535c1.895,7.435,4.172,16.525,4.083,21.24c-0.086,4.73,0.061-2.385-2.449-4.085    C300.628,97.797,300.628,95.891,300.628,93.984z"/>
		<path fill-rule="evenodd" clip-rule="evenodd" fill="#F6E7A1" d="M65.354,116.858c-1.84-1.543-1.058-6.411-0.816-8.986    c0.828-8.864,3.881-19.621,4.901-27.775c2.772,4.496-3.009,15.017,0.817,17.973c-2.15,0.235-0.757,0.331-1.634,4.9    C67.78,107.36,64.989,112.338,65.354,116.858z"/>
		<path fill-rule="evenodd" clip-rule="evenodd" d="M205.048,98.07c-0.794-3.667-0.496-9.733,0-12.254    c-0.007,0.04,0.184-5.842,0.817-0.817C206.231,87.905,205.286,93.151,205.048,98.07z"/>
		<path fill-rule="evenodd" clip-rule="evenodd" fill="#F6E7A1" d="M16.339,86.632c1.953-1.546-1.091,3.743-1.634,4.902    C13.063,90.877,16.167,88.171,16.339,86.632z"/>
		<path fill-rule="evenodd" clip-rule="evenodd" d="M124.99,93.168c2.092,0.903,1.604,4.387,1.633,7.352    C124.152,98.353,125.988,95.588,124.99,93.168z"/>
		<path fill-rule="evenodd" clip-rule="evenodd" d="M111.102,102.97c0.678-0.925-0.107,11.552,0,13.071    C106.609,115.509,111.497,107.132,111.102,102.97z"/>
		<path fill-rule="evenodd" clip-rule="evenodd" fill="#CBC1B6" d="M321.051,38.434c-0.624,3.455-4.771,1.456-6.535,1.634    c-16.399,1.65-41.55,2.329-61.27,3.268c-68.632,3.268-145.784,8.871-211.583,9.803c1.195-5.305,10.46-3.67,15.521-4.085    c37.045-3.032,79.201-3.854,119.272-5.718c32.89-1.53,65.946-4.165,101.299-5.718c12.157-0.535,24.666,0.262,35.943-1.634    C315.775,35.634,320.436,33.215,321.051,38.434z M305.53,37.617c-0.173,0.987-0.906,0.502-1.635,0    C302.615,41.035,308.884,38.509,305.53,37.617z M312.881,37.617c-1.223,0.139-3.015-0.292-3.267,0.817    C310.837,38.294,312.63,38.726,312.881,37.617z"/>
		<path fill-rule="evenodd" clip-rule="evenodd" fill="#F6E7A1" d="M186.258,72.745c1.341,8.024,2.978,21.856,2.451,32.677    c-0.046,0.943,0.282,6.783-0.817,3.268c0-0.817,0-1.634,0-2.451c0-0.817,0-1.634,0-2.451c-0.493-1.957-1.173-3.728-0.816-6.535    c-1.344,3.014-1.029,7.685-1.635,11.437c-0.261,3.986-1.29-0.788-0.817-2.451C185.429,92.246,185.59,84.383,186.258,72.745z"/>
		<path fill-rule="evenodd" clip-rule="evenodd" fill="#F6E7A1" d="M225.47,73.562c1.844,0.608,0.321,4.582,0.817,6.535    c1.827-0.352,0.331-4.026,0.817-5.718c2.461,7.125-0.531,23.265-1.635,31.86c-2.535-1.534,0.812-6.519-0.817-7.352    c-2.251,1.015,1.036,7.571-3.266,6.535C223.002,95.055,223.971,84.043,225.47,73.562z M224.653,93.168    c3.157,1.054,1.572-9.761,0.817-7.352C225.724,88.791,225.342,91.132,224.653,93.168z"/>
		<path fill-rule="evenodd" clip-rule="evenodd" fill="#F6E7A1" d="M147.864,72.745c3.586,5.74,5.228,17.554,4.901,24.508    c2.958-2.083,1.924-8.024,2.45-12.254c0.387-3.101,0.871-6.008,1.634-8.169c2.385,9.989-3.32,22.478-1.634,31.86    c-2.604-4.2-0.559,2.287-2.45,3.268c-4.1-1.906-0.616-5.743-0.816-8.987C151.373,93.648,148.538,82.348,147.864,72.745z     M152.765,109.506c-0.009-1.198,0.309-6.685-0.816-4.084C151.957,106.62,151.64,112.107,152.765,109.506z"/>
		<path fill-rule="evenodd" clip-rule="evenodd" d="M119.271,98.887c0.817,0,1.634,0,2.45,0c0.507,5.601,0.991,10.144,0.817,17.972    c-2.249-2.262-3.412,0.733-5.718,0.817C118.917,112.692,118.467,105.161,119.271,98.887z"/>
	</g>
</g>
</svg>